<svg id="Layer_1" data-name="Layer 1" xmlns="http://www.w3.org/2000/svg" viewBox="0 0 500 500"><defs><style>.cls-1{fill:#3686c7;}.cls-2{fill:#25669b;}.cls-3{fill:#f15532;}</style></defs><path class="cls-1" d="M330.48,296.76h5.69v1.5h-4.05v1.59h3.57v1.5h-3.57v2.89h-1.64Z"/><path class="cls-1" d="M337.27,296.76h3.06a2.56,2.56,0,0,1,2.86,2.59v0c0,1.73-1.35,2.63-3,2.63h-1.25v2.24h-1.65Zm3,3.77a1.16,1.16,0,0,0,1.3-1.13v0c0-.74-.51-1.13-1.33-1.13h-1.27v2.28Z"/><path class="cls-1" d="M343.87,300.52v0a4,4,0,0,1,6.84-2.71l-1,1.21a2.76,2.76,0,0,0-1.92-.85,2.22,2.22,0,0,0-2.17,2.33v0a2.22,2.22,0,0,0,2.17,2.35,2.69,2.69,0,0,0,2-.88l1,1.06a3.82,3.82,0,0,1-3.07,1.34A3.77,3.77,0,0,1,343.87,300.52Z"/><path class="cls-1" d="M351.63,302.53h1.73v1.71h-1.73Z"/><path class="cls-1" d="M354,300.52v0a3.85,3.85,0,0,1,3.92-3.87,4.12,4.12,0,0,1,2.94,1l-1,1.25a2.73,2.73,0,0,0-1.95-.76,2.25,2.25,0,0,0-2.15,2.33v0a2.24,2.24,0,0,0,2.27,2.37,2.63,2.63,0,0,0,1.55-.45v-1.06h-1.66v-1.43h3.25v3.25a4.88,4.88,0,0,1-3.2,1.19A3.75,3.75,0,0,1,354,300.52Z"/><path class="cls-1" d="M362.12,300.52v0a3.87,3.87,0,0,1,4-3.87,3.83,3.83,0,0,1,4,3.85v0a4,4,0,0,1-7.94,0Zm6.22,0v0a2.27,2.27,0,0,0-2.26-2.35,2.23,2.23,0,0,0-2.24,2.33v0a2.27,2.27,0,0,0,2.26,2.35A2.23,2.23,0,0,0,368.34,300.52Z"/><path class="cls-1" d="M370.19,296.76H372L374,302l2-5.27h1.77l-3,7.53h-1.45Z"/><path class="cls-1" d="M119.34,151.57v-14.2a.47.47,0,0,1,.46-.47H373.21a.47.47,0,0,1,.46.47v14.2H379v-14.2a5.81,5.81,0,0,0-5.8-5.81H119.8a5.81,5.81,0,0,0-5.8,5.81v14.2Z"/><path class="cls-1" d="M373.67,274.56v11.11a.47.47,0,0,1-.46.46H119.8a.47.47,0,0,1-.46-.46V274.56H114v11.11a5.81,5.81,0,0,0,5.8,5.8H373.21a5.81,5.81,0,0,0,5.8-5.8V274.56Z"/><path class="cls-2" d="M78.91,322.69h7.65c4.47,0,7.17,2.64,7.17,6.47v0c0,4.33-3.37,6.58-7.57,6.58H83v5.61H78.91Zm7.38,9.43c2.06,0,3.27-1.22,3.27-2.83v-.05c0-1.85-1.29-2.84-3.35-2.84H83v5.72Z"/><path class="cls-2" d="M95.93,333.38V322.69h4.12v10.59c0,3,1.52,4.62,4,4.62s4-1.52,4-4.49V322.69h4.12v10.56c0,5.67-3.18,8.45-8.21,8.45S95.93,338.89,95.93,333.38Z"/><path class="cls-2" d="M115.89,322.69h8.55a7.43,7.43,0,0,1,5.46,1.9,5.87,5.87,0,0,1,1.6,4.27v.06a5.81,5.81,0,0,1-4,5.8l4.57,6.68h-4.81l-4-6H120v6h-4.11Zm8.29,9.09c2,0,3.15-1.07,3.15-2.65v-.05c0-1.77-1.23-2.68-3.23-2.68H120v5.38Z"/><path class="cls-2" d="M134.67,322.69h7.64c4.47,0,7.17,2.64,7.17,6.47v0c0,4.33-3.37,6.58-7.57,6.58h-3.12v5.61h-4.12Zm7.38,9.43c2.06,0,3.26-1.22,3.26-2.83v-.05c0-1.85-1.29-2.84-3.34-2.84h-3.18v5.72Z"/><path class="cls-2" d="M151.15,332.1v-.05A9.95,9.95,0,0,1,171,332v.06a9.95,9.95,0,0,1-19.89.05Zm15.59,0v-.05a5.7,5.7,0,0,0-5.67-5.89,5.6,5.6,0,0,0-5.62,5.83v.06a5.68,5.68,0,0,0,5.67,5.88A5.6,5.6,0,0,0,166.74,332.1Z"/><path class="cls-2" d="M172.73,338.68l2.44-2.92a8.56,8.56,0,0,0,5.58,2.28c1.69,0,2.7-.67,2.7-1.77v0c0-1.05-.64-1.58-3.77-2.38-3.77-1-6.2-2-6.2-5.73v-.05c0-3.4,2.73-5.64,6.55-5.64A10.83,10.83,0,0,1,187,324.8l-2.14,3.1a8.75,8.75,0,0,0-4.86-1.84c-1.58,0-2.41.72-2.41,1.63v.05c0,1.23.8,1.63,4,2.46,3.8,1,5.93,2.35,5.93,5.62v.05c0,3.72-2.83,5.8-6.87,5.8A11.94,11.94,0,0,1,172.73,338.68Z"/><path class="cls-2" d="M190.58,322.69H204.7v3.66h-10v3.8h8.83v3.66h-8.83v3.93h10.16v3.66H190.58Z"/><path class="cls-2" d="M214.14,338.68l2.43-2.92a8.61,8.61,0,0,0,5.59,2.28c1.69,0,2.7-.67,2.7-1.77v0c0-1.05-.64-1.58-3.77-2.38-3.77-1-6.2-2-6.2-5.73v-.05c0-3.4,2.72-5.64,6.55-5.64a10.85,10.85,0,0,1,6.95,2.38l-2.14,3.1a8.75,8.75,0,0,0-4.86-1.84c-1.58,0-2.41.72-2.41,1.63v.05c0,1.23.8,1.63,4,2.46,3.79,1,5.93,2.35,5.93,5.62v.05c0,3.72-2.83,5.8-6.87,5.8A11.94,11.94,0,0,1,214.14,338.68Z"/><path class="cls-2" d="M232,322.69h7.64c4.47,0,7.17,2.64,7.17,6.47v0c0,4.33-3.37,6.58-7.57,6.58h-3.12v5.61H232Zm7.38,9.43c2,0,3.26-1.22,3.26-2.83v-.05c0-1.85-1.29-2.84-3.34-2.84h-3.18v5.72Z"/><path class="cls-2" d="M249.3,322.69h14.11v3.66h-10v3.8h8.82v3.66h-8.82v3.93h10.16v3.66H249.3Z"/><path class="cls-2" d="M265.83,332.1v-.05a9.52,9.52,0,0,1,9.76-9.69,9.66,9.66,0,0,1,7.38,2.89l-2.62,3a6.89,6.89,0,0,0-4.79-2.11,5.55,5.55,0,0,0-5.43,5.83v.06c0,3.21,2.23,5.88,5.43,5.88a6.76,6.76,0,0,0,4.92-2.19l2.63,2.64a9.59,9.59,0,0,1-7.68,3.35A9.45,9.45,0,0,1,265.83,332.1Z"/><path class="cls-2" d="M286,322.69h4.12V341.4H286Z"/><path class="cls-2" d="M294.28,322.69h14.25v3.74H298.4v4h8.93v3.75H298.4v7.24h-4.12Z"/><path class="cls-2" d="M311.46,322.69h4.12V341.4h-4.12Z"/><path class="cls-2" d="M318.89,332.1v-.05a9.52,9.52,0,0,1,9.76-9.69,9.66,9.66,0,0,1,7.38,2.89l-2.62,3a6.93,6.93,0,0,0-4.79-2.11,5.55,5.55,0,0,0-5.43,5.83v.06c0,3.21,2.22,5.88,5.43,5.88a6.78,6.78,0,0,0,4.92-2.19l2.62,2.64a9.55,9.55,0,0,1-7.67,3.35A9.45,9.45,0,0,1,318.89,332.1Z"/><path class="cls-2" d="M345.31,322.55h3.8l8,18.85h-4.3l-1.71-4.19H343.2l-1.71,4.19h-4.2Zm4.34,11-2.49-6.07-2.49,6.07Z"/><path class="cls-2" d="M361.42,326.48h-5.69v-3.79h15.5v3.79h-5.69V341.4h-4.12Z"/><path class="cls-2" d="M374,322.69h4.11V341.4H374Z"/><path class="cls-2" d="M381.45,332.1v-.05a10,10,0,0,1,19.9-.06v.06a10,10,0,0,1-19.9.05Zm15.59,0v-.05a5.69,5.69,0,0,0-5.67-5.89,5.6,5.6,0,0,0-5.61,5.83v.06a5.68,5.68,0,0,0,5.66,5.88A5.6,5.6,0,0,0,397,332.1Z"/><path class="cls-2" d="M404.45,322.69h3.8L417,334.21V322.69h4.07V341.4h-3.51l-9.06-11.89V341.4h-4.07Z"/><path class="cls-2" d="M115.35,349.27h3.79l8,18.85h-4.31l-1.71-4.2h-7.92l-1.71,4.2h-4.2Zm4.33,11-2.49-6.07-2.49,6.07Z"/><path class="cls-2" d="M129.5,349.4h3.8l8.77,11.53V349.4h4.06v18.72h-3.5l-9.07-11.9v11.9H129.5Z"/><path class="cls-2" d="M150.07,349.4h7.3c5.88,0,9.94,4,9.94,9.31v.05c0,5.27-4.06,9.36-9.94,9.36h-7.3Zm4.11,3.72V364.4h3.19a5.33,5.33,0,0,0,5.64-5.59v-.05a5.37,5.37,0,0,0-5.64-5.64Z"/><path class="cls-2" d="M177.61,360.1V349.4h4.12V360c0,3.05,1.52,4.62,4,4.62s4-1.52,4-4.49V349.4h4.12V360c0,5.67-3.18,8.45-8.21,8.45S177.61,365.61,177.61,360.1Z"/><path class="cls-2" d="M196.28,365.39l2.44-2.91a8.55,8.55,0,0,0,5.58,2.27c1.69,0,2.7-.67,2.7-1.77v-.05c0-1-.64-1.58-3.77-2.38-3.77-1-6.2-2-6.2-5.72v-.06c0-3.39,2.73-5.64,6.55-5.64a10.85,10.85,0,0,1,6.95,2.38l-2.14,3.11a8.67,8.67,0,0,0-4.86-1.85c-1.58,0-2.41.72-2.41,1.63v.05c0,1.23.8,1.63,4,2.46,3.8,1,5.94,2.36,5.94,5.62v.05c0,3.72-2.84,5.81-6.88,5.81A11.9,11.9,0,0,1,196.28,365.39Z"/><path class="cls-2" d="M214.13,349.4h14.12v3.66h-10v3.8H227v3.66h-8.82v3.94h10.16v3.66H214.13Z"/><path class="cls-2" d="M239,349.4h4.12v15h9.33v3.75H239Z"/><path class="cls-2" d="M255.16,349.4h4.12v18.72h-4.12Z"/><path class="cls-2" d="M263.41,349.4h4.44l4.93,7.92,4.92-7.92h4.43v18.72H278V355.9l-5.26,8h-.11L267.45,356v12.14h-4Z"/><path class="cls-2" d="M286.26,349.4h4.11v18.72h-4.11Z"/><path class="cls-2" d="M298.87,353.2h-5.69v-3.8h15.5v3.8H303v14.92h-4.12Z"/><path class="cls-2" d="M315.3,349.27h3.8l8,18.85h-4.3l-1.72-4.2h-7.91l-1.71,4.2h-4.2Zm4.33,11-2.48-6.07-2.49,6.07Z"/><path class="cls-2" d="M331.41,353.2h-5.7v-3.8h15.51v3.8h-5.69v14.92h-4.12Z"/><path class="cls-2" d="M344,349.4h4.12v18.72H344Z"/><path class="cls-2" d="M351.44,358.81v-.05a9.95,9.95,0,0,1,19.89-.05v.05a9.95,9.95,0,0,1-19.89.05Zm15.59,0v-.05a5.69,5.69,0,0,0-5.67-5.88,5.6,5.6,0,0,0-5.62,5.83v.05a5.68,5.68,0,0,0,5.67,5.88A5.6,5.6,0,0,0,367,358.81Z"/><path class="cls-2" d="M374.44,349.4h3.79L387,360.93V349.4h4.06v18.72h-3.5l-9.07-11.9v11.9h-4.06Z"/><rect class="cls-2" x="99.92" y="262.53" width="5.34" height="5.34"/><path class="cls-2" d="M105.26,257.31H99.92v-5.23h5.34Zm0-10.46H99.92v-5.23h5.34Zm0-10.46H99.92v-5.22h5.34Zm0-10.46H99.92v-5.22h5.34Zm0-10.45H99.92v-5.23h5.34Zm0-10.46H99.92v-5.23h5.34Zm0-10.45H99.92v-5.23h5.34Zm0-10.46H99.92v-5.23h5.34Zm0-10.46H99.92v-5.23h5.34Z"/><rect class="cls-2" x="99.92" y="157.85" width="5.34" height="5.34"/><path class="cls-2" d="M166.8,163.2h-5.12v-5.35h5.12Zm-10.25,0h-5.13v-5.35h5.13Zm-10.26,0h-5.13v-5.35h5.13Zm-10.25,0h-5.13v-5.35H136Zm-10.26,0h-5.13v-5.35h5.13Zm-10.26,0h-5.13v-5.35h5.13Z"/><rect class="cls-2" x="171.93" y="157.85" width="5.34" height="5.34"/><path class="cls-2" d="M177.28,257.31h-5.35v-5.23h5.35Zm0-10.46h-5.35v-5.23h5.35Zm0-10.46h-5.35v-5.22h5.35Zm0-10.45h-5.35v-5.23h5.35Zm0-10.46h-5.35v-5.23h5.35Zm0-10.45h-5.35V199.8h5.35Zm0-10.46h-5.35v-5.23h5.35Zm0-10.46h-5.35v-5.23h5.35Zm0-10.46h-5.35v-5.22h5.35Z"/><rect class="cls-2" x="171.93" y="262.53" width="5.34" height="5.34"/><path class="cls-2" d="M166.8,267.88h-5.12v-5.35h5.12Zm-10.25,0h-5.13v-5.35h5.13Zm-10.26,0h-5.13v-5.35h5.13Zm-10.25,0h-5.13v-5.35H136Zm-10.26,0h-5.13v-5.35h5.13Zm-10.26,0h-5.13v-5.35h5.13Z"/><path class="cls-3" d="M262.24,215.31a2.66,2.66,0,0,1-2.67-2.67v-9.37a7.26,7.26,0,0,0-7.25-7.25H237.9a7.26,7.26,0,0,0-7.25,7.25v9.37a2.68,2.68,0,0,1-5.35,0v-9.37a12.61,12.61,0,0,1,12.6-12.6h14.42a12.61,12.61,0,0,1,12.59,12.6v9.37A2.67,2.67,0,0,1,262.24,215.31Z"/><path class="cls-3" d="M245.11,191.5a12.64,12.64,0,1,1,12.63-12.64A12.65,12.65,0,0,1,245.11,191.5Zm0-19.93a7.3,7.3,0,1,0,7.29,7.29A7.31,7.31,0,0,0,245.11,171.57Z"/><path class="cls-3" d="M264,231H227.14a2.68,2.68,0,1,1,0-5.35H264a2.68,2.68,0,0,1,0,5.35Z"/><path class="cls-3" d="M264,241.78H227.14a2.67,2.67,0,1,1,0-5.34H264a2.67,2.67,0,0,1,0,5.34Z"/><path class="cls-3" d="M264,252.93H227.14a2.67,2.67,0,1,1,0-5.34H264a2.67,2.67,0,1,1,0,5.34Z"/><path class="cls-3" d="M267.28,216.4H222.94a2.67,2.67,0,1,1,0-5.34h44.34a2.67,2.67,0,1,1,0,5.34Z"/><path class="cls-2" d="M155.47,215.34a2.66,2.66,0,0,1-2.67-2.67v-8.33a6.15,6.15,0,0,0-6.14-6.14H133.85a6.14,6.14,0,0,0-6.14,6.14v8.33a2.67,2.67,0,0,1-5.34,0v-8.33a11.5,11.5,0,0,1,11.48-11.49h12.81a11.5,11.5,0,0,1,11.48,11.49v8.33A2.66,2.66,0,0,1,155.47,215.34Z"/><path class="cls-2" d="M140.25,194.19a11.53,11.53,0,1,1,11.53-11.53A11.54,11.54,0,0,1,140.25,194.19Zm0-17.7a6.18,6.18,0,1,0,6.18,6.17A6.18,6.18,0,0,0,140.25,176.49Z"/><path class="cls-2" d="M157,229.25h-32.7a2.67,2.67,0,0,1,0-5.34H157a2.67,2.67,0,0,1,0,5.34Z"/><path class="cls-2" d="M157,238.84h-32.7a2.67,2.67,0,0,1,0-5.34H157a2.67,2.67,0,1,1,0,5.34Z"/><path class="cls-2" d="M157,248.75h-32.7a2.68,2.68,0,0,1,0-5.35H157a2.68,2.68,0,0,1,0,5.35Z"/><path class="cls-2" d="M159.94,216.31H120.56a2.68,2.68,0,0,1,0-5.35h39.38a2.68,2.68,0,0,1,0,5.35Z"/><rect class="cls-2" x="315.73" y="262.53" width="5.34" height="5.34"/><path class="cls-2" d="M321.07,257.31h-5.34v-5.23h5.34Zm0-10.46h-5.34v-5.23h5.34Zm0-10.46h-5.34v-5.22h5.34Zm0-10.46h-5.34v-5.22h5.34Zm0-10.45h-5.34v-5.23h5.34Zm0-10.46h-5.34v-5.23h5.34Zm0-10.45h-5.34v-5.23h5.34Zm0-10.46h-5.34v-5.23h5.34Zm0-10.46h-5.34v-5.23h5.34Z"/><rect class="cls-2" x="315.73" y="157.85" width="5.34" height="5.34"/><path class="cls-2" d="M382.61,163.2h-5.12v-5.35h5.12Zm-10.25,0h-5.13v-5.35h5.13Zm-10.26,0H357v-5.35h5.13Zm-10.25,0h-5.13v-5.35h5.13Zm-10.26,0h-5.13v-5.35h5.13Zm-10.26,0H326.2v-5.35h5.13Z"/><rect class="cls-2" x="387.74" y="157.85" width="5.34" height="5.34"/><path class="cls-2" d="M393.09,257.31h-5.35v-5.23h5.35Zm0-10.46h-5.35v-5.23h5.35Zm0-10.46h-5.35v-5.22h5.35Zm0-10.45h-5.35v-5.23h5.35Zm0-10.46h-5.35v-5.23h5.35Zm0-10.45h-5.35V199.8h5.35Zm0-10.46h-5.35v-5.23h5.35Zm0-10.46h-5.35v-5.23h5.35Zm0-10.46h-5.35v-5.22h5.35Z"/><rect class="cls-2" x="387.74" y="262.53" width="5.34" height="5.34"/><path class="cls-2" d="M382.61,267.88h-5.12v-5.35h5.12Zm-10.25,0h-5.13v-5.35h5.13Zm-10.26,0H357v-5.35h5.13Zm-10.25,0h-5.13v-5.35h5.13Zm-10.26,0h-5.13v-5.35h5.13Zm-10.26,0H326.2v-5.35h5.13Z"/><path class="cls-2" d="M371.28,215.34a2.66,2.66,0,0,1-2.67-2.67v-8.33a6.15,6.15,0,0,0-6.14-6.14H349.66a6.14,6.14,0,0,0-6.14,6.14v8.33a2.67,2.67,0,0,1-5.34,0v-8.33a11.5,11.5,0,0,1,11.48-11.49h12.81A11.5,11.5,0,0,1,374,204.34v8.33A2.66,2.66,0,0,1,371.28,215.34Z"/><path class="cls-2" d="M356.06,194.19a11.53,11.53,0,1,1,11.53-11.53A11.54,11.54,0,0,1,356.06,194.19Zm0-17.7a6.18,6.18,0,1,0,6.18,6.17A6.18,6.18,0,0,0,356.06,176.49Z"/><path class="cls-2" d="M372.8,229.25H340.1a2.67,2.67,0,0,1,0-5.34h32.7a2.67,2.67,0,1,1,0,5.34Z"/><path class="cls-2" d="M372.8,238.84H340.1a2.67,2.67,0,1,1,0-5.34h32.7a2.67,2.67,0,1,1,0,5.34Z"/><path class="cls-2" d="M372.8,248.75H340.1a2.68,2.68,0,0,1,0-5.35h32.7a2.68,2.68,0,0,1,0,5.35Z"/><path class="cls-2" d="M375.75,216.31H336.37a2.68,2.68,0,0,1,0-5.35h39.38a2.68,2.68,0,0,1,0,5.35Z"/><path class="cls-3" d="M274.76,269.12H207.24V156.61H283V257.74h5.35V153.94a2.68,2.68,0,0,0-2.68-2.68H204.57a2.67,2.67,0,0,0-2.67,2.68V271.8a2.67,2.67,0,0,0,2.67,2.67h70.19Z"/><path class="cls-3" d="M293.55,255.12l-3.77,5.3h.68v13h-13v-13h9.35l3.8-5.35H274.76a2.67,2.67,0,0,0-2.67,2.67v18.37a2.66,2.66,0,0,0,2.67,2.67h18.37a2.66,2.66,0,0,0,2.67-2.67V257.74A2.65,2.65,0,0,0,293.55,255.12Z"/><path class="cls-3" d="M287.17,271.41a2.66,2.66,0,0,1-1.91-.81l-4.86-5a2.67,2.67,0,1,1,3.83-3.73l2.61,2.69,9.51-13.49a2.67,2.67,0,1,1,4.36,3.08l-11.35,16.12a2.66,2.66,0,0,1-2,1.12Z"/></svg>