<svg id="Layer_1" data-name="Layer 1" xmlns="http://www.w3.org/2000/svg" viewBox="0 0 500 500"><defs><style>.cls-1{fill:#3686c7;}.cls-2{fill:#25669b;}.cls-3{fill:#f15532;}</style></defs><path class="cls-1" d="M371.65,114.61H128.35a5.81,5.81,0,0,0-5.81,5.8v148.3a5.82,5.82,0,0,0,5.81,5.81h84.44a39.19,39.19,0,0,1,1-5.35H128.35a.45.45,0,0,1-.46-.46V120.41a.46.46,0,0,1,.46-.46h243.3a.47.47,0,0,1,.46.46v148.3a.46.46,0,0,1-.46.46H289.82a39.19,39.19,0,0,1,1,5.35h80.81a5.82,5.82,0,0,0,5.81-5.81V120.41A5.81,5.81,0,0,0,371.65,114.61Z"/><path class="cls-2" d="M323.25,238.76V174h-11.2V156.35h-122V174H177.62v64.78h-8.41v5.34H214v3.69h-3.05v5.34H224.4a27.38,27.38,0,0,1,6.21-6.28V205.33h12.13v36a36.72,36.72,0,0,1,5.34-.87V205.33h6v35a37.25,37.25,0,0,1,5.35.71V205.33h12.12V246.1a27.74,27.74,0,0,1,7.28,7h13.93v-5.34h-4.56V244.1h42.63v-5.34Zm-133.18,0H183V179.32h7.1Zm35.2,9h-6V205.33h6ZM274.18,200H222.13v-5.06H280V200Zm8.64,47.8h-6V205.33h6Zm23.89-9H288.16V205.33H298V200H285.33v-10.4H216.79V200H204.1v5.34H214v33.43H195.41V161.69h111.3Zm11.2,0h-5.86V179.32h5.86Z"/><rect class="cls-2" x="177.25" y="156.35" width="147.08" height="5.34"/><path class="cls-2" d="M219.46,178.91a2.66,2.66,0,0,1-2.67-2.67V172a2.67,2.67,0,1,1,5.34,0v4.22A2.66,2.66,0,0,1,219.46,178.91Z"/><path class="cls-2" d="M240.53,178.91a2.67,2.67,0,0,1-2.68-2.67V172a2.68,2.68,0,0,1,5.35,0v4.22A2.67,2.67,0,0,1,240.53,178.91Z"/><path class="cls-2" d="M261.59,178.91a2.67,2.67,0,0,1-2.67-2.67V172a2.67,2.67,0,1,1,5.34,0v4.22A2.66,2.66,0,0,1,261.59,178.91Z"/><path class="cls-2" d="M282.66,178.91a2.66,2.66,0,0,1-2.67-2.67V172a2.67,2.67,0,1,1,5.34,0v4.22A2.66,2.66,0,0,1,282.66,178.91Z"/><rect class="cls-2" x="246.13" y="134" width="9.74" height="6.51"/><rect class="cls-2" x="246.13" y="142.17" width="22.43" height="1.87"/><rect class="cls-2" x="246.13" y="146.06" width="22.43" height="1.87"/><rect class="cls-2" x="257.35" y="134.4" width="11.21" height="1.87"/><rect class="cls-2" x="257.35" y="138.28" width="11.21" height="1.87"/><rect class="cls-2" x="244.8" y="132.69" width="2.67" height="27.2"/><path class="cls-3" d="M251.81,321.27a42,42,0,1,1,42-42A42,42,0,0,1,251.81,321.27Zm0-78.65a36.65,36.65,0,1,0,36.66,36.65A36.69,36.69,0,0,0,251.81,242.62Z"/><path class="cls-3" d="M276.83,312.13h-5.34V300.7c0-5.19-4.61-9.42-10.27-9.42H242.41c-5.66,0-10.27,4.23-10.27,9.42v11.43H226.8V300.7c0-8.14,7-14.76,15.61-14.76h18.81c8.61,0,15.61,6.62,15.61,14.76Z"/><path class="cls-3" d="M251.81,283.91a15.67,15.67,0,1,1,15.67-15.67A15.68,15.68,0,0,1,251.81,283.91Zm0-26a10.33,10.33,0,1,0,10.33,10.33A10.34,10.34,0,0,0,251.81,257.91Z"/><path class="cls-2" d="M172.05,339.64h4.12v18.72h-4.12Z"/><path class="cls-2" d="M180.31,339.64h3.79l8.77,11.53V339.64h4.07v18.72h-3.5l-9.07-11.9v11.9h-4.06Z"/><path class="cls-2" d="M200.88,339.64h7.3c5.88,0,9.94,4,9.94,9.31V349c0,5.27-4.06,9.36-9.94,9.36h-7.3Zm4.11,3.72v11.28h3.19a5.33,5.33,0,0,0,5.64-5.59V349a5.37,5.37,0,0,0-5.64-5.64Z"/><path class="cls-2" d="M221.42,339.64h4.12v18.72h-4.12Z"/><path class="cls-2" d="M228.07,339.64h4.55l4.89,13.18,4.89-13.18h4.44l-7.57,18.85h-3.63Z"/><path class="cls-2" d="M249.36,339.64h4.12v18.72h-4.12Z"/><path class="cls-2" d="M257.62,339.64h7.3c5.88,0,9.94,4,9.94,9.31V349c0,5.27-4.06,9.36-9.94,9.36h-7.3Zm4.11,3.72v11.28h3.19a5.33,5.33,0,0,0,5.64-5.59V349a5.37,5.37,0,0,0-5.64-5.64Z"/><path class="cls-2" d="M277.68,350.34v-10.7h4.12v10.59c0,3,1.52,4.62,4,4.62s4-1.52,4-4.49V339.64H294V350.2c0,5.67-3.18,8.45-8.21,8.45S277.68,355.85,277.68,350.34Z"/><path class="cls-2" d="M303.39,339.51h3.79l8,18.85h-4.3l-1.71-4.2h-7.92l-1.71,4.2h-4.2Zm4.33,11-2.49-6.07-2.49,6.07Z"/><path class="cls-2" d="M317.54,339.64h4.11v15H331v3.75H317.54Z"/><path class="cls-2" d="M148.1,366.35h7.65c4.46,0,7.16,2.65,7.16,6.47v.06c0,4.33-3.36,6.58-7.56,6.58h-3.13v5.61H148.1Zm7.38,9.44c2.06,0,3.26-1.23,3.26-2.83v-.06c0-1.84-1.28-2.83-3.34-2.83h-3.18v5.72Z"/><path class="cls-2" d="M170,366.22h3.8l8,18.85h-4.31l-1.71-4.2h-7.91l-1.71,4.2h-4.2Zm4.33,11-2.49-6.07-2.48,6.07Z"/><path class="cls-2" d="M184.11,366.35h8.56a7.43,7.43,0,0,1,5.45,1.9,5.87,5.87,0,0,1,1.61,4.28v.05a5.83,5.83,0,0,1-4,5.81l4.57,6.68h-4.81l-4-6h-3.24v6h-4.12Zm8.29,9.1c2,0,3.16-1.07,3.16-2.65v-.05c0-1.77-1.23-2.68-3.24-2.68h-4.09v5.38Z"/><path class="cls-2" d="M207.25,370.15h-5.69v-3.8h15.5v3.8h-5.69v14.92h-4.12Z"/><path class="cls-2" d="M219.86,366.35H224v18.72h-4.11Z"/><path class="cls-2" d="M227.28,375.77v-.06A9.51,9.51,0,0,1,237,366a9.66,9.66,0,0,1,7.38,2.89l-2.62,3a6.89,6.89,0,0,0-4.79-2.11,5.54,5.54,0,0,0-5.42,5.83v0c0,3.21,2.22,5.88,5.42,5.88a6.74,6.74,0,0,0,4.92-2.19l2.63,2.65a9.58,9.58,0,0,1-7.68,3.34A9.45,9.45,0,0,1,227.28,375.77Z"/><path class="cls-2" d="M247.48,366.35h4.12v18.72h-4.12Z"/><path class="cls-2" d="M255.73,366.35h7.65c4.46,0,7.17,2.65,7.17,6.47v.06c0,4.33-3.37,6.58-7.57,6.58h-3.13v5.61h-4.12Zm7.38,9.44c2.06,0,3.26-1.23,3.26-2.83v-.06c0-1.84-1.28-2.83-3.34-2.83h-3.18v5.72Z"/><path class="cls-2" d="M277.59,366.22h3.8l8,18.85H285.1l-1.71-4.2h-7.91l-1.71,4.2h-4.2Zm4.33,11-2.48-6.07L277,377.24Z"/><path class="cls-2" d="M293.7,370.15H288v-3.8h15.51v3.8h-5.7v14.92H293.7Z"/><path class="cls-2" d="M306.3,366.35h4.12v18.72H306.3Z"/><path class="cls-2" d="M313.73,375.77v-.06a9.95,9.95,0,0,1,19.89,0v0a9.68,9.68,0,0,1-10,9.68A9.58,9.58,0,0,1,313.73,375.77Zm15.59,0v-.06a5.69,5.69,0,0,0-5.67-5.88,5.6,5.6,0,0,0-5.62,5.83v0a5.68,5.68,0,0,0,5.67,5.88A5.59,5.59,0,0,0,329.32,375.77Z"/><path class="cls-2" d="M336.73,366.35h3.8l8.77,11.53V366.35h4.06v18.72h-3.5l-9.07-11.9v11.9h-4.06Z"/><path class="cls-1" d="M330.05,279.13h5.7v1.49H331.7v1.59h3.57v1.5H331.7v2.89h-1.65Z"/><path class="cls-1" d="M336.85,279.13h3a2.56,2.56,0,0,1,2.86,2.58v0c0,1.73-1.34,2.63-3,2.63h-1.25v2.24h-1.64Zm2.94,3.77a1.16,1.16,0,0,0,1.31-1.13v0c0-.73-.51-1.13-1.34-1.13h-1.27v2.29Z"/><path class="cls-1" d="M343.44,282.89v0a3.8,3.8,0,0,1,3.9-3.87,3.88,3.88,0,0,1,3,1.15l-1.05,1.21a2.79,2.79,0,0,0-1.91-.84,2.21,2.21,0,0,0-2.17,2.33v0a2.22,2.22,0,0,0,2.17,2.35,2.7,2.7,0,0,0,2-.88l1,1.06a3.82,3.82,0,0,1-3.06,1.33A3.77,3.77,0,0,1,343.44,282.89Z"/><path class="cls-1" d="M351.21,284.9h1.73v1.7h-1.73Z"/><path class="cls-1" d="M353.53,282.89v0a3.83,3.83,0,0,1,3.92-3.87,4,4,0,0,1,2.93,1l-1,1.24a2.76,2.76,0,0,0-2-.75,2.24,2.24,0,0,0-2.14,2.33v0a2.24,2.24,0,0,0,2.26,2.37,2.6,2.6,0,0,0,1.55-.45v-1.07H357.4V282.3h3.25v3.25a4.86,4.86,0,0,1-3.19,1.18A3.74,3.74,0,0,1,353.53,282.89Z"/><path class="cls-1" d="M361.69,282.89v0a4,4,0,0,1,7.95,0v0a4,4,0,0,1-7.95,0Zm6.23,0v0a2.27,2.27,0,0,0-2.27-2.35,2.23,2.23,0,0,0-2.24,2.33v0a2.27,2.27,0,0,0,2.26,2.35A2.24,2.24,0,0,0,367.92,282.89Z"/><path class="cls-1" d="M369.77,279.13h1.82l2,5.26,1.95-5.26h1.78l-3,7.53h-1.46Z"/></svg>