<svg id="Layer_1" data-name="Layer 1" xmlns="http://www.w3.org/2000/svg" viewBox="0 0 500 500"><defs><style>.cls-1{fill:#3686c7;}.cls-2{fill:#25669b;}.cls-3{fill:#f15532;}</style></defs><path class="cls-1" d="M333.74,304.31h5.7v1.5h-4.05v1.59H339v1.5h-3.57v2.89h-1.65Z"/><path class="cls-1" d="M340.54,304.31h3a2.57,2.57,0,0,1,2.87,2.59v0c0,1.73-1.35,2.63-3,2.63h-1.24v2.24h-1.65Zm2.95,3.77a1.16,1.16,0,0,0,1.3-1.13v0c0-.74-.51-1.13-1.34-1.13h-1.26v2.28Z"/><path class="cls-1" d="M347.13,308.07v0a3.8,3.8,0,0,1,3.9-3.86,3.85,3.85,0,0,1,3,1.15l-1.05,1.21a2.74,2.74,0,0,0-1.91-.85,2.22,2.22,0,0,0-2.17,2.33v0A2.22,2.22,0,0,0,351,310.4a2.73,2.73,0,0,0,2-.87l1,1.05a3.94,3.94,0,0,1-6.9-2.51Z"/><path class="cls-1" d="M354.9,310.08h1.73v1.71H354.9Z"/><path class="cls-1" d="M357.22,308.07v0a3.84,3.84,0,0,1,3.92-3.86,4.11,4.11,0,0,1,2.94,1l-1,1.25a2.73,2.73,0,0,0-2-.76,2.25,2.25,0,0,0-2.15,2.33v0a2.24,2.24,0,0,0,2.26,2.37,2.6,2.6,0,0,0,1.55-.45v-1.06H361.1v-1.42h3.24v3.24a4.83,4.83,0,0,1-3.19,1.19A3.74,3.74,0,0,1,357.22,308.07Z"/><path class="cls-1" d="M365.38,308.07v0a3.87,3.87,0,0,1,4-3.86,3.82,3.82,0,0,1,4,3.84v0a4,4,0,0,1-7.95,0Zm6.23,0v0a2.27,2.27,0,0,0-2.26-2.35,2.23,2.23,0,0,0-2.24,2.33v0a2.27,2.27,0,0,0,2.26,2.35A2.23,2.23,0,0,0,371.61,308.07Z"/><path class="cls-1" d="M373.46,304.31h1.82l2,5.27,2-5.27H381l-3,7.53h-1.45Z"/><path class="cls-2" d="M139,342.33h3.79l8,18.86h-4.3l-1.71-4.2h-7.92l-1.71,4.2H131Zm4.33,11-2.49-6.07-2.49,6.07Z"/><path class="cls-2" d="M151.16,351.88v-.05a9.51,9.51,0,0,1,9.76-9.68A9.66,9.66,0,0,1,168.3,345l-2.62,3a6.94,6.94,0,0,0-4.79-2.12,5.55,5.55,0,0,0-5.43,5.83v.06c0,3.21,2.22,5.88,5.43,5.88a6.78,6.78,0,0,0,4.92-2.19l2.62,2.64a9.55,9.55,0,0,1-7.67,3.35A9.45,9.45,0,0,1,151.16,351.88Z"/><path class="cls-2" d="M169.8,351.88v-.05a9.51,9.51,0,0,1,9.76-9.68,9.66,9.66,0,0,1,7.38,2.88l-2.62,3a6.9,6.9,0,0,0-4.78-2.12,5.54,5.54,0,0,0-5.43,5.83v.06c0,3.21,2.22,5.88,5.43,5.88a6.81,6.81,0,0,0,4.92-2.19l2.62,2.64a9.59,9.59,0,0,1-7.68,3.35A9.46,9.46,0,0,1,169.8,351.88Z"/><path class="cls-2" d="M188.45,351.88v-.05a9.68,9.68,0,0,1,10-9.68,9.58,9.58,0,0,1,9.92,9.62v.06a9.95,9.95,0,0,1-19.89.05Zm15.59,0v-.05a5.7,5.7,0,0,0-5.67-5.89,5.59,5.59,0,0,0-5.61,5.83v.06a5.68,5.68,0,0,0,5.66,5.88A5.6,5.6,0,0,0,204,351.88Z"/><path class="cls-2" d="M211.15,353.16V342.47h4.13v10.59c0,3.05,1.52,4.62,4,4.62s4-1.52,4-4.49V342.47h4.12V353c0,5.67-3.18,8.45-8.21,8.45S211.15,358.67,211.15,353.16Z"/><path class="cls-2" d="M231.11,342.47h3.8L243.68,354V342.47h4.07v18.72h-3.51l-9.06-11.9v11.9h-4.07Z"/><path class="cls-2" d="M256,346.27h-5.7v-3.8h15.52v3.8h-5.7v14.92H256Z"/><path class="cls-2" d="M272.47,342.33h3.8l8,18.86H280l-1.72-4.2h-7.91l-1.71,4.2h-4.2Zm4.34,11-2.49-6.07-2.49,6.07Z"/><path class="cls-2" d="M286.62,342.47h8.7a6.76,6.76,0,0,1,4.89,1.66,4.25,4.25,0,0,1,1.28,3.18v.05a4.36,4.36,0,0,1-2.46,4c2.17.83,3.51,2.08,3.51,4.6v.05c0,3.42-2.78,5.14-7,5.14h-8.91ZM297.4,348c0-1.23-1-1.92-2.7-1.92h-4.06v4h3.79c1.82,0,3-.59,3-2Zm-2,5.46h-4.75v4.12h4.89c1.82,0,2.92-.65,2.92-2v-.05C298.45,354.23,297.51,353.46,295.39,353.46Z"/><path class="cls-2" d="M305.57,342.47h4.11v18.72h-4.11Z"/><path class="cls-2" d="M313.82,342.47h4.12v15h9.33v3.75H313.82Z"/><path class="cls-2" d="M330,342.47h4.11v18.72H330Z"/><path class="cls-2" d="M342.62,346.27h-5.69v-3.8h15.51v3.8h-5.7v14.92h-4.12Z"/><path class="cls-2" d="M360.31,353.81l-7.19-11.34h4.81l4.46,7.51,4.55-7.51h4.68l-7.19,11.25v7.47h-4.12Z"/><polygon class="cls-1" points="286.12 298.4 305.99 298.4 302.71 293.06 286.12 293.06 286.12 298.4"/><path class="cls-1" d="M376.7,138.49H123.29a5.82,5.82,0,0,0-5.8,5.81V292.6a5.81,5.81,0,0,0,5.8,5.8h67.78v-5.34H123.29a.46.46,0,0,1-.45-.46V144.3a.45.45,0,0,1,.45-.46H376.7a.45.45,0,0,1,.46.46V292.6a.46.46,0,0,1-.46.46H317.76L321,298.4H376.7a5.81,5.81,0,0,0,5.81-5.8V144.3A5.82,5.82,0,0,0,376.7,138.49Z"/><rect class="cls-2" x="287.88" y="248.6" width="5.34" height="5.12"/><rect class="cls-2" x="287.88" y="238.36" width="5.34" height="5.12"/><rect class="cls-2" x="287.88" y="228.12" width="5.34" height="5.12"/><rect class="cls-2" x="287.88" y="217.87" width="5.34" height="5.12"/><path class="cls-2" d="M271.4,228.34a2.67,2.67,0,0,0,2.67-2.67V202.15h-5.34V223H243.4a33.16,33.16,0,0,0-1.17,3.74v1.6Z"/><rect class="cls-2" x="287.88" y="207.64" width="5.34" height="5.12"/><path class="cls-2" d="M271.4,264.61h-8.8a2.66,2.66,0,0,0-1.92.81,33.3,33.3,0,0,0,6.35,2.2,33.81,33.81,0,0,0,6.72.91,2.61,2.61,0,0,0,.32-1.25A2.68,2.68,0,0,0,271.4,264.61Z"/><path class="cls-2" d="M209.17,226.08h22.54c.1-.47.19-.93.3-1.4a.83.83,0,0,1,0-.15v-3.79H211.84V177.4h53.61v14.47a45.41,45.41,0,0,1,5.35-.81V174.72a2.68,2.68,0,0,0-2.67-2.67h-59a2.67,2.67,0,0,0-2.67,2.67v48.69A2.66,2.66,0,0,0,209.17,226.08Z"/><path class="cls-2" d="M293.22,258.84h-5.34V264h3.89c.49-.29,1-.58,1.45-.89Z"/><path class="cls-2" d="M240.9,263H209.32a2.67,2.67,0,1,0,0,5.34h36.83A44.87,44.87,0,0,1,240.9,263Z"/><path class="cls-2" d="M209.32,235.57a2.68,2.68,0,0,0,0,5.35h21.89a45.21,45.21,0,0,1-.41-5.35Z"/><path class="cls-2" d="M274.07,253.25a2.68,2.68,0,0,0-2.67-2.68H247.26a2.61,2.61,0,0,0-1.79.71,33.61,33.61,0,0,0,3.12,4.64H271.4A2.68,2.68,0,0,0,274.07,253.25Z"/><path class="cls-2" d="M242,240.22v0a2.67,2.67,0,0,0,2.67,2.67h26.7a2.67,2.67,0,1,0,0-5.34H244.7a2.63,2.63,0,0,0-1.78.7v0a2.67,2.67,0,0,0-1.7-2.48,34,34,0,0,0,.45,4.74Z"/><path class="cls-2" d="M209.32,254.62h26.14a44.08,44.08,0,0,1-2.24-5.35h-23.9a2.68,2.68,0,0,0,0,5.35Z"/><path class="cls-2" d="M283.45,278.1V302h-89.7V159.06h89.7v32.67c.54.11,1.08.22,1.62.35,1.27.3,2.5.67,3.72,1.07V156.7l-.27-3H191.35l-2.94.32V304.34l.27,3h97.17l2.94-.32V276.68A44.18,44.18,0,0,1,283.45,278.1Z"/><path class="cls-3" d="M288,265.86a33.93,33.93,0,0,0,8.5-5.22Z"/><path class="cls-3" d="M334.93,315.9l-30-48.84a43.77,43.77,0,0,1-4.16,3.43L329,316.42l-6.38,3.91-28.23-45.95a44.39,44.39,0,0,1-5,2.09l30.06,48.94a2.71,2.71,0,0,0,1.66,1.2,2.56,2.56,0,0,0,.62.07,2.61,2.61,0,0,0,1.4-.4l10.92-6.71A2.67,2.67,0,0,0,334.93,315.9Z"/><path class="cls-3" d="M274.83,281.63a46.71,46.71,0,1,1,10.86-92.15h0a46.71,46.71,0,0,1-10.86,92.15Zm0-88.09a41.4,41.4,0,1,0,9.61,1.14A41.44,41.44,0,0,0,274.84,193.54Zm.06,77.69a36.77,36.77,0,0,1-8.5-1h0a36.06,36.06,0,1,1,8.5,1ZM267.64,265a31,31,0,1,0-22.92-37.3A30.77,30.77,0,0,0,267.64,265Z"/></svg>