<svg id="Layer_1" data-name="Layer 1" xmlns="http://www.w3.org/2000/svg" viewBox="0 0 500 500"><defs><style>.cls-1{fill:#25669b;}.cls-2{fill:#3686c7;}.cls-3{fill:#f15532;}</style></defs><path class="cls-1" d="M153.39,335.32h4.44l4.92,7.92,4.92-7.92h4.44V354H168V341.82l-5.27,8h-.11l-5.21-7.92V354h-4Z"/><path class="cls-1" d="M176.23,335.32h4.12V354h-4.12Z"/><path class="cls-1" d="M184.49,335.32h3.79l8.77,11.53V335.32h4.07V354h-3.5l-9.07-11.9V354h-4.06Z"/><path class="cls-1" d="M205.24,335.32h4.12V354h-4.12Z"/><path class="cls-1" d="M213.5,335.32h4.44l4.92,7.92,4.92-7.92h4.44V354h-4.09V341.82l-5.27,8h-.11l-5.21-7.92V354h-4Z"/><path class="cls-1" d="M236.34,335.32h4.12V354h-4.12Z"/><path class="cls-1" d="M244,350.91l10.29-12h-10v-3.61h15.28v3.13l-10.3,12h10.3V354H244Z"/><path class="cls-1" d="M269.39,335.19h3.8l8,18.85h-4.3l-1.72-4.2h-7.92l-1.71,4.2h-4.19Zm4.33,11-2.49-6.07-2.48,6.07Z"/><path class="cls-1" d="M285.49,339.12H279.8v-3.8h15.51v3.8h-5.69V354h-4.13Z"/><path class="cls-1" d="M298.1,335.32h4.12V354H298.1Z"/><path class="cls-1" d="M305.53,344.74v-.06a9.95,9.95,0,0,1,19.89-.05v.05a9.68,9.68,0,0,1-10,9.68A9.58,9.58,0,0,1,305.53,344.74Zm15.59,0v-.06a5.69,5.69,0,0,0-5.67-5.88,5.61,5.61,0,0,0-5.62,5.83v.05a5.69,5.69,0,0,0,5.68,5.88A5.6,5.6,0,0,0,321.12,344.74Z"/><path class="cls-1" d="M328.53,335.32h3.8l8.76,11.53V335.32h4.07V354h-3.5l-9.07-11.9V354h-4.06Z"/><path class="cls-2" d="M376.7,305.55H123.3a5.82,5.82,0,0,1-5.81-5.81V151.44a5.81,5.81,0,0,1,5.81-5.8H376.7a5.81,5.81,0,0,1,5.81,5.8v148.3A5.82,5.82,0,0,1,376.7,305.55ZM123.3,151a.46.46,0,0,0-.46.46v148.3a.45.45,0,0,0,.46.46H376.7a.45.45,0,0,0,.46-.46V151.44a.46.46,0,0,0-.46-.46Z"/><path class="cls-1" d="M357.2,170.42H281.78a2.68,2.68,0,0,0-2.67,2.67v9.24h5.35v-6.57h70.07v88.51H347.4v5.34h9.8a2.66,2.66,0,0,0,2.67-2.67V173.09A2.67,2.67,0,0,0,357.2,170.42Z"/><path class="cls-3" d="M322.05,215.08l-5.32-5.32A2.67,2.67,0,0,1,320.5,206l1.55,1.54,7.19-7.19a2.67,2.67,0,0,1,3.78,3.78Z"/><path class="cls-3" d="M322.05,234.61l-5.32-5.32a2.67,2.67,0,1,1,3.77-3.78l1.55,1.55,7.19-7.2a2.67,2.67,0,0,1,3.78,3.78Z"/><path class="cls-3" d="M322.05,256.39l-5.32-5.32a2.67,2.67,0,0,1,3.77-3.78l1.55,1.55,7.19-7.2a2.67,2.67,0,1,1,3.78,3.78Z"/><path class="cls-3" d="M347.4,179.65H272a2.68,2.68,0,0,0-2.68,2.68v35.5l5.35,3.83V185h70.07v88.5H274.66V234.41l-5.35,3.83v37.94a2.68,2.68,0,0,0,2.68,2.67H347.4a2.67,2.67,0,0,0,2.67-2.67V182.33A2.67,2.67,0,0,0,347.4,179.65Z"/><path class="cls-1" d="M257.73,249a3.67,3.67,0,0,1-1.65-.39,4.11,4.11,0,0,1-2.17-3.68l0-16.89,0-16.89a4.12,4.12,0,0,1,2.17-3.69,3.63,3.63,0,0,1,3.77.29l23.54,16.89a4.27,4.27,0,0,1,0,6.79l-23.54,16.89A3.66,3.66,0,0,1,257.73,249Zm1.52-35.1,0,14.14,0,14.14L279,228Z"/><path class="cls-1" d="M160.54,203.47H141.92V184.86h18.62Zm-13.27-5.34h7.92V190.2h-7.92Z"/><path class="cls-1" d="M167.17,237.34H148.56V218.73h18.61ZM153.9,232h7.93v-7.93H153.9Z"/><path class="cls-1" d="M160.54,271.83H141.92V253.22h18.62Zm-13.27-5.34h7.92v-7.93h-7.92Z"/><path class="cls-1" d="M219.38,259.57H200.77V241h18.61Zm-13.26-5.34H214V246.3h-7.92Z"/><path class="cls-1" d="M219.38,216.07H200.77V197.45h18.61Zm-13.26-5.35H214V202.8h-7.92Z"/><polygon class="cls-1" points="256.55 228.05 256.56 225.67 243.37 225.67 232.87 204.91 216.71 204.91 216.71 210.25 229.58 210.25 237.38 225.67 194.59 225.67 177.39 191.49 157.87 191.49 157.87 196.84 174.1 196.84 188.61 225.67 164.5 225.67 164.5 231.01 188.61 231.01 174.1 259.85 157.87 259.85 157.87 265.19 177.39 265.19 194.6 231.01 237.38 231.01 229.58 246.44 216.71 246.44 216.71 251.78 232.87 251.78 243.37 231.01 256.56 231.01 256.55 228.05"/><path class="cls-3" d="M307.22,257.27H290.91V241h16.31Zm-11-5.35h5.63V246.3h-5.63Z"/><path class="cls-3" d="M307.22,235.59H290.91V219.28h16.31Zm-11-5.34h5.63v-5.63h-5.63Z"/><path class="cls-3" d="M307.22,214.92H290.91V198.6h16.31Zm-11-5.35h5.63V204h-5.63Z"/><path class="cls-2" d="M333.91,309.7h5.7v1.5h-4.05v1.59h3.57v1.5h-3.57v2.89h-1.65Z"/><path class="cls-2" d="M340.71,309.7h3.06a2.56,2.56,0,0,1,2.86,2.59v0c0,1.73-1.35,2.63-3,2.63h-1.24v2.24h-1.65Zm3,3.77a1.16,1.16,0,0,0,1.3-1.13v0c0-.74-.51-1.13-1.34-1.13h-1.26v2.28Z"/><path class="cls-2" d="M347.3,313.46v0a3.81,3.81,0,0,1,3.9-3.87,3.85,3.85,0,0,1,2.95,1.16l-1,1.2a2.75,2.75,0,0,0-1.91-.84,2.22,2.22,0,0,0-2.17,2.33v0a2.22,2.22,0,0,0,2.17,2.35,2.69,2.69,0,0,0,2-.88l1,1.06a3.83,3.83,0,0,1-3.07,1.34A3.78,3.78,0,0,1,347.3,313.46Z"/><path class="cls-2" d="M355.07,315.47h1.73v1.71h-1.73Z"/><path class="cls-2" d="M357.39,313.46v0a3.85,3.85,0,0,1,3.92-3.87,4.12,4.12,0,0,1,2.94,1l-1,1.25a2.73,2.73,0,0,0-1.95-.76,2.25,2.25,0,0,0-2.15,2.33v0a2.24,2.24,0,0,0,2.26,2.37,2.6,2.6,0,0,0,1.55-.45V314.3h-1.65v-1.43h3.25v3.25a4.88,4.88,0,0,1-3.2,1.19A3.75,3.75,0,0,1,357.39,313.46Z"/><path class="cls-2" d="M365.55,313.46v0a3.88,3.88,0,0,1,4-3.87,3.83,3.83,0,0,1,4,3.85v0a4,4,0,0,1-7.95,0Zm6.23,0v0a2.27,2.27,0,0,0-2.26-2.35,2.23,2.23,0,0,0-2.24,2.33v0a2.27,2.27,0,0,0,2.26,2.35A2.23,2.23,0,0,0,371.78,313.46Z"/><path class="cls-2" d="M373.63,309.7h1.82L377.4,315l2-5.27h1.77l-3,7.53h-1.45Z"/></svg>