<svg id="Layer_1" data-name="Layer 1" xmlns="http://www.w3.org/2000/svg" xmlns:xlink="http://www.w3.org/1999/xlink" viewBox="0 0 500 500"><defs><style>.cls-1{fill:none;}.cls-2{fill:#3686c7;}.cls-3{fill:#f15532;}.cls-4{fill:#25669b;}.cls-5{clip-path:url(#clip-path);}.cls-6{fill:#020202;}.cls-7{fill:#fff;}.cls-8{fill:#231f20;}</style><clipPath id="clip-path"><path class="cls-1" d="M250,180.79a38.75,38.75,0,0,1,32.63,17.85,38.81,38.81,0,1,0-65.26,0A38.75,38.75,0,0,1,250,180.79Z"/></clipPath></defs><path class="cls-2" d="M377.23,159.74H288.55a43,43,0,0,1,2,5.35h86.65a.46.46,0,0,1,.46.46v148.3a.47.47,0,0,1-.46.46H122.77a.47.47,0,0,1-.46-.46V165.55a.46.46,0,0,1,.46-.46h86.66a41.44,41.44,0,0,1,2-5.35H122.77a5.81,5.81,0,0,0-5.8,5.81v148.3a5.8,5.8,0,0,0,5.8,5.8H377.23a5.8,5.8,0,0,0,5.8-5.8V165.55A5.81,5.81,0,0,0,377.23,159.74Z"/><path class="cls-3" d="M250,132.32a45.05,45.05,0,0,0-25.23,82.38H236.4a39.72,39.72,0,1,1,27.2,0h11.63A45.05,45.05,0,0,0,250,132.32Z"/><path class="cls-4" d="M144.75,352.44h-5.7v-3.79h15.52v3.79h-5.7v14.92h-4.12Z"/><path class="cls-4" d="M157.17,348.65h8.56a7.44,7.44,0,0,1,5.45,1.89,5.87,5.87,0,0,1,1.61,4.28v.05a5.81,5.81,0,0,1-4,5.81l4.58,6.68h-4.82l-4-6h-3.23v6h-4.12Zm8.29,9.09c2,0,3.15-1.07,3.15-2.65v0c0-1.77-1.22-2.68-3.23-2.68h-4.09v5.38Z"/><path class="cls-4" d="M182.37,348.51h3.79l8,18.85h-4.3l-1.71-4.19h-7.92l-1.71,4.19h-4.2Zm4.33,11-2.49-6.07-2.49,6.07Z"/><path class="cls-4" d="M196.52,348.65h3.79l8.78,11.52V348.65h4.06v18.71h-3.5l-9.07-11.9v11.9h-4.06Z"/><path class="cls-4" d="M215.81,364.64l2.43-2.92a8.59,8.59,0,0,0,5.59,2.28c1.68,0,2.7-.68,2.7-1.77v-.06c0-1-.64-1.57-3.77-2.37-3.77-1-6.21-2-6.21-5.73V354c0-3.4,2.73-5.64,6.56-5.64a10.81,10.81,0,0,1,6.95,2.38l-2.14,3.1a8.78,8.78,0,0,0-4.87-1.84c-1.57,0-2.4.72-2.4,1.63v.05c0,1.23.8,1.63,4,2.46,3.8,1,5.94,2.35,5.94,5.62v.05c0,3.71-2.83,5.8-6.87,5.8A11.91,11.91,0,0,1,215.81,364.64Z"/><path class="cls-4" d="M233.65,348.65h7.65c4.47,0,7.17,2.64,7.17,6.46v.06c0,4.33-3.37,6.58-7.57,6.58h-3.13v5.61h-4.12Zm7.38,9.43c2.06,0,3.26-1.23,3.26-2.83v-.05c0-1.85-1.28-2.84-3.34-2.84h-3.18v5.72Z"/><path class="cls-4" d="M255.51,348.51h3.8l8,18.85H263l-1.71-4.19H253.4l-1.71,4.19h-4.2Zm4.33,11-2.49-6.07-2.48,6.07Z"/><path class="cls-4" d="M269.66,348.65h8.56a7.43,7.43,0,0,1,5.45,1.89,5.87,5.87,0,0,1,1.61,4.28v.05a5.81,5.81,0,0,1-4,5.81l4.57,6.68H281l-4-6h-3.24v6h-4.12Zm8.29,9.09c2,0,3.16-1.07,3.16-2.65v0c0-1.77-1.23-2.68-3.24-2.68h-4.09v5.38Z"/><path class="cls-4" d="M288.44,348.65h14.12v3.66h-10v3.8h8.83v3.66h-8.83v3.93H302.7v3.66H288.44Z"/><path class="cls-4" d="M305.81,348.65h3.79l8.77,11.52V348.65h4.07v18.71h-3.5l-9.07-11.9v11.9h-4.06Z"/><path class="cls-4" d="M325.55,358.06V358a9.52,9.52,0,0,1,9.76-9.69,9.66,9.66,0,0,1,7.38,2.89l-2.62,3a6.93,6.93,0,0,0-4.79-2.11,5.55,5.55,0,0,0-5.43,5.83V358c0,3.2,2.22,5.88,5.43,5.88a6.75,6.75,0,0,0,4.92-2.2l2.62,2.65a9.55,9.55,0,0,1-7.67,3.34A9.45,9.45,0,0,1,325.55,358.06Z"/><path class="cls-4" d="M350.56,360l-7.2-11.33h4.82l4.46,7.51,4.55-7.51h4.68l-7.19,11.25v7.46h-4.12Z"/><rect class="cls-1" x="119.64" y="162.41" width="260.72" height="154.57" rx="0.59"/><g class="cls-5"><path class="cls-6" d="M252.63,197.44h-5.26a1.07,1.07,0,0,0-.85.43,1.08,1.08,0,0,0-.17.94l2.63,9a1.06,1.06,0,0,0,2,0l2.63-9a1.08,1.08,0,0,0-.17-.94A1.07,1.07,0,0,0,252.63,197.44Z"/><path class="cls-3" d="M250,165.74a11.94,11.94,0,1,1-11.93,11.94A11.95,11.95,0,0,1,250,165.74m0-5.34a17.28,17.28,0,1,0,17.27,17.28A17.29,17.29,0,0,0,250,160.4Z"/><polygon class="cls-7" points="249.51 155.24 250 153.58 250.49 155.24 249.51 155.24"/><path class="cls-3" d="M250,146.78a1.06,1.06,0,0,0-1,.77l-2.63,9a1.07,1.07,0,0,0,1,1.36h5.26a1.07,1.07,0,0,0,1-1.36l-2.63-9a1.05,1.05,0,0,0-1-.77Z"/><polygon class="cls-7" points="237.95 156.81 239.2 158 238.36 158.49 237.95 156.81"/><path class="cls-3" d="M235.08,150.77a1,1,0,0,0-.53.15,1.06,1.06,0,0,0-.5,1.17l2.23,9.11a1,1,0,0,0,.61.73,1,1,0,0,0,.42.08,1,1,0,0,0,.53-.14l4.55-2.62a1.09,1.09,0,0,0,.53-.8,1.08,1.08,0,0,0-.32-.9l-6.78-6.48a1.09,1.09,0,0,0-.74-.3Z"/><polygon class="cls-7" points="260.8 197.35 261.64 196.86 262.05 198.55 260.8 197.35"/><path class="cls-8" d="M262.69,193.34a1,1,0,0,0-.53.14l-4.55,2.63a1.05,1.05,0,0,0-.53.79,1.08,1.08,0,0,0,.32.9l6.78,6.48a1,1,0,0,0,1.27.15,1.06,1.06,0,0,0,.5-1.17l-2.23-9.11a1,1,0,0,0-.61-.73,1,1,0,0,0-.42-.08Z"/><polygon class="cls-7" points="229.1 165.6 230.82 166.03 230.33 166.88 229.1 165.6"/><path class="cls-3" d="M224.16,161.69a1.07,1.07,0,0,0-.92.54,1.09,1.09,0,0,0,.15,1.27l6.49,6.77a1.07,1.07,0,0,0,.77.33h.12a1.06,1.06,0,0,0,.8-.52l2.63-4.55a1,1,0,0,0,.05-1,1.06,1.06,0,0,0-.72-.62l-9.11-2.23a1.15,1.15,0,0,0-.26,0Z"/><polygon class="cls-7" points="269.19 189.31 269.67 188.47 270.87 189.73 269.19 189.31"/><path class="cls-8" d="M269.36,184.75h-.13a1.06,1.06,0,0,0-.8.52l-2.63,4.55a1,1,0,0,0-.05.95,1.06,1.06,0,0,0,.72.62l9.11,2.23a1.15,1.15,0,0,0,.26,0,1.07,1.07,0,0,0,.92-.54,1.09,1.09,0,0,0-.15-1.27l-6.49-6.77a1.06,1.06,0,0,0-.76-.33Z"/><polygon class="cls-7" points="225.9 177.68 227.56 177.19 227.56 178.16 225.9 177.68"/><path class="cls-3" d="M229.17,174a1,1,0,0,0-.3.05l-9,2.62a1.08,1.08,0,0,0-.77,1,1.07,1.07,0,0,0,.77,1l9,2.63a1.54,1.54,0,0,0,.3,0,1,1,0,0,0,.64-.22,1,1,0,0,0,.42-.85v-5.25a1,1,0,0,0-.42-.85,1.08,1.08,0,0,0-.64-.22Z"/><polygon class="cls-7" points="272.44 177.13 274.17 177.66 272.44 178.16 272.44 177.13"/><path class="cls-3" d="M270.83,174a1.08,1.08,0,0,0-.64.22,1,1,0,0,0-.42.85v5.25a1,1,0,0,0,.42.85,1,1,0,0,0,.64.22,1.54,1.54,0,0,0,.3,0l9-2.63a1.06,1.06,0,0,0,.77-1,1.07,1.07,0,0,0-.77-1l-9-2.62a1,1,0,0,0-.3-.05Z"/><polygon class="cls-7" points="230.33 188.47 230.81 189.31 229.13 189.73 230.33 188.47"/><path class="cls-8" d="M230.64,184.75a1,1,0,0,0-.76.33l-6.49,6.77a1.09,1.09,0,0,0-.15,1.27,1.07,1.07,0,0,0,.92.54,1.15,1.15,0,0,0,.26,0l9.11-2.23a1.06,1.06,0,0,0,.72-.62,1,1,0,0,0-.05-.95l-2.63-4.55a1.06,1.06,0,0,0-.8-.52Z"/><polygon class="cls-7" points="269.19 166.04 270.87 165.63 269.67 166.88 269.19 166.04"/><path class="cls-3" d="M275.84,161.69l-.26,0L266.47,164a1.06,1.06,0,0,0-.72.62,1,1,0,0,0,.05,1l2.63,4.55a1.06,1.06,0,0,0,.8.52h.12a1.07,1.07,0,0,0,.77-.33l6.49-6.77a1.09,1.09,0,0,0,.15-1.27,1.06,1.06,0,0,0-.92-.54Z"/><polygon class="cls-7" points="238.36 196.86 239.2 197.35 237.95 198.55 238.36 196.86"/><path class="cls-8" d="M237.31,193.34a1,1,0,0,0-.42.08,1,1,0,0,0-.61.73l-2.23,9.11a1.08,1.08,0,0,0,1,1.32,1,1,0,0,0,.73-.3l6.78-6.48a1.08,1.08,0,0,0,.32-.9,1.05,1.05,0,0,0-.53-.79l-4.55-2.63a1,1,0,0,0-.53-.14Z"/><polygon class="cls-7" points="260.8 158 262.05 156.81 261.64 158.49 260.8 158"/><path class="cls-3" d="M264.92,150.78a1.1,1.1,0,0,0-.74.29l-6.78,6.48a1.08,1.08,0,0,0-.32.9,1.09,1.09,0,0,0,.53.8l4.55,2.62a1,1,0,0,0,.53.14,1,1,0,0,0,.42-.08,1,1,0,0,0,.61-.73l2.23-9.11a1.06,1.06,0,0,0-.5-1.17,1,1,0,0,0-.53-.14Z"/></g><path class="cls-3" d="M227,191.76l-3.41-4.11a41.37,41.37,0,0,1,52.74-.07L273,191.7a36,36,0,0,0-45.93.06Z"/><rect class="cls-4" x="208.87" y="253.59" width="84.12" height="5.34"/><rect class="cls-4" x="208.87" y="297.52" width="84.12" height="5.34"/><path class="cls-4" d="M230.22,302.86H220.1a2.66,2.66,0,0,1-2.67-2.67V256.26a2.66,2.66,0,0,1,2.67-2.67h10.12a2.66,2.66,0,0,1,2.67,2.67v43.93A2.66,2.66,0,0,1,230.22,302.86Zm-7.45-5.34h4.78V258.93h-4.78Z"/><path class="cls-4" d="M256,302.86H245.87a2.67,2.67,0,0,1-2.67-2.67V256.26a2.67,2.67,0,0,1,2.67-2.67H256a2.67,2.67,0,0,1,2.67,2.67v43.93A2.67,2.67,0,0,1,256,302.86Zm-7.46-5.34h4.79V258.93h-4.79Z"/><rect class="cls-4" x="230.22" y="289.22" width="0.67" height="5.34"/><path class="cls-4" d="M305.84,229.68V218.82h10.72v-5.34H184.82v5.34H196v10.86H176.81v64.88H220.1v-5.34H201.37v-70.4H300.5v70.4H281.77v5.34h43.29V229.68ZM196,289.22H182.16V235H196Zm123.69,0H305.84V235h13.87Z"/><rect class="cls-4" x="269.68" y="289.22" width="1.97" height="5.34"/><path class="cls-4" d="M281.77,302.86H271.65a2.67,2.67,0,0,1-2.68-2.67V256.26a2.67,2.67,0,0,1,2.68-2.67h10.12a2.66,2.66,0,0,1,2.67,2.67v43.93A2.66,2.66,0,0,1,281.77,302.86Zm-7.45-5.34h4.78V258.93h-4.78Z"/><path class="cls-4" d="M222.63,236.38a2.66,2.66,0,0,1-2.67-2.67v-3.78a2.67,2.67,0,1,1,5.34,0v3.78A2.67,2.67,0,0,1,222.63,236.38Z"/><path class="cls-4" d="M241.5,236.38a2.66,2.66,0,0,1-2.67-2.67v-3.78a2.67,2.67,0,1,1,5.34,0v3.78A2.66,2.66,0,0,1,241.5,236.38Z"/><path class="cls-4" d="M260.37,236.38a2.66,2.66,0,0,1-2.67-2.67v-3.78a2.67,2.67,0,0,1,5.34,0v3.78A2.66,2.66,0,0,1,260.37,236.38Z"/><path class="cls-4" d="M279.24,236.38a2.66,2.66,0,0,1-2.67-2.67v-3.78a2.67,2.67,0,0,1,5.34,0v3.78A2.66,2.66,0,0,1,279.24,236.38Z"/><rect class="cls-4" x="241.31" y="191.02" width="9.74" height="6.51"/><rect class="cls-4" x="241.31" y="199.19" width="22.43" height="1.87"/><rect class="cls-4" x="241.31" y="203.08" width="22.43" height="1.87"/><rect class="cls-4" x="252.52" y="191.41" width="11.22" height="1.87"/><rect class="cls-4" x="252.52" y="195.3" width="11.22" height="1.87"/><rect class="cls-4" x="239.97" y="189.71" width="2.67" height="27.2"/><path class="cls-2" d="M332.07,325h5.69v1.49h-4.05v1.6h3.57v1.49h-3.57v2.9h-1.64Z"/><path class="cls-2" d="M338.86,325h3.06a2.56,2.56,0,0,1,2.86,2.58v0c0,1.72-1.34,2.62-3,2.62h-1.25v2.25h-1.65Zm2.95,3.77a1.16,1.16,0,0,0,1.3-1.13v0c0-.74-.51-1.14-1.33-1.14h-1.27v2.29Z"/><path class="cls-2" d="M345.46,328.77v0a3.8,3.8,0,0,1,3.89-3.87A3.85,3.85,0,0,1,352.3,326l-1,1.21a2.79,2.79,0,0,0-1.92-.84,2.21,2.21,0,0,0-2.16,2.33v0a2.22,2.22,0,0,0,2.16,2.35,2.69,2.69,0,0,0,2-.88l1.05,1.06a3.84,3.84,0,0,1-3.07,1.33A3.76,3.76,0,0,1,345.46,328.77Z"/><path class="cls-2" d="M353.23,330.78H355v1.71h-1.73Z"/><path class="cls-2" d="M355.55,328.77v0a3.83,3.83,0,0,1,3.91-3.87,4.07,4.07,0,0,1,2.94,1l-1,1.25a2.77,2.77,0,0,0-2-.76,2.25,2.25,0,0,0-2.15,2.33v0a2.24,2.24,0,0,0,2.27,2.37,2.63,2.63,0,0,0,1.55-.45V329.6h-1.66v-1.42h3.25v3.25a4.87,4.87,0,0,1-3.2,1.18A3.73,3.73,0,0,1,355.55,328.77Z"/><path class="cls-2" d="M363.71,328.77v0a3.87,3.87,0,0,1,4-3.87,3.83,3.83,0,0,1,4,3.85v0a4,4,0,0,1-7.94,0Zm6.23,0v0a2.28,2.28,0,0,0-2.27-2.35,2.24,2.24,0,0,0-2.24,2.33v0a2.27,2.27,0,0,0,2.26,2.35A2.24,2.24,0,0,0,369.94,328.77Z"/><path class="cls-2" d="M371.79,325h1.81l2,5.27,1.95-5.27h1.77l-3,7.53h-1.45Z"/><path class="cls-4" d="M281.91,258.93H220V244h62Zm-56.61-5.34h51.27v-4.22H225.3Z"/></svg>