<svg id="Layer_1" data-name="Layer 1" xmlns="http://www.w3.org/2000/svg" viewBox="0 0 500 500"><defs><style>.cls-1{fill:#25669b;}.cls-2{fill:#3686c7;}.cls-3{fill:#f15532;}</style></defs><path class="cls-1" d="M170.47,333.27h3.79l8,18.85H178l-1.71-4.2h-7.92l-1.71,4.2h-4.2Zm4.33,11-2.49-6.07-2.49,6.07Z"/><path class="cls-1" d="M182.59,342.82v-.06a9.51,9.51,0,0,1,9.76-9.68,9.66,9.66,0,0,1,7.38,2.89l-2.62,3a6.93,6.93,0,0,0-4.79-2.11,5.55,5.55,0,0,0-5.43,5.83v.05c0,3.21,2.22,5.89,5.43,5.89a6.75,6.75,0,0,0,4.92-2.2l2.62,2.65a9.55,9.55,0,0,1-7.67,3.34A9.45,9.45,0,0,1,182.59,342.82Z"/><path class="cls-1" d="M201.23,342.82v-.06a9.51,9.51,0,0,1,9.76-9.68,9.66,9.66,0,0,1,7.38,2.89l-2.62,3a6.89,6.89,0,0,0-4.78-2.11,5.54,5.54,0,0,0-5.43,5.83v.05c0,3.21,2.22,5.89,5.43,5.89a6.77,6.77,0,0,0,4.92-2.2l2.62,2.65a9.58,9.58,0,0,1-7.68,3.34A9.45,9.45,0,0,1,201.23,342.82Z"/><path class="cls-1" d="M221.24,333.4h14.12v3.67h-10v3.8h8.83v3.66h-8.83v3.93H235.5v3.66H221.24Z"/><path class="cls-1" d="M237.33,349.4l2.43-2.92a8.58,8.58,0,0,0,5.59,2.27c1.68,0,2.7-.67,2.7-1.76v-.06c0-1-.64-1.57-3.77-2.38-3.77-1-6.21-2-6.21-5.72v-.05c0-3.4,2.73-5.64,6.55-5.64a10.82,10.82,0,0,1,7,2.38l-2.14,3.1a8.8,8.8,0,0,0-4.87-1.85c-1.58,0-2.41.72-2.41,1.64v0c0,1.23.81,1.63,4,2.46,3.8,1,5.94,2.35,5.94,5.61v.06c0,3.71-2.84,5.8-6.87,5.8A11.91,11.91,0,0,1,237.33,349.4Z"/><path class="cls-1" d="M253.62,349.4l2.43-2.92a8.6,8.6,0,0,0,5.59,2.27c1.69,0,2.7-.67,2.7-1.76v-.06c0-1-.64-1.57-3.77-2.38-3.77-1-6.2-2-6.2-5.72v-.05c0-3.4,2.73-5.64,6.55-5.64a10.79,10.79,0,0,1,6.95,2.38l-2.14,3.1a8.74,8.74,0,0,0-4.86-1.85c-1.58,0-2.41.72-2.41,1.64v0c0,1.23.8,1.63,4,2.46,3.8,1,5.94,2.35,5.94,5.61v.06c0,3.71-2.84,5.8-6.88,5.8A11.94,11.94,0,0,1,253.62,349.4Z"/><path class="cls-1" d="M285.36,333.27h3.8l8,18.85h-4.3l-1.71-4.2h-7.92l-1.71,4.2h-4.2Zm4.34,11-2.49-6.07-2.49,6.07Z"/><path class="cls-1" d="M299.52,333.4h3.8l8.77,11.53V333.4h4.06v18.72h-3.5l-9.07-11.9v11.9h-4.06Z"/><path class="cls-1" d="M320.08,333.4h7.3c5.89,0,9.95,4,9.95,9.31v.05c0,5.27-4.06,9.36-9.95,9.36h-7.3Zm4.12,3.72V348.4h3.18a5.34,5.34,0,0,0,5.65-5.58v-.06a5.38,5.38,0,0,0-5.65-5.64Z"/><path class="cls-1" d="M169.22,360H173l8,18.85h-4.3l-1.71-4.2h-7.92l-1.71,4.2h-4.2Zm4.34,11-2.49-6.07L168.58,371Z"/><path class="cls-1" d="M183.38,360.12h4.44l4.92,7.91,4.92-7.91h4.44v18.72H198V366.62l-5.26,8h-.11l-5.21-7.91v12.14h-4Z"/><path class="cls-1" d="M206,360.12h14.12v3.66h-10v3.8H219v3.66h-8.83v3.93h10.16v3.67H206Z"/><path class="cls-1" d="M223.39,360.12h3.8L236,371.64V360.12H240v18.72h-3.51l-9.06-11.9v11.9h-4.07Z"/><path class="cls-1" d="M244,360.12h7.3c5.89,0,9.95,4,9.95,9.3v.06c0,5.27-4.06,9.36-9.95,9.36H244Zm4.12,3.72v11.28h3.18a5.34,5.34,0,0,0,5.65-5.59v0a5.38,5.38,0,0,0-5.65-5.64Z"/><path class="cls-1" d="M264.32,360.12h4.44l4.92,7.91,4.92-7.91H283v18.72H279V366.62l-5.27,8h-.11l-5.21-7.91v12.14h-4Z"/><path class="cls-1" d="M287,360.12h14.12v3.66h-10v3.8h8.83v3.66h-8.83v3.93h10.17v3.67H287Z"/><path class="cls-1" d="M304.34,360.12h3.8l8.77,11.52V360.12H321v18.72h-3.5l-9.07-11.9v11.9h-4.06Z"/><path class="cls-1" d="M329.27,363.92h-5.7v-3.8h15.51v3.8h-5.7v14.92h-4.11Z"/><path class="cls-2" d="M280.44,301H231a2.68,2.68,0,0,1,0-5.35h49.42a2.68,2.68,0,0,1,0,5.35Z"/><path class="cls-2" d="M303.18,292.12l-20.13-17.43h-8.16l24.79,21.47a6.8,6.8,0,0,1-4.45,11.95h-79a6.8,6.8,0,0,1-4.46-11.95l24.79-21.47h-8.16l-20.13,17.43a12.15,12.15,0,0,0,8,21.34h79a12.15,12.15,0,0,0,7.95-21.34Z"/><path class="cls-3" d="M244.69,191.91H205.64a2.67,2.67,0,0,1,0-5.34h39.05a2.67,2.67,0,0,1,0,5.34Z"/><path class="cls-3" d="M244.69,205.39H205.64a2.67,2.67,0,0,1,0-5.34h39.05a2.67,2.67,0,1,1,0,5.34Z"/><path class="cls-3" d="M244.69,218.88H205.64a2.67,2.67,0,0,1,0-5.34h39.05a2.67,2.67,0,0,1,0,5.34Z"/><path class="cls-2" d="M193.17,201.8a.58.58,0,0,1,0,.89l-8.54,6.13c-.28.2-.62,0-.62-.45l0-6.13,0-6.12c0-.4.34-.65.62-.45Z"/><path class="cls-2" d="M184.42,210.22a1.77,1.77,0,0,1-.77-.18,1.86,1.86,0,0,1-1-1.67V196.11a1.85,1.85,0,0,1,1-1.66,1.69,1.69,0,0,1,1.76.13l8.54,6.13a1.93,1.93,0,0,1,0,3.06l-8.55,6.13A1.65,1.65,0,0,1,184.42,210.22Zm.92-12.4v8.85l6.16-4.42Z"/><rect class="cls-1" x="276.49" y="202.46" width="52.58" height="4.01"/><rect class="cls-1" x="280.3" y="229.22" width="45.8" height="4.01"/><path class="cls-1" d="M289.83,233.23H283.5a2,2,0,0,1-2-2V204.47a2,2,0,0,1,2-2h6.33a2,2,0,0,1,2,2v26.76A2,2,0,0,1,289.83,233.23Zm-4.33-4h2.33V206.47H285.5Z"/><path class="cls-1" d="M305.94,233.23h-6.33a2,2,0,0,1-2-2V204.47a2,2,0,0,1,2-2h6.33a2,2,0,0,1,2,2v26.76A2,2,0,0,1,305.94,233.23Zm-4.33-4h2.33V206.47h-2.33Z"/><rect class="cls-1" x="289.83" y="224.17" width="0.42" height="4.01"/><path class="cls-1" d="M343.69,224.17V187.9h-6.26V182h6.36v-4H261.45v4h6.67v5.86h-7v36.27H257v4H283.5v-4H272.13V182h61.29v42.13H322.05v4h25.36v-4Zm-75.57,0h-3V191.91h3Zm71.57,0h-2.26V191.91h2.26Z"/><rect class="cls-1" x="314.49" y="224.17" width="1.23" height="4.01"/><path class="cls-1" d="M322.05,233.23h-6.33a2,2,0,0,1-2-2V204.47a2,2,0,0,1,2-2h6.33a2,2,0,0,1,2,2v26.76A2,2,0,0,1,322.05,233.23Zm-4.33-4H320V206.47h-2.32Z"/><path class="cls-1" d="M322.47,206.47H283.08v-9.83h39.39Zm-35.38-4h31.37v-1.81H287.09Z"/><path class="cls-1" d="M285.08,191.68a2,2,0,0,1-2-2v-2.37a2,2,0,0,1,4,0v2.37A2,2,0,0,1,285.08,191.68Z"/><path class="cls-1" d="M296.88,191.68a2,2,0,0,1-2-2v-2.37a2,2,0,0,1,4,0v2.37A2,2,0,0,1,296.88,191.68Z"/><path class="cls-1" d="M308.67,191.68a2,2,0,0,1-2-2v-2.37a2,2,0,0,1,4,0v2.37A2,2,0,0,1,308.67,191.68Z"/><path class="cls-1" d="M320.47,191.68a2,2,0,0,1-2-2v-2.37a2,2,0,0,1,4,0v2.37A2,2,0,0,1,320.47,191.68Z"/><rect class="cls-1" x="300.02" y="166.03" width="5.45" height="3.65"/><rect class="cls-1" x="300.02" y="170.19" width="12.56" height="1.87"/><rect class="cls-1" x="300.02" y="172.37" width="12.56" height="1.87"/><rect class="cls-1" x="306.29" y="165.84" width="6.28" height="1.87"/><rect class="cls-1" x="306.29" y="168.02" width="6.28" height="1.87"/><rect class="cls-1" x="298.68" y="165.3" width="2.67" height="15.23"/><path class="cls-2" d="M167.15,213.54a2.68,2.68,0,0,1-2.67-2.68V199.57H184a2.67,2.67,0,1,1,0,5.34H169.82v6A2.67,2.67,0,0,1,167.15,213.54Z"/><path class="cls-2" d="M378.19,121.16H133.27a10.58,10.58,0,0,0-10.57,10.57v105.1a39.64,39.64,0,0,1,5.34-5.42V131.73a5.23,5.23,0,0,1,5.23-5.22H378.19a5.23,5.23,0,0,1,5.23,5.22V266.8a5.23,5.23,0,0,1-5.23,5.22h-187a37.56,37.56,0,0,1-1.89,5.34H378.19a10.58,10.58,0,0,0,10.57-10.56V131.73A10.58,10.58,0,0,0,378.19,121.16Z"/><path class="cls-2" d="M373.28,262.39V136.13H138.18v89.14a40.29,40.29,0,0,1,5.34-1.78v-82H367.93V257.05H192.29a40.28,40.28,0,0,1,.27,4.55c0,.27,0,.53,0,.79Z"/><path class="cls-3" d="M153.23,303.6a42,42,0,1,1,42-42A42,42,0,0,1,153.23,303.6Zm0-78.65a36.66,36.66,0,1,0,36.66,36.65A36.69,36.69,0,0,0,153.23,225Z"/><path class="cls-3" d="M178.25,294.46h-5.34V283c0-5.2-4.61-9.43-10.27-9.43H143.83c-5.67,0-10.27,4.23-10.27,9.43v11.42h-5.35V283c0-8.15,7-14.77,15.62-14.77h18.81c8.61,0,15.61,6.62,15.61,14.77Z"/><path class="cls-3" d="M153.23,266.24a15.67,15.67,0,1,1,15.67-15.67A15.69,15.69,0,0,1,153.23,266.24Zm0-26a10.33,10.33,0,1,0,10.33,10.32A10.33,10.33,0,0,0,153.23,240.25Z"/><path class="cls-2" d="M337.4,282.49h5.69V284h-4v1.59h3.56v1.5h-3.56V290H337.4Z"/><path class="cls-2" d="M344.2,282.49h3.05a2.56,2.56,0,0,1,2.87,2.58v0c0,1.73-1.35,2.63-3,2.63h-1.25V290H344.2Zm2.95,3.77a1.16,1.16,0,0,0,1.3-1.13v0c0-.73-.51-1.13-1.34-1.13h-1.27v2.29Z"/><path class="cls-2" d="M350.79,286.25v0a3.8,3.8,0,0,1,3.9-3.87,3.88,3.88,0,0,1,2.95,1.15l-1.05,1.21a2.77,2.77,0,0,0-1.91-.84,2.21,2.21,0,0,0-2.17,2.33v0a2.22,2.22,0,0,0,2.17,2.35,2.7,2.7,0,0,0,2-.88l1.05,1.06a3.82,3.82,0,0,1-3.06,1.33A3.77,3.77,0,0,1,350.79,286.25Z"/><path class="cls-2" d="M358.56,288.26h1.73V290h-1.73Z"/><path class="cls-2" d="M360.88,286.25v0a3.83,3.83,0,0,1,3.92-3.87,4.09,4.09,0,0,1,2.94,1l-1,1.24a2.75,2.75,0,0,0-1.95-.75,2.24,2.24,0,0,0-2.15,2.33v0a2.24,2.24,0,0,0,2.26,2.37,2.6,2.6,0,0,0,1.55-.45v-1.07h-1.65v-1.42H368v3.25a4.84,4.84,0,0,1-3.19,1.18A3.74,3.74,0,0,1,360.88,286.25Z"/><path class="cls-2" d="M369,286.25v0a4,4,0,0,1,7.95,0v0a4,4,0,0,1-7.95,0Zm6.23,0v0a2.27,2.27,0,0,0-2.27-2.35,2.23,2.23,0,0,0-2.24,2.33v0a2.27,2.27,0,0,0,2.27,2.35A2.24,2.24,0,0,0,375.27,286.25Z"/><path class="cls-2" d="M377.12,282.49h1.81l2,5.26,2-5.26h1.77l-3,7.53h-1.46Z"/></svg>