<svg id="Layer_1" data-name="Layer 1" xmlns="http://www.w3.org/2000/svg" viewBox="0 0 500 500"><defs><style>.cls-1{fill:#25669b;}.cls-2{fill:#3686c7;}.cls-3{fill:#f15532;}</style></defs><path class="cls-1" d="M299,233.17l5.09-2.67H266.26a2.67,2.67,0,1,0,0,5.34h29.68Z"/><path class="cls-1" d="M169.34,343.92l-2.06-1.85a10.19,10.19,0,0,1-5.56,1.61,9.59,9.59,0,0,1-9.92-9.63V334a9.95,9.95,0,0,1,19.89-.06V334a9.53,9.53,0,0,1-1.66,5.37L172,341Zm-5.11-4.55-3-2.59,2.61-2.94,3.08,2.78a6.58,6.58,0,0,0,.51-2.57V334a5.69,5.69,0,0,0-5.67-5.89,5.6,5.6,0,0,0-5.62,5.83V334a5.69,5.69,0,0,0,5.67,5.88A5.58,5.58,0,0,0,164.23,339.37Z"/><path class="cls-1" d="M174.51,335.33V324.64h4.11v10.59c0,3,1.53,4.62,4,4.62s4-1.52,4-4.49V324.64h4.12V335.2c0,5.67-3.19,8.45-8.21,8.45S174.51,340.84,174.51,335.33Z"/><path class="cls-1" d="M200.21,324.5H204l8,18.86h-4.3l-1.71-4.2H198.1l-1.71,4.2h-4.2Zm4.33,11-2.49-6.07-2.48,6.07Z"/><path class="cls-1" d="M214.36,324.64h4.12v15h9.33v3.75H214.36Z"/><path class="cls-1" d="M230.55,324.64h4.12v18.72h-4.12Z"/><path class="cls-1" d="M243.16,328.44h-5.69v-3.8H253v3.8h-5.7v14.92h-4.12Z"/><path class="cls-1" d="M260.85,336l-7.19-11.34h4.81l4.47,7.51,4.54-7.51h4.68L265,335.89v7.47h-4.12Z"/><path class="cls-1" d="M288.07,324.5h3.8l8,18.86h-4.3l-1.71-4.2H286l-1.71,4.2h-4.2Zm4.33,11-2.48-6.07-2.49,6.07Z"/><path class="cls-1" d="M302.22,324.64H306l8.77,11.52V324.64h4.07v18.72h-3.5l-9.07-11.9v11.9h-4.07Z"/><path class="cls-1" d="M322.8,324.64h7.3c5.88,0,9.94,4,9.94,9.3V334c0,5.26-4.06,9.36-9.94,9.36h-7.3Zm4.11,3.71v11.29h3.19a5.33,5.33,0,0,0,5.64-5.59V334a5.38,5.38,0,0,0-5.64-5.65Z"/><path class="cls-1" d="M175,351.35h4.12v18.72H175Z"/><path class="cls-1" d="M183.26,351.35h3.79l8.77,11.53V351.35h4.06v18.72h-3.5l-9.06-11.9v11.9h-4.06Z"/><path class="cls-1" d="M208.19,355.15h-5.7v-3.8H218v3.8H212.3v14.92h-4.11Z"/><path class="cls-1" d="M220.6,351.35h14.12V355h-10v3.8h8.83v3.67h-8.83v3.93h10.16v3.66H220.6Z"/><path class="cls-1" d="M237.13,360.76v-.05A9.61,9.61,0,0,1,247,351a10.26,10.26,0,0,1,7.35,2.57l-2.59,3.13a6.86,6.86,0,0,0-4.89-1.9,5.62,5.62,0,0,0-5.38,5.83v0a5.61,5.61,0,0,0,5.67,5.94,6.58,6.58,0,0,0,3.88-1.13v-2.67h-4.15v-3.56H255v8.13a12.09,12.09,0,0,1-8,3C241.15,370.39,237.13,366.3,237.13,360.76Z"/><path class="cls-1" d="M258.37,351.35h8.56a7.47,7.47,0,0,1,5.46,1.9,5.88,5.88,0,0,1,1.6,4.28v.05a5.81,5.81,0,0,1-4,5.8l4.57,6.69h-4.81l-4-6h-3.24v6h-4.12Zm8.3,9.09c2,0,3.15-1.07,3.15-2.64v-.06c0-1.76-1.23-2.67-3.23-2.67h-4.1v5.37Z"/><path class="cls-1" d="M277.34,351.35h4.12v18.72h-4.12Z"/><path class="cls-1" d="M290,355.15h-5.7v-3.8h15.51v3.8h-5.7v14.92H290Z"/><path class="cls-1" d="M307.64,362.69l-7.19-11.34h4.81l4.47,7.52,4.54-7.52H319l-7.19,11.26v7.46h-4.12Z"/><path class="cls-2" d="M333.74,293.67h5.7v1.5h-4.05v1.59H339v1.5h-3.57v2.89h-1.65Z"/><path class="cls-2" d="M340.54,293.67h3a2.57,2.57,0,0,1,2.87,2.59v0c0,1.73-1.35,2.63-3,2.63h-1.25v2.24h-1.64Zm2.94,3.77a1.16,1.16,0,0,0,1.31-1.13v0c0-.74-.51-1.13-1.34-1.13h-1.27v2.28Z"/><path class="cls-2" d="M347.13,297.43v0a3.8,3.8,0,0,1,3.9-3.86,3.85,3.85,0,0,1,3,1.15l-1.05,1.21a2.74,2.74,0,0,0-1.91-.85,2.22,2.22,0,0,0-2.17,2.33v0a2.22,2.22,0,0,0,2.17,2.35,2.69,2.69,0,0,0,2-.87l1,1.05a3.94,3.94,0,0,1-6.9-2.51Z"/><path class="cls-2" d="M354.9,299.44h1.73v1.71H354.9Z"/><path class="cls-2" d="M357.22,297.43v0a3.84,3.84,0,0,1,3.92-3.86,4.07,4.07,0,0,1,2.93,1l-1,1.25a2.73,2.73,0,0,0-2-.76,2.25,2.25,0,0,0-2.15,2.33v0a2.24,2.24,0,0,0,2.26,2.37,2.6,2.6,0,0,0,1.55-.45v-1.06H361.1v-1.42h3.24v3.24a4.85,4.85,0,0,1-3.19,1.19A3.74,3.74,0,0,1,357.22,297.43Z"/><path class="cls-2" d="M365.38,297.43v0a4,4,0,0,1,7.95,0v0a4,4,0,0,1-7.95,0Zm6.23,0v0a2.27,2.27,0,0,0-2.27-2.35,2.24,2.24,0,0,0-2.24,2.33v0a2.27,2.27,0,0,0,2.26,2.35A2.23,2.23,0,0,0,371.61,297.43Z"/><path class="cls-2" d="M373.46,293.67h1.82l2,5.27,1.95-5.27H381l-3,7.53h-1.46Z"/><path class="cls-1" d="M223.6,250.52h-5.34v-15c0-7.27-6.68-13.19-14.9-13.19H177.85c-8.21,0-14.89,5.92-14.89,13.19v15h-5.34v-15c0-10.22,9.07-18.53,20.23-18.53h25.51c11.16,0,20.24,8.31,20.24,18.53Z"/><path class="cls-1" d="M190.61,214.35a20.31,20.31,0,1,1,20.3-20.3A20.32,20.32,0,0,1,190.61,214.35Zm0-35.26a15,15,0,1,0,15,15A15,15,0,0,0,190.61,179.09Z"/><rect class="cls-1" x="152.13" y="249.14" width="76.95" height="5.34"/><path class="cls-1" d="M327.24,205.11h-61a2.67,2.67,0,1,1,0-5.34h61a2.67,2.67,0,1,1,0,5.34Z"/><path class="cls-1" d="M327.24,220.48h-61a2.68,2.68,0,0,1,0-5.35h61a2.68,2.68,0,0,1,0,5.35Z"/><path class="cls-2" d="M376.7,129.61H123.29a5.81,5.81,0,0,0-5.8,5.8V283.72a5.82,5.82,0,0,0,5.8,5.8H302.72v-5.35H123.29a.45.45,0,0,1-.45-.45V135.41a.46.46,0,0,1,.45-.46H376.7a.46.46,0,0,1,.46.46V283.72a.45.45,0,0,1-.46.45H325.38v5.35H376.7a5.82,5.82,0,0,0,5.81-5.8V135.41A5.81,5.81,0,0,0,376.7,129.61Z"/><path class="cls-3" d="M326.55,273.81h-.45A8.24,8.24,0,0,0,322,274.9h.7v30.37l-6.63-5.37-.68-.4a3.68,3.68,0,0,0-1.35-.26,3.52,3.52,0,0,0-1.32.25l-7.33,5.78V274.9h.7a8.24,8.24,0,0,0-4.1-1.09h-.44a8.31,8.31,0,0,1-1.51-.14V309a3.59,3.59,0,0,0,1.58,3,3.62,3.62,0,0,0,2,.61,3.67,3.67,0,0,0,1.34-.26l9.07-7.19,8.39,6.79.69.4a3.59,3.59,0,0,0,4.93-3.33V273.67A8.4,8.4,0,0,1,326.55,273.81Z"/><path class="cls-3" d="M313.94,281.61a10.76,10.76,0,0,1-7.64-3.17,6,6,0,0,0-4.3-2,11.08,11.08,0,0,1-11.41-11,6,6,0,0,0-1.65-4.42,11.21,11.21,0,0,1-3.53-8.08,10.85,10.85,0,0,1,3.22-7.75,6,6,0,0,0,2-4.3,11.08,11.08,0,0,1,11-11.41A6,6,0,0,0,306,227.9a11.09,11.09,0,0,1,15.83-.32l.32.33a5.66,5.66,0,0,0,4,1.64,11.09,11.09,0,0,1,11.42,11,6,6,0,0,0,1.64,4.43,11.07,11.07,0,0,1,.32,15.82,5.94,5.94,0,0,0-2,4.29,11.09,11.09,0,0,1-11,11.42,6,6,0,0,0-4.43,1.65A11.56,11.56,0,0,1,313.94,281.61ZM318,231.36a5.64,5.64,0,0,0-7.95,0,11.34,11.34,0,0,1-8.08,3.53,5.75,5.75,0,0,0-6.07,5.63,11.22,11.22,0,0,1-3.21,8.2,5.91,5.91,0,0,0-2,4.29,5.59,5.59,0,0,0,1.65,4,11.18,11.18,0,0,1,3.53,8.07,5.76,5.76,0,0,0,5.63,6.08,11.34,11.34,0,0,1,8.2,3.21c2.52,2.51,6.09,2.51,8.27.32a11.32,11.32,0,0,1,8.07-3.53,5.76,5.76,0,0,0,6.08-5.63,11.18,11.18,0,0,1,3.21-8.2,5.75,5.75,0,0,0,.32-8.27,11.21,11.21,0,0,1-3.53-8.08,5.75,5.75,0,0,0-5.63-6.07,11.29,11.29,0,0,1-8.2-3.22"/><path class="cls-3" d="M314.05,272.4A19.39,19.39,0,1,1,333.44,253,19.41,19.41,0,0,1,314.05,272.4Zm0-33.43a14,14,0,1,0,14.05,14A14.06,14.06,0,0,0,314.05,239Z"/><path class="cls-3" d="M245.28,206.91l-4.81-4a2.68,2.68,0,0,1,3.44-4.1l1.37,1.15,6.46-5.4a2.67,2.67,0,0,1,3.43,4.09Z"/><path class="cls-3" d="M245.28,221.61l-4.81-4a2.67,2.67,0,1,1,3.44-4.09l1.37,1.15,6.46-5.41a2.67,2.67,0,0,1,3.43,4.1Z"/><path class="cls-3" d="M245.28,238l-4.81-4a2.67,2.67,0,1,1,3.44-4.09l1.37,1.15,6.46-5.41a2.67,2.67,0,0,1,3.43,4.1Z"/></svg>