<svg id="Layer_1" data-name="Layer 1" xmlns="http://www.w3.org/2000/svg" viewBox="0 0 500 500"><defs><style>.cls-1{fill:#25669b;}.cls-2{fill:none;}.cls-3{fill:#3686c7;}.cls-4{fill:#f15532;}</style></defs><path class="cls-1" d="M186.53,349.36l2.44-2.91a8.55,8.55,0,0,0,5.58,2.27c1.69,0,2.7-.67,2.7-1.76v-.06c0-1-.64-1.57-3.77-2.38-3.77-1-6.2-2-6.2-5.72v-.05c0-3.4,2.73-5.64,6.55-5.64a10.82,10.82,0,0,1,6.95,2.37l-2.14,3.11a8.77,8.77,0,0,0-4.86-1.85c-1.58,0-2.41.72-2.41,1.63v.05c0,1.24.8,1.64,4,2.47,3.79,1,5.93,2.35,5.93,5.61v.05c0,3.72-2.83,5.81-6.87,5.81A11.9,11.9,0,0,1,186.53,349.36Z"/><path class="cls-1" d="M204.38,333.37H218.5V337h-10v3.8h8.82v3.67h-8.82v3.93h10.16v3.66H204.38Z"/><path class="cls-1" d="M220.91,342.78v0a9.52,9.52,0,0,1,9.76-9.68,9.69,9.69,0,0,1,7.39,2.89l-2.63,3a6.89,6.89,0,0,0-4.78-2.11,5.54,5.54,0,0,0-5.43,5.83v.05c0,3.21,2.22,5.88,5.43,5.88a6.74,6.74,0,0,0,4.92-2.19l2.62,2.65a9.58,9.58,0,0,1-7.68,3.34A9.45,9.45,0,0,1,220.91,342.78Z"/><path class="cls-1" d="M240.63,344.07v-10.7h4.12V344c0,3.05,1.52,4.63,4,4.63s4-1.53,4-4.5V333.37h4.12v10.56c0,5.67-3.18,8.45-8.21,8.45S240.63,349.58,240.63,344.07Z"/><path class="cls-1" d="M260.59,333.37h8.55a7.47,7.47,0,0,1,5.46,1.9,5.88,5.88,0,0,1,1.6,4.28v.05a5.81,5.81,0,0,1-4,5.8l4.58,6.69H272l-4-6H264.7v6h-4.11Zm8.29,9.09c2,0,3.15-1.07,3.15-2.64v-.06c0-1.76-1.23-2.67-3.23-2.67h-4.1v5.37Z"/><path class="cls-1" d="M279.55,333.37h4.12v18.72h-4.12Z"/><path class="cls-1" d="M292.17,337.17h-5.7v-3.8H302v3.8h-5.7v14.92h-4.11Z"/><path class="cls-1" d="M309.85,344.71l-7.19-11.34h4.81l4.47,7.52,4.54-7.52h4.68L314,344.63v7.46h-4.12Z"/><path class="cls-2" d="M185.63,246.06V187.53s54.57-22.24,128.71,0v58.53c0,20.61-18.84,42.35-37.39,56.09H376.7a.45.45,0,0,0,.46-.46V153.39a.46.46,0,0,0-.46-.46H123.3a.46.46,0,0,0-.46.46v148.3a.45.45,0,0,0,.46.46H223C204.46,288.41,185.63,266.67,185.63,246.06Z"/><path class="cls-3" d="M376.7,147.59H123.3a5.81,5.81,0,0,0-5.81,5.8v148.3a5.82,5.82,0,0,0,5.81,5.81H230.83c-2.56-1.6-5.18-3.4-7.81-5.35H123.3a.45.45,0,0,1-.46-.46V153.39a.46.46,0,0,1,.46-.46H376.7a.46.46,0,0,1,.46.46v148.3a.45.45,0,0,1-.46.46H277c-2.63,2-5.26,3.75-7.82,5.35H376.7a5.82,5.82,0,0,0,5.81-5.81V153.39A5.81,5.81,0,0,0,376.7,147.59Z"/><path class="cls-4" d="M250,318.19h-.09a18.37,18.37,0,0,1-6.64-1.33C222.81,309.11,183,277.1,183,246.06V187.53a2.67,2.67,0,0,1,1.66-2.48c.56-.22,56.31-22.33,130.48-.08a2.67,2.67,0,0,1,1.91,2.56v58.53c0,31-39.86,63.05-60.34,70.8A18.38,18.38,0,0,1,250,318.19Zm0-5.34h0a13.4,13.4,0,0,0,4.78-1c19.31-7.3,56.89-37.15,56.89-65.8V189.52c-64.38-18.71-113.83-3.48-123.37-.13v56.67c0,28.65,37.57,58.5,56.88,65.8A14.81,14.81,0,0,0,250,312.85Z"/><path class="cls-1" d="M272.19,267.37H227.77a2.67,2.67,0,1,1,0-5.34h44.42a2.67,2.67,0,0,1,0,5.34Z"/><path class="cls-1" d="M272.19,279H227.77a2.67,2.67,0,0,1,0-5.34h44.42a2.67,2.67,0,1,1,0,5.34Z"/><path class="cls-1" d="M272.19,290.53H227.77a2.67,2.67,0,0,1,0-5.34h44.42a2.67,2.67,0,0,1,0,5.34Z"/><path class="cls-1" d="M275.27,248.81h-5.35V237.63c0-5-4.67-9.16-10.42-9.16h-19c-5.74,0-10.42,4.11-10.42,9.16v11.18H224.7V237.63c0-8,7.07-14.5,15.76-14.5h19c8.69,0,15.77,6.51,15.77,14.5Z"/><path class="cls-1" d="M250,222.51a15.83,15.83,0,1,1,15.82-15.82A15.84,15.84,0,0,1,250,222.51Zm0-26.3a10.48,10.48,0,1,0,10.48,10.48A10.49,10.49,0,0,0,250,196.21Z"/><path class="cls-1" d="M277.91,253H222.05a2.67,2.67,0,1,1,0-5.34h55.86a2.67,2.67,0,0,1,0,5.34Z"/><path class="cls-3" d="M334.19,313.41h5.69v1.5h-4.05v1.59h3.57V318h-3.57v2.89h-1.64Z"/><path class="cls-3" d="M341,313.41H344A2.56,2.56,0,0,1,346.9,316v0c0,1.73-1.35,2.62-3,2.62h-1.24v2.25H341Zm2.95,3.77a1.16,1.16,0,0,0,1.3-1.13v0c0-.74-.51-1.13-1.33-1.13h-1.27v2.28Z"/><path class="cls-3" d="M347.57,317.17v0a4,4,0,0,1,6.85-2.71l-1,1.2a2.79,2.79,0,0,0-1.92-.84,2.21,2.21,0,0,0-2.16,2.33v0a2.22,2.22,0,0,0,2.16,2.35,2.69,2.69,0,0,0,2-.88l1.05,1.06a3.86,3.86,0,0,1-3.07,1.34A3.78,3.78,0,0,1,347.57,317.17Z"/><path class="cls-3" d="M355.34,319.18h1.74v1.71h-1.74Z"/><path class="cls-3" d="M357.67,317.17v0a3.84,3.84,0,0,1,3.91-3.87,4.12,4.12,0,0,1,2.94,1l-1,1.25a2.73,2.73,0,0,0-2-.76,2.25,2.25,0,0,0-2.15,2.33v0a2.24,2.24,0,0,0,2.27,2.37,2.63,2.63,0,0,0,1.55-.45V318h-1.66v-1.43h3.25v3.25a4.88,4.88,0,0,1-3.2,1.19A3.74,3.74,0,0,1,357.67,317.17Z"/><path class="cls-3" d="M365.83,317.17v0a3.87,3.87,0,0,1,4-3.87,3.83,3.83,0,0,1,4,3.85v0a4,4,0,0,1-7.94,0Zm6.23,0v0a2.28,2.28,0,0,0-2.27-2.35,2.24,2.24,0,0,0-2.24,2.33v0a2.27,2.27,0,0,0,2.26,2.35A2.24,2.24,0,0,0,372.06,317.17Z"/><path class="cls-3" d="M373.9,313.41h1.82l1.95,5.27,2-5.27h1.77l-3,7.53h-1.45Z"/></svg>