<svg xmlns="http://www.w3.org/2000/svg" width="53.6" height="53.6" viewBox="0 0 53.6 53.6">
  <g id="design-tool" transform="translate(0 -0.5)">
    <path id="Path_1104" data-name="Path 1104" d="M340.36,219.644a1.047,1.047,0,1,0-1.48,0A1.046,1.046,0,0,0,340.36,219.644Zm0,0" transform="translate(-303.129 -194.602)" fill="#9f5000"/>
    <path id="Path_1105" data-name="Path 1105" d="M1.047,54.1H52.554a1.047,1.047,0,0,0,.74-1.787L1.787.807A1.047,1.047,0,0,0,0,1.547V53.053A1.047,1.047,0,0,0,1.047,54.1ZM2.094,4.074l8.421,8.421-2.221,2.22A1.047,1.047,0,0,0,9.774,16.2L12,13.975l4.441,4.442-2.221,2.22a1.047,1.047,0,1,0,1.48,1.481L17.917,19.9l4.441,4.441L20.138,26.56a1.047,1.047,0,0,0,1.48,1.48l2.221-2.221,4.441,4.442L26.06,32.482a1.047,1.047,0,1,0,1.48,1.48l2.221-2.221L34.2,36.183,31.982,38.4a1.047,1.047,0,1,0,1.481,1.48l2.22-2.221,4.441,4.441L37.9,44.327a1.047,1.047,0,0,0,1.481,1.48l2.22-2.221,8.42,8.42H2.094Zm0,0" transform="translate(0 0)" fill="#9f5000"/>
    <path id="Path_1106" data-name="Path 1106" d="M87.787,205.8a1.047,1.047,0,0,0-1.787.74v21.043a1.047,1.047,0,0,0,1.047,1.047H108.09a1.047,1.047,0,0,0,.741-1.787Zm.307,20.737V209.064l17.469,17.469Zm0,0" transform="translate(-76.997 -183.529)" fill="#9f5000"/>
    <path id="Path_1107" data-name="Path 1107" d="M272.608,153.377a1.047,1.047,0,1,0,1.481-1.48l-4.442-4.442a1.047,1.047,0,0,0-1.48,1.48Zm0,0" transform="translate(-239.818 -131.296)" fill="#9f5000"/>
    <path id="Path_1108" data-name="Path 1108" d="M123.856,11.169l29.386,29.386a3.139,3.139,0,0,0,4.442,0l2.961-2.96a3.146,3.146,0,0,0,0-4.442L131.26,3.767a1.044,1.044,0,0,0-.409-.253L121.967.553a1.047,1.047,0,0,0-1.324,1.324L123.6,10.76A1.047,1.047,0,0,0,123.856,11.169Zm35.308,23.464a1.049,1.049,0,0,1,0,1.481l-2.96,2.961a1.047,1.047,0,0,1-1.481,0l-2.268-2.268,4.441-4.442Zm-3.748-3.749-4.442,4.442-1.48-1.481,4.442-4.441Zm-24.2-24.2,21.243,21.243-4.441,4.442L126.77,11.122Zm-1.592-1.37L125.4,9.53,123.291,3.2Zm0,0" transform="translate(-107.965)" fill="#9f5000"/>
  </g>
</svg>
