<svg xmlns="http://www.w3.org/2000/svg" width="49.672" height="68" viewBox="0 0 49.672 68">
  <g id="dictionary" transform="translate(-69.001)">
    <g id="Group_2054" data-name="Group 2054" transform="translate(81.041)">
      <g id="Group_2053" data-name="Group 2053" transform="translate(0)">
        <path id="Path_1091" data-name="Path 1091" d="M172.449,0a12.787,12.787,0,0,0-12.8,12.2,1,1,0,1,0,1.99.093A10.817,10.817,0,1,1,175.76,23.111a1,1,0,0,0-.548.433l-2.764,4.569-2.764-4.569a1,1,0,0,0-.548-.433,10.806,10.806,0,0,1-7.06-7.22,1,1,0,1,0-1.91.566,12.8,12.8,0,0,0,8,8.43l3.428,5.666a1,1,0,0,0,1.7,0l3.428-5.666A12.811,12.811,0,0,0,172.449,0Z" transform="translate(-159.653)" fill="#9f5012"/>
      </g>
    </g>
    <g id="Group_2056" data-name="Group 2056" transform="translate(86.736 5.398)">
      <g id="Group_2055" data-name="Group 2055">
        <path id="Path_1092" data-name="Path 1092" d="M215.192,42.184a5.277,5.277,0,0,0-8.1,6.692l-4.263,4.263a1,1,0,1,0,1.409,1.409l4.263-4.263a5.277,5.277,0,0,0,6.692-8.1Zm-1.409,6.055a3.284,3.284,0,1,1,0-4.646A3.289,3.289,0,0,1,213.783,48.239Z" transform="translate(-202.536 -40.641)" fill="#9f5012"/>
      </g>
    </g>
    <g id="Group_2058" data-name="Group 2058" transform="translate(78.59 34.286)">
      <g id="Group_2057" data-name="Group 2057">
        <path id="Path_1093" data-name="Path 1093" d="M151.392,260.966l-8.9-2.768a1,1,0,1,0-.592,1.9l8.9,2.768a1,1,0,1,0,.592-1.9Z" transform="translate(-141.199 -258.152)" fill="#9f5012"/>
      </g>
    </g>
    <g id="Group_2060" data-name="Group 2060" transform="translate(78.59 37.815)">
      <g id="Group_2059" data-name="Group 2059">
        <path id="Path_1094" data-name="Path 1094" d="M151.392,287.541l-8.9-2.768a1,1,0,1,0-.592,1.9l8.9,2.768a1,1,0,1,0,.592-1.9Z" transform="translate(-141.199 -284.727)" fill="#9f5012"/>
      </g>
    </g>
    <g id="Group_2062" data-name="Group 2062" transform="translate(78.59 41.344)">
      <g id="Group_2061" data-name="Group 2061">
        <path id="Path_1095" data-name="Path 1095" d="M151.392,314.115l-8.9-2.768a1,1,0,1,0-.592,1.9l8.9,2.768a1,1,0,1,0,.592-1.9Z" transform="translate(-141.199 -311.301)" fill="#9f5012"/>
      </g>
    </g>
    <g id="Group_2065" data-name="Group 2065" transform="translate(69.001 26.041)">
      <g id="Group_2064" data-name="Group 2064" transform="translate(0)">
        <g id="Group_2063" data-name="Group 2063">
          <path id="Path_1096" data-name="Path 1096" d="M439.44,213.261Z" transform="translate(-390.177 -210.932)" fill="#9f5012"/>
          <path id="Path_1097" data-name="Path 1097" d="M118.264,198.4a1,1,0,0,0-.891-.144l-1.421.454v-1.643a1,1,0,0,0-1.3-.949l-20.816,6.659-12.654-4.048a1,1,0,0,0-.607,1.9l12.265,3.923v20.28l-19.127-6.118v-20.28l2.938.94a1,1,0,0,0,.607-1.9l-4.238-1.356a1,1,0,0,0-1.3.949v1.643L70.3,198.26a1,1,0,0,0-1.3.949v30.2a1,1,0,0,0,.693.949l23.84,7.626a1,1,0,0,0,.607,0l12.249-3.918a1,1,0,0,0-.607-1.9l-10.95,3.5v-2.858l21.848-6.989v2.858l-6.975,2.232a1,1,0,1,0,.607,1.9l7.667-2.453a1,1,0,0,0,.693-.949v-30.2A1,1,0,0,0,118.264,198.4ZM92.841,235.674l-21.848-6.989v-2.858l21.848,6.989Zm0-4.95-21.848-6.989V200.574l.728.233v18.636a1,1,0,0,0,.693.949l20.427,6.534Zm1.992-18.939v-7.231l19.127-6.118v20.28l-19.127,6.118V211.785Zm21.848-7.625v19.575l-21.848,6.989v-3.8l20.427-6.534a1,1,0,0,0,.693-.949V200.806l.728-.233Z" transform="translate(-69.001 -196.075)" fill="#9f5012"/>
        </g>
      </g>
    </g>
    <g id="Group_2067" data-name="Group 2067" transform="translate(100.153 33.404)">
      <g id="Group_2066" data-name="Group 2066" transform="translate(0)">
        <path id="Path_1098" data-name="Path 1098" d="M310.437,251.7a1,1,0,0,0-.891-.144l-5.294,1.693a1,1,0,0,0-.693.949v5.608a1,1,0,0,0,1.3.949l5.294-1.693a1,1,0,0,0,.693-.949v-5.608A1,1,0,0,0,310.437,251.7Zm-1.583,5.685-3.3,1.056v-3.516l3.3-1.056Z" transform="translate(-303.56 -251.512)" fill="#9f5012"/>
      </g>
    </g>
  </g>
</svg>
