<svg id="education" xmlns="http://www.w3.org/2000/svg" width="52" height="52" viewBox="0 0 52 52">
  <g id="Group_2121" data-name="Group 2121" transform="translate(0 0)">
    <g id="Group_2120" data-name="Group 2120" transform="translate(0 0)">
      <path id="Path_1190" data-name="Path 1190" d="M51.134,0H.867A.866.866,0,0,0,0,.866H0V18.2H1.733V1.733H50.267V20.8H19.933v1.733h31.2A.866.866,0,0,0,52,21.667h0V.867A.866.866,0,0,0,51.134,0Z" transform="translate(0 0)" fill="#9f5012"/>
    </g>
  </g>
  <g id="Group_2123" data-name="Group 2123" transform="translate(28.6 4.333)">
    <g id="Group_2122" data-name="Group 2122">
      <rect id="Rectangle_1669" data-name="Rectangle 1669" width="17" height="2" transform="translate(0.4 -0.334)" fill="#9f5012"/>
    </g>
  </g>
  <g id="Group_2125" data-name="Group 2125" transform="translate(31.2 9.533)">
    <g id="Group_2124" data-name="Group 2124">
      <rect id="Rectangle_1670" data-name="Rectangle 1670" width="18" height="1" transform="translate(-0.199 0.467)" fill="#9f5012"/>
    </g>
  </g>
  <g id="Group_2127" data-name="Group 2127" transform="translate(27.733 14.733)">
    <g id="Group_2126" data-name="Group 2126">
      <rect id="Rectangle_1671" data-name="Rectangle 1671" width="17" height="1" transform="translate(0.268 0.268)" fill="#9f5012"/>
    </g>
  </g>
  <g id="Group_2129" data-name="Group 2129" transform="translate(0 3.467)">
    <g id="Group_2128" data-name="Group 2128" transform="translate(0)">
      <path id="Path_1191" data-name="Path 1191" d="M27.664,36.006A2.8,2.8,0,0,0,24.008,34.5l-.073.031-7.027,3.645a4.286,4.286,0,0,0,.426-1.841,4.333,4.333,0,1,0-7.778,2.6H9.519a5.947,5.947,0,0,0-5.525,3.848L1.681,50.755a2.776,2.776,0,1,0,5.212,1.909L7.8,49.78V62.323a4.32,4.32,0,0,0-5.624,6.539A3.993,3.993,0,0,0,0,72.4v7.263a.866.866,0,0,0,.866.867H9.533a.866.866,0,0,0,.867-.866h0V72.4a3.983,3.983,0,0,0-1.547-3.137h6.56A3.983,3.983,0,0,0,13.867,72.4v7.263a.866.866,0,0,0,.866.867H23.4a.866.866,0,0,0,.867-.866h0V72.4a3.993,3.993,0,0,0-2.176-3.542,4.33,4.33,0,0,0-3.891-7.34V43.793l7.956-4.131A2.8,2.8,0,0,0,27.664,36.006ZM13,33.733a2.6,2.6,0,1,1-2.6,2.6A2.6,2.6,0,0,1,13,33.733ZM5.2,63.168a2.6,2.6,0,1,1-2.6,2.6A2.6,2.6,0,0,1,5.2,63.168ZM8.667,78.8H1.733V72.4A2.274,2.274,0,0,1,4,70.133H6.4A2.274,2.274,0,0,1,8.667,72.4Zm13.867-6.4v6.4H15.6V72.4a2.274,2.274,0,0,1,2.271-2.271h2.391A2.274,2.274,0,0,1,22.533,72.4Zm-3.467-9.236a2.6,2.6,0,1,1-2.6,2.6A2.6,2.6,0,0,1,19.067,63.168Zm7.012-25.716a1.115,1.115,0,0,1-.654.642l-8.49,4.4a.867.867,0,0,0-.468.769V62.323a4.275,4.275,0,0,0-1.349,5.21H13.867V52.8H12.133V67.533H9.149A4.293,4.293,0,0,0,9.53,65.8h0V44.133a.867.867,0,0,0-1.693-.26L5.252,52.109a1.042,1.042,0,0,1-1.446.576,1.064,1.064,0,0,1-.484-1.376l2.313-7.974a4.187,4.187,0,0,1,3.884-2.668h6.137a.863.863,0,0,0,.4-.1L24.669,36.1a1.067,1.067,0,0,1,1.364.505A1.054,1.054,0,0,1,26.078,37.451Z" transform="translate(0 -32)" fill="#9f5012"/>
    </g>
  </g>
  <g id="Group_2131" data-name="Group 2131" transform="translate(27.733 32.892)">
    <g id="Group_2130" data-name="Group 2130">
      <path id="Path_1192" data-name="Path 1192" d="M264.224,311.056a4.333,4.333,0,1,0-6.128-.08l.08.08A3.993,3.993,0,0,0,256,314.6v7.263a.866.866,0,0,0,.866.867h8.667a.866.866,0,0,0,.867-.866h0V314.6A3.993,3.993,0,0,0,264.224,311.056Zm-3.024-5.695a2.6,2.6,0,1,1-2.6,2.6A2.6,2.6,0,0,1,261.2,305.361Zm3.467,15.632h-6.933v-6.4A2.274,2.274,0,0,1,260,312.326H262.4a2.274,2.274,0,0,1,2.271,2.271Z" transform="translate(-256 -303.618)" fill="#9f5012"/>
    </g>
  </g>
  <g id="Group_2133" data-name="Group 2133" transform="translate(41.6 32.892)">
    <g id="Group_2132" data-name="Group 2132">
      <path id="Path_1193" data-name="Path 1193" d="M392.224,311.056a4.333,4.333,0,1,0-6.128-.08l.08.08A3.993,3.993,0,0,0,384,314.6v7.263a.866.866,0,0,0,.866.867h8.667a.866.866,0,0,0,.867-.866h0V314.6A3.993,3.993,0,0,0,392.224,311.056Zm-3.024-5.695a2.6,2.6,0,1,1-2.6,2.6A2.6,2.6,0,0,1,389.2,305.361Zm3.467,15.632h-6.933v-6.4A2.274,2.274,0,0,1,388,312.326H390.4a2.274,2.274,0,0,1,2.271,2.271Z" transform="translate(-384 -303.618)" fill="#9f5012"/>
    </g>
  </g>
</svg>
