<svg xmlns="http://www.w3.org/2000/svg" width="62.813" height="62.813" viewBox="0 0 62.813 62.813">
  <g id="Group_2186" data-name="Group 2186" transform="translate(-218.594 -912.594)">
    <g id="network" transform="translate(218.594 912.594)">
      <g id="Group_2142" data-name="Group 2142" transform="translate(18.844)">
        <g id="Group_2141" data-name="Group 2141">
          <path id="Path_1202" data-name="Path 1202" d="M161.489,12.737a7.328,7.328,0,1,0-9.853,0A9.434,9.434,0,0,0,144,21.984v4.188a1.047,1.047,0,0,0,1.047,1.047h23.031a1.047,1.047,0,0,0,1.047-1.047V21.984A9.434,9.434,0,0,0,161.489,12.737ZM151.328,7.328a5.234,5.234,0,1,1,5.234,5.234A5.24,5.24,0,0,1,151.328,7.328Zm15.7,17.8H146.094V21.984a7.337,7.337,0,0,1,7.328-7.328H159.7a7.337,7.337,0,0,1,7.328,7.328Z" transform="translate(-144)" fill="#9c3d10"/>
        </g>
      </g>
      <g id="Group_2144" data-name="Group 2144" transform="translate(0 35.594)">
        <g id="Group_2143" data-name="Group 2143">
          <path id="Path_1203" data-name="Path 1203" d="M17.489,284.737a7.328,7.328,0,1,0-9.853,0A9.434,9.434,0,0,0,0,293.984v4.188a1.047,1.047,0,0,0,1.047,1.047H24.078a1.047,1.047,0,0,0,1.047-1.047v-4.187A9.434,9.434,0,0,0,17.489,284.737ZM7.328,279.328a5.234,5.234,0,1,1,5.234,5.234A5.24,5.24,0,0,1,7.328,279.328Zm15.7,17.8H2.094v-3.141a7.337,7.337,0,0,1,7.328-7.328H15.7a7.337,7.337,0,0,1,7.328,7.328Z" transform="translate(0 -272)" fill="#9c3d10"/>
        </g>
      </g>
      <g id="Group_2146" data-name="Group 2146" transform="translate(37.688 35.594)">
        <g id="Group_2145" data-name="Group 2145">
          <path id="Path_1204" data-name="Path 1204" d="M305.489,284.737a7.328,7.328,0,1,0-9.853,0A9.434,9.434,0,0,0,288,293.984v4.188a1.047,1.047,0,0,0,1.047,1.047h23.031a1.047,1.047,0,0,0,1.047-1.047v-4.187A9.434,9.434,0,0,0,305.489,284.737Zm-10.161-5.409a5.234,5.234,0,1,1,5.234,5.234A5.24,5.24,0,0,1,295.328,279.328Zm15.7,17.8H290.094v-3.141a7.337,7.337,0,0,1,7.328-7.328H303.7a7.337,7.337,0,0,1,7.328,7.328Z" transform="translate(-288 -272)" fill="#9c3d10"/>
        </g>
      </g>
      <g id="Group_2148" data-name="Group 2148" transform="translate(4.209 33.466)">
        <g id="Group_2147" data-name="Group 2147">
          <path id="Path_1205" data-name="Path 1205" d="M34.26,255.744l-2.092.082c.028.721.086,1.452.172,2.17l2.079-.249C34.339,257.084,34.286,256.41,34.26,255.744Z" transform="translate(-32.168 -255.744)" fill="#9c3d10"/>
        </g>
      </g>
      <g id="Group_2150" data-name="Group 2150" transform="translate(4.209 29.205)">
        <g id="Group_2149" data-name="Group 2149">
          <path id="Path_1206" data-name="Path 1206" d="M32.339,223.176c-.085.714-.143,1.444-.171,2.169l2.092.082c.026-.67.08-1.343.158-2Z" transform="translate(-32.168 -223.176)" fill="#9c3d10"/>
        </g>
      </g>
      <g id="Group_2152" data-name="Group 2152" transform="translate(13.228 10.802)">
        <g id="Group_2151" data-name="Group 2151">
          <path id="Path_1207" data-name="Path 1207" d="M102.766,82.544c-.573.437-1.137.9-1.678,1.389l1.4,1.558c.5-.448,1.019-.879,1.547-1.281Z" transform="translate(-101.088 -82.544)" fill="#9c3d10"/>
        </g>
      </g>
      <g id="Group_2154" data-name="Group 2154" transform="translate(5.922 20.864)">
        <g id="Group_2153" data-name="Group 2153">
          <path id="Path_1208" data-name="Path 1208" d="M46.1,159.44c-.308.654-.593,1.328-.848,2.008l1.96.736c.236-.626.5-1.248.782-1.85Z" transform="translate(-45.256 -159.44)" fill="#9c3d10"/>
        </g>
      </g>
      <g id="Group_2156" data-name="Group 2156" transform="translate(4.722 24.94)">
        <g id="Group_2155" data-name="Group 2155">
          <path id="Path_1209" data-name="Path 1209" d="M36.6,190.584c-.2.692-.372,1.4-.515,2.115l2.053.414c.132-.654.291-1.312.475-1.951Z" transform="translate(-36.088 -190.584)" fill="#9c3d10"/>
        </g>
      </g>
      <g id="Group_2158" data-name="Group 2158" transform="translate(10.234 13.711)">
        <g id="Group_2157" data-name="Group 2157">
          <path id="Path_1210" data-name="Path 1210" d="M79.643,104.776c-.5.528-.983,1.077-1.435,1.635l1.628,1.317c.417-.515.863-1.024,1.325-1.511Z" transform="translate(-78.208 -104.776)" fill="#9c3d10"/>
        </g>
      </g>
      <g id="Group_2160" data-name="Group 2160" transform="translate(16.686 8.449)">
        <g id="Group_2159" data-name="Group 2159">
          <path id="Path_1211" data-name="Path 1211" d="M129.39,64.568c-.633.338-1.265.71-1.878,1.1l1.135,1.761c.565-.365,1.147-.708,1.729-1.019Z" transform="translate(-127.512 -64.568)" fill="#9c3d10"/>
        </g>
      </g>
      <g id="Group_2162" data-name="Group 2162" transform="translate(7.776 17.09)">
        <g id="Group_2161" data-name="Group 2161">
          <path id="Path_1212" data-name="Path 1212" d="M60.582,130.6c-.409.6-.8,1.218-1.158,1.845l1.816,1.041c.331-.578.691-1.151,1.069-1.7Z" transform="translate(-59.424 -130.6)" fill="#9c3d10"/>
        </g>
      </g>
      <g id="Group_2164" data-name="Group 2164" transform="translate(26.033 57.088)">
        <g id="Group_2163" data-name="Group 2163">
          <path id="Path_1213" data-name="Path 1213" d="M199.35,436.256l-.414,2.053c.7.142,1.429.256,2.152.341l.243-2.079C200.666,436.493,200,436.387,199.35,436.256Z" transform="translate(-198.936 -436.256)" fill="#9c3d10"/>
        </g>
      </g>
      <g id="Group_2166" data-name="Group 2166" transform="translate(34.447 57.076)">
        <g id="Group_2165" data-name="Group 2165">
          <path id="Path_1214" data-name="Path 1214" d="M265.225,436.16c-.65.132-1.317.24-1.985.321l.252,2.079c.722-.088,1.445-.205,2.148-.348Z" transform="translate(-263.24 -436.16)" fill="#9c3d10"/>
        </g>
      </g>
      <g id="Group_2168" data-name="Group 2168" transform="translate(30.353 57.557)">
        <g id="Group_2167" data-name="Group 2167">
          <path id="Path_1215" data-name="Path 1215" d="M234.045,439.84c-.669.026-1.345.029-2.01,0l-.083,2.092c.349.015.7.021,1.056.021.375,0,.749-.009,1.12-.024Z" transform="translate(-231.952 -439.84)" fill="#9c3d10"/>
        </g>
      </g>
      <g id="Group_2170" data-name="Group 2170" transform="translate(48.19 12.199)">
        <g id="Group_2169" data-name="Group 2169">
          <path id="Path_1216" data-name="Path 1216" d="M369.655,93.224l-1.4,1.558c.5.448.982.919,1.439,1.4l1.52-1.439C370.719,94.22,370.195,93.709,369.655,93.224Z" transform="translate(-368.256 -93.224)" fill="#9c3d10"/>
        </g>
      </g>
      <g id="Group_2172" data-name="Group 2172" transform="translate(50.955 15.352)">
        <g id="Group_2171" data-name="Group 2171">
          <path id="Path_1217" data-name="Path 1217" d="M391.012,117.32l-1.628,1.317c.418.516.822,1.059,1.2,1.612l1.726-1.184C391.9,118.467,391.464,117.88,391.012,117.32Z" transform="translate(-389.384 -117.32)" fill="#9c3d10"/>
        </g>
      </g>
      <g id="Group_2174" data-name="Group 2174" transform="translate(56.511 31.377)">
        <g id="Group_2173" data-name="Group 2173">
          <path id="Path_1218" data-name="Path 1218" d="M433.94,239.776l-2.092.082c.014.33.02.663.02.995s-.006.678-.02,1.017l2.092.082q.022-.546.022-1.1C433.962,240.491,433.954,240.132,433.94,239.776Z" transform="translate(-431.848 -239.776)" fill="#9c3d10"/>
        </g>
      </g>
      <g id="Group_2176" data-name="Group 2176" transform="translate(53.223 18.94)">
        <g id="Group_2175" data-name="Group 2175">
          <path id="Path_1219" data-name="Path 1219" d="M408.537,144.736l-1.817,1.042c.332.579.644,1.179.929,1.782l1.894-.894C409.235,146.012,408.9,145.363,408.537,144.736Z" transform="translate(-406.72 -144.736)" fill="#9c3d10"/>
        </g>
      </g>
      <g id="Group_2178" data-name="Group 2178" transform="translate(54.933 22.876)">
        <g id="Group_2177" data-name="Group 2177">
          <path id="Path_1220" data-name="Path 1220" d="M421.744,174.816l-1.96.737c.234.624.446,1.266.63,1.906l2.013-.577C422.228,176.187,422,175.492,421.744,174.816Z" transform="translate(-419.784 -174.816)" fill="#9c3d10"/>
        </g>
      </g>
      <g id="Group_2180" data-name="Group 2180" transform="translate(56.037 27.059)">
        <g id="Group_2179" data-name="Group 2179">
          <path id="Path_1221" data-name="Path 1221" d="M430.276,206.776l-2.052.412c.132.655.239,1.323.316,1.985l2.079-.247C430.534,208.21,430.419,207.487,430.276,206.776Z" transform="translate(-428.224 -206.776)" fill="#9c3d10"/>
        </g>
      </g>
      <g id="Group_2182" data-name="Group 2182" transform="translate(44.999 9.558)">
        <g id="Group_2181" data-name="Group 2181">
          <path id="Path_1222" data-name="Path 1222" d="M345.006,73.04,343.872,74.8c.559.36,1.112.749,1.645,1.156l1.271-1.666C346.211,73.85,345.612,73.43,345.006,73.04Z" transform="translate(-343.872 -73.04)" fill="#9c3d10"/>
        </g>
      </g>
      <g id="Group_2184" data-name="Group 2184" transform="translate(41.459 7.502)">
        <g id="Group_2183" data-name="Group 2183">
          <path id="Path_1223" data-name="Path 1223" d="M317.663,57.328l-.839,1.918c.61.267,1.218.562,1.807.878l.99-1.845C318.984,57.936,318.324,57.616,317.663,57.328Z" transform="translate(-316.824 -57.328)" fill="#9c3d10"/>
        </g>
      </g>
    </g>
  </g>
</svg>
