<svg xmlns="http://www.w3.org/2000/svg" width="56.746" height="53.627" viewBox="0 0 56.746 53.627">
  <g id="Group_2187" data-name="Group 2187" transform="translate(1525.799 108)">
    <g id="Group_2139" data-name="Group 2139" transform="translate(-1525.798 -82.035)">
      <g id="Group_2138" data-name="Group 2138" transform="translate(0 0)">
        <path id="Path_1201" data-name="Path 1201" d="M-1502.188,147.378a13.778,13.778,0,0,0-5.256-3.3,7.993,7.993,0,0,0,3.472-6.589,8,8,0,0,0-8-8,8,8,0,0,0-8,8,7.992,7.992,0,0,0,3.472,6.589,13.777,13.777,0,0,0-5.256,3.3,13.741,13.741,0,0,0-4.051,9.78h2.161a11.682,11.682,0,0,1,11.669-11.67,11.683,11.683,0,0,1,11.67,11.67h2.161A13.74,13.74,0,0,0-1502.188,147.378Zm-9.78-4.051a5.841,5.841,0,0,1-5.835-5.835,5.841,5.841,0,0,1,5.835-5.835,5.841,5.841,0,0,1,5.835,5.835A5.841,5.841,0,0,1-1511.968,143.327Z" transform="translate(1525.798 -129.497)" fill="#9f5012"/>
      </g>
    </g>
    <g id="_005---Folder-Settings" data-name="005---Folder-Settings" transform="translate(-1525.029 -108)">
      <path id="Shape" d="M-1468.383-95.8v-1.94a4.67,4.67,0,0,0-4.665-4.665h-15.86v-.933a4.67,4.67,0,0,0-4.665-4.665H-1514.1a4.67,4.67,0,0,0-4.665,4.665v19.592a.933.933,0,0,0,.933.933.933.933,0,0,0,.933-.933v-19.592a2.8,2.8,0,0,1,2.8-2.8h20.525a2.8,2.8,0,0,1,2.8,2.8v1.866a.933.933,0,0,0,.933.933h16.793a2.8,2.8,0,0,1,2.8,2.8v1.866h-26.123a.933.933,0,0,0-.933.933.933.933,0,0,0,.933.933h27.055a4.67,4.67,0,0,1,4.665,4.665v27.055a4.67,4.67,0,0,1-4.665,4.665h-13.994a.933.933,0,0,0-.933.933.933.933,0,0,0,.933.933h13.994a6.538,6.538,0,0,0,6.531-6.531V-89.341A6.536,6.536,0,0,0-1468.383-95.8Z" transform="translate(1518.762 108)" fill="#9f5012"/>
      <path id="Shape-2" data-name="Shape" d="M-1394.63,4.8a.933.933,0,0,0,.933-.933.933.933,0,0,0-.933-.933h-3.732a.933.933,0,0,0-.933.933.933.933,0,0,0,.933.933Z" transform="translate(1412.356 9.195)" fill="#9f5012"/>
    </g>
  </g>
</svg>
