<svg xmlns="http://www.w3.org/2000/svg" width="66.941" height="44.121" viewBox="0 0 66.941 44.121">
  <g id="handshake" transform="translate(0 -87.27)">
    <g id="Group_2137" data-name="Group 2137" transform="translate(0 87.27)">
      <path id="Path_1200" data-name="Path 1200" d="M66.941,98.658a4.7,4.7,0,0,0-.961-2.9l-5.3-6.787a4.561,4.561,0,0,0-3.591-1.7,4.422,4.422,0,0,0-2.346.657l-5.172,3.218a4.719,4.719,0,0,1-2.377.579,4.309,4.309,0,0,1-1.822-.358L40.3,88.913a6.1,6.1,0,0,0-2.643-.556,6.585,6.585,0,0,0-3.717,1.071l-.591.415-2.012-1a7.587,7.587,0,0,0-3.3-.678,7.892,7.892,0,0,0-3.028.555l-3.45,1.472a6.307,6.307,0,0,1-2.341.4,6.3,6.3,0,0,1-2.34-.4L13.43,88.717a5.025,5.025,0,0,0-1.97-.384,6,6,0,0,0-2.242.44,5.1,5.1,0,0,0-1.891,1.3l-6.286,7.04a4.082,4.082,0,0,0,.4,5.835l5.864,5-2.782,2.9a4.144,4.144,0,0,0,.142,5.869l.564.536a4.138,4.138,0,0,0,1.839,1,4.1,4.1,0,0,0,.772,4.977h0l.566.539a4.2,4.2,0,0,0,4.506.815,4.1,4.1,0,0,0,1.153,2.008l.566.539a4.189,4.189,0,0,0,5.191.446,4.116,4.116,0,0,0,1.085,1.782l.566.539a4.195,4.195,0,0,0,5.9-.14l2.459-2.567,3.34,3.091a4.192,4.192,0,0,0,5.894-.212l.533-.571a4.114,4.114,0,0,0,.935-1.69L41.823,129a4.2,4.2,0,0,0,5.9-.218l.53-.571a4.1,4.1,0,0,0,1.063-2.292,4.083,4.083,0,0,0,4.095-1.175l.532-.571a4.132,4.132,0,0,0,1.111-2.825,4.238,4.238,0,0,0-.114-.931,4.134,4.134,0,0,0,2.5-1.267l.533-.571a4.15,4.15,0,0,0-.217-5.869l-1-.921,9-9.951A4.738,4.738,0,0,0,66.941,98.658ZM8.108,116.138a1.893,1.893,0,0,1-1.308-.517l-.565-.536a1.887,1.887,0,0,1-.065-2.668l5.7-5.945a1.912,1.912,0,0,1,2.682-.064l.563.537a3.57,3.57,0,0,1,.584,1.368,1.878,1.878,0,0,1-.337,1.067L9.21,115.787A1.919,1.919,0,0,1,8.108,116.138Zm4.55,5.93a1.913,1.913,0,0,1-2.681.063l-.566-.538h0a1.893,1.893,0,0,1-.064-2.668s7.594-7.906,7.658-7.982a1.9,1.9,0,0,1,2.621-.013l.566.539a1.89,1.89,0,0,1,.064,2.668Zm6.224,3.361a1.91,1.91,0,0,1-2.68.063l-.568-.538a1.875,1.875,0,0,1-.165-2.541l5.289-5.52a1.9,1.9,0,0,1,2.575.026l.568.539a1.889,1.889,0,0,1,.064,2.668Zm10.049-.583L25.723,128.2a1.911,1.911,0,0,1-2.681.063l-.566-.538a1.889,1.889,0,0,1-.064-2.668L25.62,121.7a1.913,1.913,0,0,1,2.682-.063l.568.538a1.89,1.89,0,0,1,.062,2.668Zm27.88-9.086a1.869,1.869,0,0,1-.505,1.283l-.532.571a1.912,1.912,0,0,1-2.68.1l-8.961-8.287-1.549,1.659,9.591,8.885a1.888,1.888,0,0,1,.1,2.669l-.53.571a1.911,1.911,0,0,1-2.678.1L40.1,115.02l-1.548,1.659,7.954,7.356a1.885,1.885,0,0,1,.078,2.641l-.532.571a1.914,1.914,0,0,1-2.681.1l-7.938-7.329h0l-1.545,1.662h0l.03.028,3.976,3.669a1.868,1.868,0,0,1,.034,2.584l-.532.571a1.907,1.907,0,0,1-2.675.1l-3.462-3.205a4.087,4.087,0,0,0-.82-4.881L29.873,120A4.17,4.17,0,0,0,27,118.86c-.08,0-.16.018-.239.023,0-.019,0-.039,0-.058a7.921,7.921,0,0,0-1.289-3.007l-.566-.537a4.156,4.156,0,0,0-2.1-1.069,4.091,4.091,0,0,0-1.043-4.38l-.566-.539a4.178,4.178,0,0,0-2.878-1.144c-.12,0-.239.024-.358.035a4.132,4.132,0,0,0-1.276-2.876h0l-.564-.536a4.193,4.193,0,0,0-5.9.138l-1.345,1.4-5.958-5.081a1.826,1.826,0,0,1-.177-2.61l6.286-7.04a2.868,2.868,0,0,1,1.051-.709,3.741,3.741,0,0,1,1.381-.272,2.757,2.757,0,0,1,1.074.2l3.451,1.473a8.491,8.491,0,0,0,3.238.582,8.492,8.492,0,0,0,3.238-.582l3.45-1.472a5.651,5.651,0,0,1,2.132-.373,5.414,5.414,0,0,1,2.279.439l.921.459L27.727,93.8A4.064,4.064,0,0,0,26.8,99.57v0l.465.624a4.541,4.541,0,0,0,3.634,1.779,4.413,4.413,0,0,0,2.273-.619l2.1-1.264a3.465,3.465,0,0,1,1.747-.425,3.639,3.639,0,0,1,2.058.579l5.821,4.173a58.136,58.136,0,0,1,4.575,3.733l6.737,6.229A1.877,1.877,0,0,1,56.812,115.761Zm7.258-15.433-8.975,9.924-4.075-3.767a59.961,59.961,0,0,0-4.793-3.911L40.408,98.4A5.882,5.882,0,0,0,37.019,97.4a5.729,5.729,0,0,0-2.924.751l-2.1,1.264a2.135,2.135,0,0,1-1.1.294,2.269,2.269,0,0,1-1.807-.863l-.463-.624,0,0a1.8,1.8,0,0,1,.413-2.567l6.221-4.371a4.378,4.378,0,0,1,2.4-.656,3.853,3.853,0,0,1,1.648.328L44.373,93.4a6.542,6.542,0,0,0,2.818.587,6.928,6.928,0,0,0,3.582-.924l5.173-3.218a2.15,2.15,0,0,1,1.14-.313,2.3,2.3,0,0,1,1.794.831l5.3,6.787a2.469,2.469,0,0,1,.483,1.505A2.516,2.516,0,0,1,64.07,100.328Z" transform="translate(0 -87.27)" fill="#9c3d10"/>
    </g>
  </g>
</svg>
