<svg xmlns="http://www.w3.org/2000/svg" width="68.999" height="61.106" viewBox="0 0 68.999 61.106">
  <g id="law_1_" data-name="law (1)" transform="translate(187 -29.285)">
    <g id="Group_2036" data-name="Group 2036" transform="translate(-187 29.285)">
      <g id="Group_2035" data-name="Group 2035" transform="translate(0 0)">
        <path id="Path_1077" data-name="Path 1077" d="M47.07,37.717a2.151,2.151,0,0,0-1.3-1.57L43.9,35.383a2.723,2.723,0,0,0-2.962.6l-.514.514-1.561-1.561a3.3,3.3,0,0,0-.2-4.446l-.236-.236a3.305,3.305,0,0,0-4.669,0L22.093,41.919a3.305,3.305,0,0,0,0,4.669l.236.236a3.3,3.3,0,0,0,4.447.2l1.56,1.56-.514.514a2.722,2.722,0,0,0-.6,2.962l.764,1.868a2.15,2.15,0,0,0,1.423,1.262l-4.5,5.365a3.269,3.269,0,0,0-4.274,4.135L1.486,82.374A4.621,4.621,0,0,0,4.618,90.39h.1a4.582,4.582,0,0,0,3.3-1.486l9.592-10.391a1.011,1.011,0,1,0-1.485-1.371L6.531,87.533a2.6,2.6,0,1,1-3.673-3.674L21.833,66.343l2.215,2.215-4.689,5.079a1.011,1.011,0,1,0,1.485,1.371l4.851-5.254a3.277,3.277,0,0,0,4.141-4.28l5.363-4.5A2.151,2.151,0,0,0,36.462,62.4l1.868.764a2.723,2.723,0,0,0,2.962-.6l.514-.514,1.561,1.561a3.3,3.3,0,0,0,.2,4.446l.236.236a3.305,3.305,0,0,0,4.669,0L60.141,56.628a3.305,3.305,0,0,0,0-4.669l-.236-.236a3.3,3.3,0,0,0-4.446-.2L53.9,49.962l.514-.514a2.722,2.722,0,0,0,.6-2.962l-.764-1.868a2.151,2.151,0,0,0-1.57-1.3c-.042-.069-5.533-5.561-5.6-5.6ZM30.889,56.578,33.812,59.5l-5.2,4.359L26.53,61.778Zm26.682-3.8a1.272,1.272,0,0,1,.9.375l.236.236a1.281,1.281,0,0,1,0,1.81L47.042,66.868a1.281,1.281,0,0,1-1.81,0L45,66.632a1.281,1.281,0,0,1,0-1.81L56.666,53.153A1.272,1.272,0,0,1,57.571,52.778Zm-3.552.163-9.233,9.233-1.55-1.55,9.233-9.233Zm-1.037-4.923L39.863,61.138a.705.705,0,0,1-.768.154l-1.868-.764a.135.135,0,0,1-.044-.22l14.97-14.97a.125.125,0,0,1,.092-.04.154.154,0,0,1,.03,0,.126.126,0,0,1,.1.081l.764,1.868a.705.705,0,0,1-.154.767Zm-2.406-3.961L35.9,58.732l-4.242-4.242L46.333,39.815ZM24.663,45.769a1.271,1.271,0,0,1-.9-.375h0l-.236-.236a1.281,1.281,0,0,1,0-1.81L35.192,31.679a1.281,1.281,0,0,1,1.81,0l.236.236a1.28,1.28,0,0,1,0,1.81L25.568,45.394a1.272,1.272,0,0,1-.9.375Zm4.589,4.759,7.215-7.215a1.011,1.011,0,1,0-1.429-1.429l-5.272,5.272-1.55-1.55,9.233-9.233L39,37.922l-.588.588A1.011,1.011,0,0,0,39.84,39.94l2.531-2.531a.7.7,0,0,1,.768-.154l1.868.764a.135.135,0,0,1,.044.22l-14.97,14.97a.134.134,0,0,1-.22-.044L29.1,51.3a.705.705,0,0,1,.154-.767ZM22.84,62.719a1.255,1.255,0,0,1,1.772,0l3.058,3.058A1.253,1.253,0,0,1,25.9,67.55L22.84,64.492A1.255,1.255,0,0,1,22.84,62.719Z" transform="translate(0 -29.285)" fill="#9f5000"/>
        <path id="Path_1078" data-name="Path 1078" d="M220.025,379.518a8.572,8.572,0,0,0-5.949-4.79v-1.195a2.473,2.473,0,0,0-2.47-2.47H194.29a1.011,1.011,0,1,0,0,2.021h17.316a.449.449,0,0,1,.448.449v1h-25.8v-1a.449.449,0,0,1,.449-.449h2.812a1.011,1.011,0,1,0,0-2.021h-2.812a2.473,2.473,0,0,0-2.47,2.47v1.195a8.573,8.573,0,0,0-5.949,4.79l-1.417,3.094a2.47,2.47,0,0,0,2.246,3.5H219.2a2.47,2.47,0,0,0,2.246-3.5Zm-.451,4.364a.437.437,0,0,1-.378.206H179.118a.448.448,0,0,1-.408-.635l1.417-3.094a6.542,6.542,0,0,1,5.933-3.808h26.195a6.541,6.541,0,0,1,5.933,3.808l1.417,3.094A.437.437,0,0,1,219.573,383.883Z" transform="translate(-152.841 -325.005)" fill="#9f5000"/>
        <path id="Path_1079" data-name="Path 1079" d="M470.123,340.675a1.008,1.008,0,0,0,.713-.294l1.094-1.087a1.011,1.011,0,1,0-1.425-1.434l-1.094,1.087a1.011,1.011,0,0,0,.712,1.728Z" transform="translate(-405.893 -296.022)" fill="#9f5000"/>
        <path id="Path_1080" data-name="Path 1080" d="M445.846,318.4l-.379,1.513a1.011,1.011,0,1,0,1.961.492l.379-1.513a1.011,1.011,0,0,0-1.961-.492Z" transform="translate(-385.408 -278.775)" fill="#9f5000"/>
        <path id="Path_1081" data-name="Path 1081" d="M485.785,368.27a1.009,1.009,0,0,0,1.222.742l1.515-.371a1.011,1.011,0,0,0-.48-1.964l-1.515.371A1.011,1.011,0,0,0,485.785,368.27Z" transform="translate(-420.294 -321.184)" fill="#9f5000"/>
      </g>
    </g>
  </g>
</svg>
