<svg xmlns="http://www.w3.org/2000/svg" width="64" height="63.987" viewBox="0 0 64 63.987">
  <g id="settings_2_" data-name="settings (2)" transform="translate(0 -0.05)">
    <g id="Group_2136" data-name="Group 2136" transform="translate(0 0.05)">
      <g id="Group_2135" data-name="Group 2135" transform="translate(0 0)">
        <path id="Path_1196" data-name="Path 1196" d="M221.235,25.234V16.151L216.5,14.967a13.343,13.343,0,0,0-.617-1.461l2.52-4.2-6.425-6.425-4.2,2.52c-.491-.227-.983-.441-1.461-.617L205.135.05h-9.083l-1.184,4.737a13.342,13.342,0,0,0-1.461.617l-4.2-2.52L182.785,9.31l2.52,4.2c-.227.491-.441.983-.617,1.461l-4.737,1.184v4.737h-.05v2.066h.05v2.28l4.737,1.184a13.344,13.344,0,0,0,.617,1.461l-2.52,4.2L189.21,38.5l4.2-2.52c.491.227.983.441,1.461.617l1.184,4.737h2.28v.05H200.4v-.05h4.737l1.184-4.737a13.342,13.342,0,0,0,1.461-.617l4.2,2.52,6.425-6.425-2.52-4.2c.227-.491.441-.983.617-1.461Zm-5.43,6.526-4.145,4.145-3.792-2.268-.517.265a15.249,15.249,0,0,1-2.23.932l-.542.176-1.071,4.271h-3.124v-.05h-2.066v.05h-.668l-1.071-4.271-.542-.176a15.849,15.849,0,0,1-2.23-.932l-.517-.265L189.5,35.905l-4.145-4.145,2.268-3.792-.265-.517a15.116,15.116,0,0,1-.932-2.217l-.176-.542-4.271-1.071v-.668h.05V20.888h-.05V17.763l4.271-1.071.176-.542a15.116,15.116,0,0,1,.932-2.217l.265-.517-2.268-3.792L189.5,5.48l3.792,2.268.517-.265a15.713,15.713,0,0,1,2.217-.932l.542-.176L197.639,2.1H203.5l1.071,4.271.542.176a15.848,15.848,0,0,1,2.23.932l.517.265,3.792-2.268,4.157,4.145-2.268,3.792.265.517a15.715,15.715,0,0,1,.932,2.217l.176.542,4.271,1.071v5.858l-4.271,1.071-.176.542a14.565,14.565,0,0,1-.932,2.217l-.265.517Z" transform="translate(-157.235 -0.05)" fill="#9c3d10"/>
        <rect id="Rectangle_1680" data-name="Rectangle 1680" width="2.167" height="2.066" transform="translate(22.665 57.613)" fill="#9c3d10"/>
        <rect id="Rectangle_1681" data-name="Rectangle 1681" width="2.167" height="2.066" transform="translate(10.708 51.766) rotate(45)" fill="#9c3d10"/>
        <rect id="Rectangle_1682" data-name="Rectangle 1682" width="2.066" height="2.167" transform="translate(4.321 39.181)" fill="#9c3d10"/>
        <rect id="Rectangle_1683" data-name="Rectangle 1683" width="2.066" height="2.167" transform="translate(36.776 51.754) rotate(45)" fill="#9c3d10"/>
        <rect id="Rectangle_1684" data-name="Rectangle 1684" width="2.167" height="2.066" transform="translate(9.244 27.3) rotate(-45)" fill="#9c3d10"/>
        <path id="Path_1197" data-name="Path 1197" d="M46.7,165.633l-.5-2-5.77,1.436-.176.542a17.468,17.468,0,0,1-1.083,2.6l-.265.517,2.646,4.422-4.964,4.989-4.422-2.646-.517.265a17.467,17.467,0,0,1-2.6,1.083l-.542.176L27.263,182H20.22l-1.247-4.989-.542-.176a16.927,16.927,0,0,1-2.6-1.083l-.517-.265L10.9,178.131l-4.976-4.976,2.646-4.422-.265-.517a18.042,18.042,0,0,1-1.083-2.6l-.176-.542-4.989-1.247v-7.043l4.989-1.247L7.219,155a17.467,17.467,0,0,1,1.083-2.6l.265-.5-2.646-4.422L10.9,142.5l4.422,2.646.517-.265a17.468,17.468,0,0,1,2.6-1.083l.542-.176,1.436-5.77-2-.5-1.172,4.661a17.768,17.768,0,0,0-1.839.769l-4.825-2.9-7.257,7.257,2.9,4.825c-.29.617-.554,1.235-.769,1.839L0,155.177v10.268l5.443,1.361a17.768,17.768,0,0,0,.769,1.839l-2.9,4.825,7.269,7.257,4.825-2.9a19.006,19.006,0,0,0,1.839.769l1.361,5.443H28.876l1.361-5.443a17.772,17.772,0,0,0,1.839-.769l4.825,2.9,7.257-7.257-2.9-4.825c.29-.617.554-1.235.769-1.839Z" transform="translate(0 -120.052)" fill="#9c3d10"/>
        <path id="Path_1198" data-name="Path 1198" d="M97.894,219.5l-.151-2.054A12.919,12.919,0,1,0,111.6,231.321l-2.054-.151A10.857,10.857,0,1,1,97.894,219.5Z" transform="translate(-74.991 -190.061)" fill="#9c3d10"/>
        <path id="Path_1199" data-name="Path 1199" d="M265.351,73.75A11.351,11.351,0,1,0,276.7,85.1,11.361,11.361,0,0,0,265.351,73.75Zm0,20.649a9.285,9.285,0,1,1,9.285-9.285A9.294,9.294,0,0,1,265.351,94.4Z" transform="translate(-222 -64.465)" fill="#9c3d10"/>
      </g>
    </g>
  </g>
</svg>
