<svg xmlns="http://www.w3.org/2000/svg" width="60.186" height="60.332" viewBox="0 0 60.186 60.332">
  <g id="warranty" transform="translate(-0.604)">
    <g id="Group_2071" data-name="Group 2071" transform="translate(0.604)">
      <g id="Group_2070" data-name="Group 2070" transform="translate(0)">
        <path id="Path_1109" data-name="Path 1109" d="M57.11,29.122a12.083,12.083,0,0,1-10.075-5.392l-.808-1.211-.808,1.211a12.083,12.083,0,0,1-10.075,5.392H31.667V44.688a12.647,12.647,0,0,0,4.525,9.672H16.135V50.477H28.755V33H8.37V40.77H2.545V1.941H45.257V19.414H47.2V0H.6V42.143L14.763,56.3H39.175l7.052,4.029,8.2-4.687a12.647,12.647,0,0,0,6.358-10.956V29.122ZM14.194,52.988,3.918,42.712H14.194V52.988ZM10.311,40.77V34.946h16.5v13.59H16.135V40.77Zm48.536,3.918a10.7,10.7,0,0,1-5.38,9.271L46.228,58.1l-7.24-4.137a10.7,10.7,0,0,1-5.38-9.271V31.063h1.737A14.02,14.02,0,0,0,46.228,25.9,14.02,14.02,0,0,0,57.11,31.063h1.737Z" transform="translate(-0.604)" fill="#9f5012"/>
      </g>
    </g>
    <g id="Group_2073" data-name="Group 2073" transform="translate(51.54 38.829)">
      <g id="Group_2072" data-name="Group 2072" transform="translate(0)">
        <path id="Path_1110" data-name="Path 1110" d="M423.812,320v5.859a6.811,6.811,0,0,1-3.424,5.9l.963,1.685a8.755,8.755,0,0,0,4.4-7.585V320Z" transform="translate(-420.388 -320)" fill="#9f5012"/>
      </g>
    </g>
    <g id="Group_2075" data-name="Group 2075" transform="translate(6.428 3.883)">
      <g id="Group_2074" data-name="Group 2074">
        <path id="Path_1111" data-name="Path 1111" d="M48.6,32v5.824H83.55V32Zm33,3.883H50.545V33.941H81.608Z" transform="translate(-48.604 -32)" fill="#9f5012"/>
      </g>
    </g>
    <g id="Group_2077" data-name="Group 2077" transform="translate(36.805 33.289)">
      <g id="Group_2076" data-name="Group 2076" transform="translate(0)">
        <path id="Path_1112" data-name="Path 1112" d="M316.421,274.344l-12.9,12.9-3.2-3.2-1.373,1.373,4.569,4.569,14.276-14.276Z" transform="translate(-298.948 -274.344)" fill="#9f5012"/>
      </g>
    </g>
    <g id="Group_2079" data-name="Group 2079" transform="translate(11.947 36.469)">
      <g id="Group_2078" data-name="Group 2078" transform="translate(0 0)">
        <rect id="Rectangle_1656" data-name="Rectangle 1656" width="13" height="2" transform="translate(-0.252 0.094)" fill="#9f5012"/>
      </g>
    </g>
    <g id="Group_2081" data-name="Group 2081" transform="translate(17.913 40.729)">
      <g id="Group_2080" data-name="Group 2080" transform="translate(0 0)">
        <rect id="Rectangle_1657" data-name="Rectangle 1657" width="7" height="2" transform="translate(-0.217 -0.168)" fill="#9f5012"/>
      </g>
    </g>
    <g id="Group_2083" data-name="Group 2083" transform="translate(17.913 44.992)">
      <g id="Group_2082" data-name="Group 2082" transform="translate(0 0)">
        <rect id="Rectangle_1658" data-name="Rectangle 1658" width="7" height="2" transform="translate(-0.217 -0.43)" fill="#9f5012"/>
      </g>
    </g>
    <g id="Group_2085" data-name="Group 2085" transform="translate(6.834 13.458)">
      <g id="Group_2084" data-name="Group 2084" transform="translate(0 0)">
        <rect id="Rectangle_1659" data-name="Rectangle 1659" width="31" height="2" transform="translate(-0.139 0.104)" fill="#9f5012"/>
      </g>
    </g>
    <g id="Group_2087" data-name="Group 2087" transform="translate(6.834 17.72)">
      <g id="Group_2086" data-name="Group 2086" transform="translate(0 0)">
        <rect id="Rectangle_1660" data-name="Rectangle 1660" width="31" height="2" transform="translate(-0.139 -0.158)" fill="#9f5012"/>
      </g>
    </g>
    <g id="Group_2089" data-name="Group 2089" transform="translate(6.834 21.128)">
      <g id="Group_2088" data-name="Group 2088" transform="translate(0 0)">
        <rect id="Rectangle_1661" data-name="Rectangle 1661" width="31" height="2" transform="translate(-0.139 0.434)" fill="#9f5012"/>
      </g>
    </g>
    <g id="Group_2091" data-name="Group 2091" transform="translate(6.834 25.389)">
      <g id="Group_2090" data-name="Group 2090" transform="translate(0 0)">
        <rect id="Rectangle_1662" data-name="Rectangle 1662" width="18" height="2" transform="translate(-0.139 0.172)" fill="#9f5012"/>
      </g>
    </g>
    <g id="Group_2093" data-name="Group 2093" transform="translate(6.834 28.799)">
      <g id="Group_2092" data-name="Group 2092" transform="translate(0 0)">
        <rect id="Rectangle_1663" data-name="Rectangle 1663" width="18" height="3" transform="translate(-0.139 -0.238)" fill="#9f5012"/>
      </g>
    </g>
    <g id="Group_2095" data-name="Group 2095" transform="translate(39.219 13.458)">
      <g id="Group_2094" data-name="Group 2094" transform="translate(0 0)">
        <rect id="Rectangle_1664" data-name="Rectangle 1664" width="2" height="2" transform="translate(0.477 0.104)" fill="#9f5012"/>
      </g>
    </g>
    <g id="Group_2097" data-name="Group 2097" transform="translate(39.219 17.72)">
      <g id="Group_2096" data-name="Group 2096" transform="translate(0 0)">
        <rect id="Rectangle_1665" data-name="Rectangle 1665" width="2" height="2" transform="translate(0.477 -0.158)" fill="#9f5012"/>
      </g>
    </g>
    <g id="Group_2099" data-name="Group 2099" transform="translate(39.219 21.128)">
      <g id="Group_2098" data-name="Group 2098" transform="translate(0 0)">
        <rect id="Rectangle_1666" data-name="Rectangle 1666" width="2" height="2" transform="translate(0.477 0.434)" fill="#9f5012"/>
      </g>
    </g>
    <g id="Group_2101" data-name="Group 2101" transform="translate(26.435 25.389)">
      <g id="Group_2100" data-name="Group 2100" transform="translate(0 0)">
        <rect id="Rectangle_1667" data-name="Rectangle 1667" width="2" height="2" transform="translate(0.262 0.172)" fill="#9f5012"/>
      </g>
    </g>
    <g id="Group_2103" data-name="Group 2103" transform="translate(26.435 28.799)">
      <g id="Group_2102" data-name="Group 2102" transform="translate(0 0)">
        <rect id="Rectangle_1668" data-name="Rectangle 1668" width="2" height="3" transform="translate(0.262 -0.238)" fill="#9f5012"/>
      </g>
    </g>
  </g>
</svg>
