<svg xmlns="http://www.w3.org/2000/svg" width="58.563" height="48.188" viewBox="0 0 58.563 48.188">
  <g id="web-development" transform="translate(0 -43.406)">
    <path id="Path_1177" data-name="Path 1177" d="M57.368,43.407H1.2A1.2,1.2,0,0,0,0,44.6V90.4a1.2,1.2,0,0,0,1.2,1.2H57.368a1.2,1.2,0,0,0,1.2-1.2V44.6A1.2,1.2,0,0,0,57.368,43.407Zm-1.2,2.39V53H2.39V45.8ZM2.39,89.2V55.386H56.173V89.2Z" fill="#9f5012"/>
    <path id="Path_1178" data-name="Path 1178" d="M76.869,193.946H67.312a1.2,1.2,0,0,0-1.2,1.2v9.68a1.2,1.2,0,0,0,1.2,1.2h9.557a1.2,1.2,0,0,0,1.2-1.2v-9.68A1.2,1.2,0,0,0,76.869,193.946Zm-1.2,9.68H68.507v-7.29h7.167Z" transform="translate(-58.215 -132.547)" fill="#9f5012"/>
    <path id="Path_1179" data-name="Path 1179" d="M195.48,206.017h9.557a1.2,1.2,0,0,0,1.2-1.2v-9.68a1.2,1.2,0,0,0-1.2-1.2H195.48a1.2,1.2,0,0,0-1.2,1.2v9.68A1.2,1.2,0,0,0,195.48,206.017Zm1.2-9.68h7.166v7.29h-7.166Z" transform="translate(-171.065 -132.547)" fill="#9f5012"/>
    <path id="Path_1180" data-name="Path 1180" d="M323.65,206.017h9.557a1.2,1.2,0,0,0,1.2-1.2v-9.68a1.2,1.2,0,0,0-1.2-1.2H323.65a1.2,1.2,0,0,0-1.2,1.2v9.68A1.2,1.2,0,0,0,323.65,206.017Zm1.2-9.68h7.167v7.29h-7.167Z" transform="translate(-283.916 -132.547)" fill="#9f5012"/>
    <path id="Path_1181" data-name="Path 1181" d="M76.869,320.317H67.312a1.2,1.2,0,0,0,0,2.39h9.557a1.2,1.2,0,0,0,0-2.39Z" transform="translate(-58.215 -243.815)" fill="#9f5012"/>
    <path id="Path_1182" data-name="Path 1182" d="M76.869,357.317H67.312a1.2,1.2,0,0,0,0,2.39h9.557a1.2,1.2,0,0,0,0-2.39Z" transform="translate(-58.215 -276.392)" fill="#9f5012"/>
    <path id="Path_1183" data-name="Path 1183" d="M205.772,320.317h-9.557a1.2,1.2,0,1,0,0,2.39h9.557a1.2,1.2,0,1,0,0-2.39Z" transform="translate(-171.712 -243.815)" fill="#9f5012"/>
    <path id="Path_1184" data-name="Path 1184" d="M205.772,357.317h-9.557a1.2,1.2,0,1,0,0,2.39h9.557a1.2,1.2,0,1,0,0-2.39Z" transform="translate(-171.712 -276.392)" fill="#9f5012"/>
    <path id="Path_1185" data-name="Path 1185" d="M334.67,320.317h-9.557a1.2,1.2,0,0,0,0,2.39h9.557a1.2,1.2,0,0,0,0-2.39Z" transform="translate(-285.204 -243.815)" fill="#9f5012"/>
    <path id="Path_1186" data-name="Path 1186" d="M334.67,357.317h-9.557a1.2,1.2,0,0,0,0,2.39h9.557a1.2,1.2,0,0,0,0-2.39Z" transform="translate(-285.204 -276.392)" fill="#9f5012"/>
    <path id="Path_1187" data-name="Path 1187" d="M67.312,85.689h.59a1.2,1.2,0,0,0,0-2.39h-.59a1.2,1.2,0,0,0,0,2.39Z" transform="translate(-58.215 -35.124)" fill="#9f5012"/>
    <path id="Path_1188" data-name="Path 1188" d="M108.779,85.689h.59a1.2,1.2,0,1,0,0-2.39h-.59a1.2,1.2,0,1,0,0,2.39Z" transform="translate(-94.726 -35.124)" fill="#9f5012"/>
    <path id="Path_1189" data-name="Path 1189" d="M150.244,85.689h.589a1.2,1.2,0,1,0,0-2.39h-.589a1.2,1.2,0,1,0,0,2.39Z" transform="translate(-131.235 -35.124)" fill="#9f5012"/>
  </g>
</svg>
