<svg xmlns="http://www.w3.org/2000/svg" width="51.074" height="51.063" viewBox="0 0 51.074 51.063">
  <g id="wrench" transform="translate(0 -0.057)">
    <g id="Group_2068" data-name="Group 2068" transform="translate(0 0.056)">
      <path id="Path_1100" data-name="Path 1100" d="M46.592,34.366a8.912,8.912,0,0,0-6.249-1.028l-7.753-7.75,7.759-7.756A8.976,8.976,0,0,0,50.765,6.705,8.977,8.977,0,0,0,33.29,10.788l-7.753,7.75-.629-.629a1,1,0,0,0-1.41,1.411l.629.629-4.232,4.23L12.454,16.74l4.228-4.233.467.466a1,1,0,0,0,1.41-1.411l-.781-.78A8.978,8.978,0,0,0,5.029.976c-.892.435-1.357,1-1.38,1.672a1.939,1.939,0,0,0,1.19,1.7L7.517,5.9c.456.263.456.391.456.622V7.666c0,.715-.071.838-.69,1.2l-.993.573c-.194.112-.311.18-.768-.084L2.844,7.805A1.94,1.94,0,0,0,.772,7.627,2.033,2.033,0,0,0,.014,9.658a8.978,8.978,0,0,0,10.716,8.18l7.753,7.75-7.759,7.756a8.974,8.974,0,1,0,7.059,7.045l7.753-7.75L33.3,40.394A8.977,8.977,0,0,0,46.045,50.2c.892-.435,1.357-1,1.38-1.672a1.939,1.939,0,0,0-1.19-1.7l-2.678-1.545c-.456-.263-.456-.391-.456-.622V43.51c0-.715.071-.838.69-1.2l.993-.573c.194-.112.311-.18.768.084l2.678,1.545a1.94,1.94,0,0,0,2.072.178,2.033,2.033,0,0,0,.758-2.031,8.967,8.967,0,0,0-4.467-7.152ZM5.479,15.082A6.975,6.975,0,0,1,2.013,9.629l2.511,1.449a2.574,2.574,0,0,0,2.762.084l.993-.573A2.939,2.939,0,0,0,9.968,7.666V6.52A2.572,2.572,0,0,0,8.514,4.17L6,2.721a6.982,6.982,0,0,1,9.776,7.867l-5.244,5.25a6.932,6.932,0,0,1-5.056-.756ZM36.047,5.539a6.982,6.982,0,1,1,4.5,10.295l-5.253-5.242a6.924,6.924,0,0,1,.756-5.053Zm-21.019,40.1a6.982,6.982,0,1,1-4.5-10.3l5.253,5.242a6.925,6.925,0,0,1-.756,5.053Zm1.658-6.972L12.45,34.44,34.389,12.51l4.235,4.226Zm10.263-7.438L31.179,27l7.441,7.438-4.228,4.233Zm19.6,8.87a2.574,2.574,0,0,0-2.762-.084l-.993.573a2.939,2.939,0,0,0-1.688,2.923v1.147a2.573,2.573,0,0,0,1.454,2.35l2.51,1.449A6.982,6.982,0,0,1,35.3,40.588l5.243-5.25a6.979,6.979,0,0,1,8.523,6.209Z" transform="translate(0 -0.056)" fill="#9f5000"/>
      <path id="Path_1101" data-name="Path 1101" d="M382.512,52.42l2.992,1.727a1,1,0,0,0,1,0l2.992-1.727a1,1,0,0,0,.5-.864V48.1a1,1,0,0,0-.5-.864L386.5,45.511a1,1,0,0,0-1,0l-2.992,1.727a1,1,0,0,0-.5.864v3.454A1,1,0,0,0,382.512,52.42Zm1.5-3.742L386,47.527,388,48.678v2.3L386,52.131l-1.995-1.151Z" transform="translate(-343.909 -40.857)" fill="#9f5000"/>
      <path id="Path_1102" data-name="Path 1102" d="M57.519,379.282l-2.992-1.727a1,1,0,0,0-1,0l-2.992,1.727a1,1,0,0,0-.5.864V383.6a1,1,0,0,0,.5.864l2.992,1.727a1,1,0,0,0,1,0l2.992-1.727a1,1,0,0,0,.5-.864v-3.454A1,1,0,0,0,57.519,379.282Zm-1.5,3.742-1.995,1.151-1.995-1.151v-2.3l1.995-1.151,1.995,1.151Z" transform="translate(-45.047 -339.781)" fill="#9f5000"/>
      <path id="Path_1103" data-name="Path 1103" d="M201.815,146.29a1,1,0,1,0,0-1.995h0a1,1,0,0,0,0,1.995Z" transform="translate(-180.786 -129.908)" fill="#9f5000"/>
    </g>
  </g>
</svg>
