<svg id="Layer_1" data-name="Layer 1" xmlns="http://www.w3.org/2000/svg" viewBox="0 0 500 500"><defs><style>.cls-1{fill:#fff;}</style></defs><path class="cls-1" d="M139.74,357.32h-6v-4H150v4h-6V373h-4.31Z"/><path class="cls-1" d="M152.75,353.34h9a7.81,7.81,0,0,1,5.72,2,6.18,6.18,0,0,1,1.68,4.49v.05a6.1,6.1,0,0,1-4.2,6.08l4.79,7h-5l-4.2-6.27h-3.39V373h-4.31Zm8.68,9.53c2.1,0,3.31-1.12,3.31-2.78v0c0-1.85-1.29-2.8-3.39-2.8h-4.29v5.63Z"/><path class="cls-1" d="M179.14,353.2h4L191.53,373H187l-1.8-4.39h-8.29L175.14,373h-4.4Zm4.54,11.55-2.6-6.36-2.61,6.36Z"/><path class="cls-1" d="M194,353.34h4l9.19,12.08V353.34h4.26V373h-3.67l-9.5-12.46V373H194Z"/><path class="cls-1" d="M214.18,370.1l2.55-3.06a9,9,0,0,0,5.85,2.38c1.77,0,2.83-.7,2.83-1.85v-.05c0-1.09-.67-1.65-3.95-2.5-4-1-6.5-2.09-6.5-6V359c0-3.56,2.86-5.91,6.86-5.91a11.35,11.35,0,0,1,7.29,2.5l-2.24,3.25a9.19,9.19,0,0,0-5.1-1.94c-1.65,0-2.52.76-2.52,1.71v.06c0,1.29.84,1.71,4.23,2.57,4,1,6.22,2.47,6.22,5.89v0c0,3.9-3,6.08-7.2,6.08A12.47,12.47,0,0,1,214.18,370.1Z"/><path class="cls-1" d="M232.87,353.34h8c4.67,0,7.51,2.78,7.51,6.78v.06c0,4.54-3.54,6.89-7.93,6.89h-3.28V373h-4.32Zm7.74,9.89c2.15,0,3.41-1.29,3.41-3v-.05c0-1.94-1.34-3-3.5-3h-3.33v6Z"/><path class="cls-1" d="M255.77,353.2h4L268.16,373h-4.52l-1.79-4.39h-8.29L251.77,373h-4.4Zm4.54,11.55-2.61-6.36-2.6,6.36Z"/><path class="cls-1" d="M270.6,353.34h9a7.81,7.81,0,0,1,5.72,2,6.18,6.18,0,0,1,1.68,4.49v.05a6.1,6.1,0,0,1-4.2,6.08l4.79,7H282.5l-4.2-6.27h-3.39V373H270.6Zm8.68,9.53c2.1,0,3.31-1.12,3.31-2.78v0c0-1.85-1.29-2.8-3.39-2.8h-4.29v5.63Z"/><path class="cls-1" d="M290.27,353.34h14.8v3.84H294.56v4h9.25V365h-9.25v4.12h10.65V373H290.27Z"/><path class="cls-1" d="M308.47,353.34h4l9.19,12.08V353.34h4.26V373h-3.67l-9.5-12.46V373h-4.25Z"/><path class="cls-1" d="M329.14,363.2v-.05A10,10,0,0,1,339.37,353a10.12,10.12,0,0,1,7.73,3l-2.74,3.17a7.27,7.27,0,0,0-5-2.22,5.81,5.81,0,0,0-5.68,6.11v.06c0,3.36,2.32,6.16,5.68,6.16a7.11,7.11,0,0,0,5.16-2.3l2.74,2.78a10,10,0,0,1-8,3.5A9.91,9.91,0,0,1,329.14,363.2Z"/><path class="cls-1" d="M355.35,365.22l-7.54-11.88h5l4.68,7.87,4.76-7.87h4.91l-7.54,11.8V373h-4.31Z"/><path class="cls-1" d="M336,328.58h6v1.57H337.7v1.66h3.74v1.57H337.7v3H336Z"/><path class="cls-1" d="M343.1,328.58h3.2a2.69,2.69,0,0,1,3,2.71v0c0,1.81-1.41,2.75-3.17,2.75h-1.31v2.35H343.1Zm3.09,3.95a1.21,1.21,0,0,0,1.36-1.18v0c0-.77-.54-1.18-1.4-1.18h-1.33v2.39Z"/><path class="cls-1" d="M350,332.52v0a4.22,4.22,0,0,1,7.17-2.84l-1.09,1.26a2.89,2.89,0,0,0-2-.88,2.32,2.32,0,0,0-2.28,2.44v0a2.33,2.33,0,0,0,2.28,2.46,2.81,2.81,0,0,0,2.05-.92l1.1,1.11a4,4,0,0,1-3.21,1.4A4,4,0,0,1,350,332.52Z"/><path class="cls-1" d="M358.14,334.62H360v1.79h-1.81Z"/><path class="cls-1" d="M360.57,332.52v0a4,4,0,0,1,4.11-4.05,4.29,4.29,0,0,1,3.07,1.07l-1.08,1.31a2.89,2.89,0,0,0-2.05-.79,2.36,2.36,0,0,0-2.25,2.44v0a2.35,2.35,0,0,0,2.38,2.48,2.72,2.72,0,0,0,1.62-.47v-1.12h-1.74V331.9H368v3.41a5.07,5.07,0,0,1-3.34,1.24A3.92,3.92,0,0,1,360.57,332.52Z"/><path class="cls-1" d="M369.12,332.52v0a4.17,4.17,0,0,1,8.33,0v0a4.17,4.17,0,0,1-8.33,0Zm6.53,0v0a2.38,2.38,0,0,0-2.37-2.46,2.34,2.34,0,0,0-2.35,2.44v0A2.38,2.38,0,0,0,373.3,335,2.34,2.34,0,0,0,375.65,332.52Z"/><path class="cls-1" d="M377.59,328.58h1.9l2,5.52,2.05-5.52h1.86l-3.16,7.89h-1.53Z"/><path class="cls-1" d="M383.29,155.44H293.44a47.21,47.21,0,0,0-86.88,0H116.71a6.09,6.09,0,0,0-6.08,6.08V316.89a6.09,6.09,0,0,0,6.08,6.08H383.29a6.09,6.09,0,0,0,6.08-6.08V161.52A6.09,6.09,0,0,0,383.29,155.44ZM250,132.31a41.57,41.57,0,0,1,17.21,79.43H242.3V202.8h22.09v-2H242.3v-2.12h22.09v-1.95H242.3V195h8.8v-6.82h-8.8v-1.37h-2.8v24.9h-6.71A41.57,41.57,0,0,1,250,132.31Zm9.08,167.47V259.36h10.8v40.42Zm-27,0V259.36h10.8v40.42Zm45.75-46H224.12v-4.42h53.71Zm-56.36,5.6h5v40.42h-5Zm27,0h5v40.42h-5Zm27,0h5v40.42h-5Zm10.61,0h9v-5.6H283.43v-10h-64.9v10H206.91v5.6h9v31.73H199.05V217.34H302.91v73.75H286.08Zm97.69,57.53a.49.49,0,0,1-.48.48H116.71a.49.49,0,0,1-.48-.48V161.52a.49.49,0,0,1,.48-.48h87.91A46.76,46.76,0,0,0,222,211.74H181.72v5.6h11.73v11.37H173.33v68h42.55v3.09h-9v5.6H295v-5.6h-9v-3.09h42.55v-68H308.5V217.34h11.23v-5.6H278.05A46.76,46.76,0,0,0,295.38,161h87.91a.49.49,0,0,1,.48.48ZM193.45,234.31v56.78H178.93V234.31ZM308.5,291.09V234.31H323v56.78ZM224.12,229v4a2.8,2.8,0,1,1-5.59,0v-4a2.8,2.8,0,0,1,5.59,0Zm19.77,0v4a2.8,2.8,0,1,1-5.59,0v-4a2.8,2.8,0,0,1,5.59,0Zm19.77,0v4a2.8,2.8,0,1,1-5.59,0v-4a2.8,2.8,0,0,1,5.59,0Zm19.77,0v4a2.8,2.8,0,1,1-5.6,0v-4a2.8,2.8,0,0,1,5.6,0Zm-30.79-40.35h11.75v1.95H252.64Zm0,4.07h11.75v2H252.64Zm13.85-32.19a1.14,1.14,0,0,1,.77-.65l9.54-2.33a1.24,1.24,0,0,1,.27,0,1.12,1.12,0,0,1,.8,1.89l-6.79,7.1a1.1,1.1,0,0,1-.8.34h-.14a1.08,1.08,0,0,1-.83-.55l-2.75-4.77A1.12,1.12,0,0,1,266.49,160.5Zm1.61,13.73a18.1,18.1,0,0,0-36.2,0,17.25,17.25,0,0,0,.56,4.22,43.33,43.33,0,0,0-10.09,6.23l3.57,4.3a37.79,37.79,0,0,1,48.12-.06l3.57-4.32a43.21,43.21,0,0,0-10.08-6.18A17,17,0,0,0,268.1,174.23Zm-5.84,2.27a42.43,42.43,0,0,0-24.52,0,12.26,12.26,0,0,1-.24-2.29,12.5,12.5,0,0,1,25,0A12.14,12.14,0,0,1,262.26,176.5Zm-40.13-17.12a1.12,1.12,0,0,1,.8-1.89,1.24,1.24,0,0,1,.27,0l9.54,2.33a1.14,1.14,0,0,1,.77.65,1.12,1.12,0,0,1-.07,1l-2.75,4.77a1.08,1.08,0,0,1-.83.55h-.13a1.11,1.11,0,0,1-.81-.34ZM235.62,157l-2.33-9.54a1.11,1.11,0,0,1,.53-1.23,1.08,1.08,0,0,1,.55-.15,1.1,1.1,0,0,1,.78.31l7.09,6.79a1.1,1.1,0,0,1,.34.94,1.08,1.08,0,0,1-.55.83l-4.77,2.76a1.18,1.18,0,0,1-.55.14,1.12,1.12,0,0,1-.44-.09A1.08,1.08,0,0,1,235.62,157ZM258,154.92a1.08,1.08,0,0,1-.55-.83,1.1,1.1,0,0,1,.34-.94l7.1-6.79a1.12,1.12,0,0,1,.77-.31,1.15,1.15,0,0,1,.56.15,1.12,1.12,0,0,1,.52,1.23L264.38,157a1.12,1.12,0,0,1-.65.77,1.32,1.32,0,0,1-.44.08,1.18,1.18,0,0,1-.55-.14Zm-11.62-1.84a1.11,1.11,0,0,1-.17-1l2.75-9.43a1.11,1.11,0,0,1,2.14,0l2.76,9.43a1.11,1.11,0,0,1-1.08,1.42h-5.5A1.14,1.14,0,0,1,246.35,153.08Zm-28.72,21.15a1.12,1.12,0,0,1,.81-1.07l9.43-2.75a1.06,1.06,0,0,1,.31,0,1.13,1.13,0,0,1,.67.23,1.11,1.11,0,0,1,.44.89V177a1.13,1.13,0,0,1-.44.9,1.17,1.17,0,0,1-.67.22.81.81,0,0,1-.31,0l-9.43-2.75A1.11,1.11,0,0,1,217.63,174.23Zm54.5-3.82,9.44,2.75a1.12,1.12,0,0,1,0,2.14l-9.44,2.75a.81.81,0,0,1-.31,0,1.17,1.17,0,0,1-.67-.22,1.13,1.13,0,0,1-.44-.9v-5.5a1.12,1.12,0,0,1,1.11-1.12A1.06,1.06,0,0,1,272.13,170.41Z"/></svg>