<svg id="Layer_1" data-name="Layer 1" xmlns="http://www.w3.org/2000/svg" viewBox="0 0 500 500"><defs><style>.cls-1{fill:#fff;}</style></defs><path class="cls-1" d="M168,338v-.06a10.42,10.42,0,0,0-20.84.06v.05a10,10,0,0,0,10.39,10.09,10.72,10.72,0,0,0,5.83-1.68l2.16,1.93,2.74-3.05-2-1.71A10.09,10.09,0,0,0,168,338Zm-4.51.05a6.79,6.79,0,0,1-.53,2.69l-3.22-2.91L157,340.91l3.2,2.72a6,6,0,0,1-8.52-5.63v-.06a5.87,5.87,0,0,1,5.88-6.11,6,6,0,0,1,5.94,6.17Zm16,10.06c-5.27,0-8.49-2.94-8.49-8.71V328.19h4.31v11.1c0,3.19,1.6,4.84,4.23,4.84s4.23-1.59,4.23-4.71V328.19H188v11.07C188,345.2,184.66,348.11,179.4,348.11Zm16.23-4.71h8.29l1.79,4.4h4.51l-8.4-19.75h-4l-8.41,19.75h4.41Zm4.14-10.17,2.61,6.36h-5.21Zm17.21-5v15.69h9.78v3.92H212.67V328.19Zm17,0V347.8h-4.31V328.19Zm8.9,19.61V332.17h-6v-4h16.25v4h-6V347.8Zm18.53,0v-7.73l-7.54-11.88h5l4.68,7.87,4.76-7.87h4.9L265.68,340v7.81Zm28.52-19.75-8.41,19.75h4.4l1.79-4.4H296l1.8,4.4h4.51l-8.4-19.75Zm-.68,11.54,2.61-6.36,2.6,6.36ZM309,347.8h-4.26V328.19h4l9.19,12.08V328.19h4.26V347.8h-3.67L309,335.34Zm24.94-19.61h-7.65V347.8h7.65c6.16,0,10.42-4.28,10.42-9.8v-.06C344.33,332.42,340.07,328.19,333.91,328.19Zm5.91,9.86a5.59,5.59,0,0,1-5.91,5.86h-3.33V332.09h3.33a5.63,5.63,0,0,1,5.91,5.91ZM171.43,356.18h4.31v19.61h-4.31Zm21.81,0h4.26v19.61h-3.67l-9.5-12.47v12.47h-4.25V356.18h4l9.19,12.07Zm7,0h16.24v4h-6v15.63h-4.32V360.16h-6ZM223.48,372h10.65v3.84H219.2V356.18H234V360H223.48v4h9.25v3.83h-9.25Zm23.21-7.45h8.52V373a12.68,12.68,0,0,1-8.38,3.11c-6.11,0-10.31-4.28-10.31-10.08V366a10.07,10.07,0,0,1,10.28-10.14,10.82,10.82,0,0,1,7.71,2.69l-2.72,3.28a7.22,7.22,0,0,0-5.12-2,5.89,5.89,0,0,0-5.64,6.11V366A5.87,5.87,0,0,0,247,372.2,6.83,6.83,0,0,0,251,371v-2.79h-4.34Zm28.44-1.79v-.06a6.11,6.11,0,0,0-1.68-4.48,7.8,7.8,0,0,0-5.71-2h-9v19.61h4.32v-6.28h3.39l4.2,6.28h5l-4.79-7A6.07,6.07,0,0,0,275.13,362.71Zm-4.36.22c0,1.65-1.21,2.77-3.31,2.77h-4.37v-5.63h4.29c2.1,0,3.39.95,3.39,2.8Zm7.87-6.75H283v19.61h-4.31Zm7.25,0h16.25v4h-6v15.63h-4.31V360.16h-6Zm31.44,0h4.9L314.7,368v7.82h-4.32v-7.73l-7.53-11.88h5l4.68,7.87Zm22.12-58.86V299h3.74v1.57h-3.74v3h-1.72v-7.84h6v1.57Zm8.6-1.57h-3.2v7.84h1.72v-2.35h1.31c1.76,0,3.17-.94,3.17-2.76v0A2.68,2.68,0,0,0,348.05,295.75Zm1.25,2.77a1.21,1.21,0,0,1-1.36,1.18h-1.37v-2.39h1.33c.87,0,1.4.41,1.4,1.18Zm8.59,2.69,1.1,1.11a4,4,0,0,1-3.21,1.4,4,4,0,0,1-4-4v0a4,4,0,0,1,4.08-4.05,4,4,0,0,1,3.09,1.21l-1.1,1.26a2.85,2.85,0,0,0-2-.88,2.32,2.32,0,0,0-2.27,2.44v0a2.32,2.32,0,0,0,2.27,2.46A2.83,2.83,0,0,0,357.89,301.21Zm2,.59h1.81v1.79H359.9Zm6.49-2.72h3.4v3.4a5.09,5.09,0,0,1-3.34,1.24,3.93,3.93,0,0,1-4.13-4v0a4,4,0,0,1,4.11-4.05,4.33,4.33,0,0,1,3.08,1.07L368.42,298a2.86,2.86,0,0,0-2-.79,2.35,2.35,0,0,0-2.25,2.44v0a2.34,2.34,0,0,0,2.37,2.48,2.7,2.7,0,0,0,1.62-.47v-1.11h-1.73Zm8.66-3.46a4,4,0,0,0-4.17,4.05v0a4.16,4.16,0,0,0,8.32,0v0A4,4,0,0,0,375.05,295.62Zm2.35,4.07a2.34,2.34,0,0,1-2.35,2.44,2.38,2.38,0,0,1-2.37-2.46v0a2.34,2.34,0,0,1,2.35-2.44,2.38,2.38,0,0,1,2.37,2.46Zm7.94-3.94h1.85L384,303.64H382.5l-3.16-7.89h1.9l2.05,5.52Zm-197.56-83.1a21.27,21.27,0,1,0-21.27-21.27A21.29,21.29,0,0,0,187.78,212.65Zm0-36.94a15.67,15.67,0,1,1-15.67,15.67A15.69,15.69,0,0,1,187.78,175.71Zm40.31,73.38h-5.75V234.84c0-10.7-9.51-19.41-21.2-19.41H174.41c-11.68,0-21.19,8.71-21.19,19.41v14.25h-5.75v5.6h80.62Zm-69.27-14.25c0-7.62,7-13.81,15.59-13.81h26.73c8.61,0,15.6,6.19,15.6,13.81v14.25H158.82Zm174.9-34.67a2.8,2.8,0,0,1-2.8,2.8H267a2.8,2.8,0,1,1,0-5.6h63.88A2.8,2.8,0,0,1,333.72,200.17Zm0,16.1a2.8,2.8,0,0,1-2.8,2.8H267a2.8,2.8,0,0,1,0-5.6h63.88A2.8,2.8,0,0,1,333.72,216.27Zm49-92.39H117.26a6.08,6.08,0,0,0-6.08,6.08V285.32a6.09,6.09,0,0,0,6.08,6.08H302.44v20.41a3.74,3.74,0,0,0,3.75,3.76,3.62,3.62,0,0,0,1.41-.28l9.5-7.53,8.79,7.12.72.42a3.76,3.76,0,0,0,5.16-3.49V291.4h51a6.09,6.09,0,0,0,6.09-6.08V130A6.09,6.09,0,0,0,382.73,123.88ZM298.12,240.07a6,6,0,0,1,6.36-5.9,11.88,11.88,0,0,0,8.46-3.7,5.9,5.9,0,0,1,8.33,0l.33.33a11.87,11.87,0,0,0,8.59,3.37,6,6,0,0,1,5.9,6.36,11.7,11.7,0,0,0,3.7,8.46,6,6,0,0,1-.34,8.67,11.69,11.69,0,0,0-3.36,8.59c0,3.25-2.64,5.89-6.36,5.89a11.88,11.88,0,0,0-8.46,3.7c-2.29,2.3-6,2.3-8.67-.33a11.85,11.85,0,0,0-8.59-3.37c-3.25,0-5.89-2.64-5.89-6.36a11.76,11.76,0,0,0-3.7-8.46,5.86,5.86,0,0,1-1.73-4.16,6.21,6.21,0,0,1,2.06-4.5A11.75,11.75,0,0,0,298.12,240.07Zm21.1,62.21-.71-.42a3.81,3.81,0,0,0-1.41-.28,3.74,3.74,0,0,0-1.39.27l-7.68,6V279a7.61,7.61,0,0,1,1,.8,11.27,11.27,0,0,0,8,3.32,12.11,12.11,0,0,0,8.57-3.65,5.49,5.49,0,0,1,.62-.4V307.9Zm64-17a.48.48,0,0,1-.49.48h-51v-8.22a11.63,11.63,0,0,0,9.92-11.8,6.2,6.2,0,0,1,2.05-4.5,11.6,11.6,0,0,0-.33-16.58,6.19,6.19,0,0,1-1.72-4.63,11.62,11.62,0,0,0-12-11.5,5.89,5.89,0,0,1-4.16-1.72l-.34-.33a11.6,11.6,0,0,0-16.58.33,6.27,6.27,0,0,1-4.64,1.72,11.3,11.3,0,0,0-4.62,1H267a2.8,2.8,0,0,0,0,5.6h26.71a12.42,12.42,0,0,0-1.23,5.36,6.3,6.3,0,0,1-2,4.5,11.44,11.44,0,0,0-3.38,8.13,11.74,11.74,0,0,0,3.7,8.45,6.27,6.27,0,0,1,1.73,4.64,11.49,11.49,0,0,0,9.92,11.3v8.25H117.26a.47.47,0,0,1-.48-.48V130a.48.48,0,0,1,.48-.49H382.73a.49.49,0,0,1,.49.49ZM317.1,273.47a20.31,20.31,0,1,0-20.31-20.31A20.33,20.33,0,0,0,317.1,273.47Zm0-35a14.72,14.72,0,1,1-14.71,14.72A14.74,14.74,0,0,1,317.1,238.44Zm-61.33-46.19a2.8,2.8,0,0,1-.35,3.94l-10.37,8.67-5-4.22a2.8,2.8,0,1,1,3.6-4.29l1.43,1.21,6.77-5.66A2.8,2.8,0,0,1,255.77,192.25ZM240,216.05a2.8,2.8,0,1,1,3.6-4.29l1.43,1.21,6.78-5.67a2.8,2.8,0,1,1,3.58,4.3l-10.36,8.66Zm15.75,8.78a2.8,2.8,0,0,1-.35,3.94l-10.37,8.67-5-4.21a2.8,2.8,0,1,1,3.6-4.29l1.43,1.2,6.77-5.66A2.8,2.8,0,0,1,255.77,224.83Z"/></svg>