<svg id="Layer_1" data-name="Layer 1" xmlns="http://www.w3.org/2000/svg" viewBox="0 0 500 500"><defs><style>.cls-1{fill:#fff;}</style></defs><path class="cls-1" d="M199,351.1v0c0,3.9-3,6.08-7.2,6.08a12.47,12.47,0,0,1-8.32-3.13l2.55-3.06a9,9,0,0,0,5.85,2.38c1.77,0,2.83-.7,2.83-1.85v-.05c0-1.09-.67-1.65-4-2.5-3.95-1-6.5-2.1-6.5-6V343c0-3.56,2.86-5.91,6.87-5.91a11.34,11.34,0,0,1,7.28,2.5l-2.24,3.25a9.19,9.19,0,0,0-5.1-1.94c-1.65,0-2.52.76-2.52,1.71v.06c0,1.29.84,1.7,4.23,2.57C196.79,346.25,199,347.68,199,351.1Zm7.46-2.1h9.25v-3.84h-9.25v-4H217v-3.84H202.21V357h14.93v-3.84H206.49Zm23.23,4.31c-3.36,0-5.68-2.8-5.68-6.16v-.06a5.81,5.81,0,0,1,5.68-6.11,7.2,7.2,0,0,1,5,2.22l2.75-3.17a10.16,10.16,0,0,0-7.74-3,10,10,0,0,0-10.22,10.14v.05a9.91,9.91,0,0,0,10.06,10.09,10.05,10.05,0,0,0,8-3.5L234.88,351A7.08,7.08,0,0,1,229.72,353.31ZM253,348.58c0,3.11-1.6,4.7-4.23,4.7s-4.23-1.65-4.23-4.84v-11.1h-4.32v11.21c0,5.77,3.23,8.71,8.49,8.71s8.6-2.91,8.6-8.85V337.34H253ZM273.25,350l4.79,7H273l-4.19-6.27h-3.4V357h-4.31V337.34h9a7.81,7.81,0,0,1,5.72,2,6.17,6.17,0,0,1,1.68,4.48v.06A6.1,6.1,0,0,1,273.25,350Zm-.17-5.91c0-1.85-1.29-2.8-3.39-2.8H265.4v5.63h4.38c2.09,0,3.3-1.12,3.3-2.78ZM281,357h4.31V337.34H281Zm7.25-15.63h6V357h4.31V341.32h6v-4H288.21Zm26.68,3.89-4.68-7.87h-5l7.53,11.88V357H317v-7.81l7.53-11.8h-4.9Zm73.93-196.42V304.15a6.09,6.09,0,0,1-6.08,6.09H275a91.23,91.23,0,0,1-18,9.8,19.17,19.17,0,0,1-7,1.4h-.09a19.17,19.17,0,0,1-7-1.4,91.23,91.23,0,0,1-18-9.8H117.26a6.09,6.09,0,0,1-6.08-6.09V148.79a6.09,6.09,0,0,1,6.08-6.08H382.74A6.09,6.09,0,0,1,388.82,148.79ZM314.6,245.87V186.64C247.16,167,195.35,183,185.36,186.5v59.37c0,30,39.37,61.29,59.59,68.94a15.41,15.41,0,0,0,5,1h0a14.09,14.09,0,0,0,5-1C275.24,307.16,314.6,275.89,314.6,245.87Zm68.62-97.08a.47.47,0,0,0-.48-.48H117.26a.48.48,0,0,0-.48.48V304.15a.49.49,0,0,0,.48.49h100.1c-18.83-14.75-37.6-37-37.6-58.77V184.55a2.8,2.8,0,0,1,1.75-2.59c.58-.24,59-23.39,136.7-.09a2.81,2.81,0,0,1,2,2.68v61.32c0,21.8-18.76,44-37.6,58.77H382.74a.48.48,0,0,0,.48-.49Zm-110,113.81H226.72a2.8,2.8,0,1,0,0,5.6h46.53a2.8,2.8,0,1,0,0-5.6Zm0,12.14H226.72a2.8,2.8,0,1,0,0,5.59h46.53a2.8,2.8,0,1,0,0-5.59Zm0,12.13H226.72a2.8,2.8,0,0,0,0,5.6h46.53a2.8,2.8,0,0,0,0-5.6ZM233.4,204.63A16.58,16.58,0,1,1,250,221.2,16.6,16.6,0,0,1,233.4,204.63Zm5.6,0a11,11,0,1,0,11-11A11,11,0,0,0,239,204.63Zm43,45.71a2.81,2.81,0,0,1-2.8,2.8H220.72a2.8,2.8,0,0,1,0-5.6h2.77V237c0-8.37,7.41-15.19,16.52-15.19H260c9.11,0,16.52,6.82,16.52,15.19v10.5h2.77A2.8,2.8,0,0,1,282,250.34Zm-53-2.8h41.78V237c0-5.29-4.89-9.59-10.92-9.59H240c-6,0-10.92,4.3-10.92,9.59Zm109.1,76.72h1.73v-3h3.74v-1.57h-3.74V318h4.24v-1.57h-6Zm13.33-5.12v0c0,1.81-1.41,2.75-3.17,2.75H347v2.35h-1.72v-7.83h3.2A2.69,2.69,0,0,1,351.52,319.14Zm-1.75,0c0-.77-.54-1.18-1.4-1.18H347v2.39h1.37a1.21,1.21,0,0,0,1.36-1.18Zm6.52,3.64a2.32,2.32,0,0,1-2.26-2.46v0a2.31,2.31,0,0,1,2.26-2.44,2.89,2.89,0,0,1,2,.88l1.09-1.26a4.22,4.22,0,0,0-7.17,2.84v0a4,4,0,0,0,4,4,4,4,0,0,0,3.21-1.4l-1.1-1.11A2.81,2.81,0,0,1,356.29,322.81Zm4.07,1.45h1.81v-1.79h-1.81Zm6.49-3h1.74v1.12a2.73,2.73,0,0,1-1.63.47,2.35,2.35,0,0,1-2.37-2.48v0a2.36,2.36,0,0,1,2.25-2.44,2.89,2.89,0,0,1,2.05.79l1.09-1.31a4.33,4.33,0,0,0-3.08-1.07,4,4,0,0,0-4.11,4.05v0a3.92,3.92,0,0,0,4.12,4,5.07,5.07,0,0,0,3.34-1.24v-3.4h-3.4Zm12.82-.91v0a4.17,4.17,0,0,1-8.33,0v0a4.17,4.17,0,0,1,8.33,0Zm-1.8,0a2.38,2.38,0,0,0-2.37-2.46,2.34,2.34,0,0,0-2.35,2.44v0a2.38,2.38,0,0,0,2.37,2.46,2.34,2.34,0,0,0,2.35-2.44Zm5.89,1.6-2.05-5.52H379.8l3.17,7.89h1.52l3.17-7.89h-1.85Z"/></svg>