<svg id="Layer_1" data-name="Layer 1" xmlns="http://www.w3.org/2000/svg" viewBox="0 0 500 500"><defs><style>.cls-1{fill:#fff;}</style></defs><path class="cls-1" d="M343.19,311.7h-3.74v3h-1.72V306.9h6v1.57h-4.24v1.66h3.74Zm3.39.68v2.35h-1.73V306.9h3.2a2.68,2.68,0,0,1,3,2.71v0c0,1.81-1.41,2.75-3.17,2.75Zm0-1.53h1.36a1.21,1.21,0,0,0,1.36-1.18v0c0-.77-.53-1.18-1.4-1.18h-1.32Zm9.25-2.49a2.89,2.89,0,0,1,2,.88l1.09-1.27a4.06,4.06,0,0,0-3.09-1.2,4,4,0,0,0-4.08,4.05v0a4,4,0,0,0,4,4,4,4,0,0,0,3.21-1.4l-1.1-1.11a2.83,2.83,0,0,1-2.06.92,2.33,2.33,0,0,1-2.27-2.46v0A2.31,2.31,0,0,1,355.83,308.36Zm4.07,4.58v1.79h1.81v-1.79Zm6.48-4.58a2.86,2.86,0,0,1,2,.79l1.09-1.31a4.33,4.33,0,0,0-3.08-1.07,4,4,0,0,0-4.1,4.05v0a3.92,3.92,0,0,0,4.12,4,5.07,5.07,0,0,0,3.34-1.24v-3.41h-3.4v1.49h1.73v1.12a2.74,2.74,0,0,1-1.62.47,2.34,2.34,0,0,1-2.37-2.48v0A2.34,2.34,0,0,1,366.38,308.36Zm12.82,2.43v0a4.16,4.16,0,0,1-8.32,0v0a4,4,0,0,1,4.17-4.05A4,4,0,0,1,379.2,310.79Zm-1.8,0a2.37,2.37,0,0,0-2.37-2.46,2.33,2.33,0,0,0-2.35,2.43v0a2.38,2.38,0,0,0,2.37,2.46,2.34,2.34,0,0,0,2.35-2.44Zm5.89,1.6-2.05-5.52h-1.9l3.17,7.89H384l3.16-7.89h-1.85ZM137.73,346.73l8.4,19.75h-4.51l-1.79-4.4h-8.29l-1.8,4.4h-4.4l8.41-19.75Zm.56,11.54-2.61-6.36-2.6,6.36Zm18.35,4.57c-3.36,0-5.68-2.8-5.68-6.16v-.06a5.81,5.81,0,0,1,5.68-6.11,7.2,7.2,0,0,1,5,2.22l2.75-3.17a10.15,10.15,0,0,0-7.73-3,10,10,0,0,0-10.23,10.14v.05a9.9,9.9,0,0,0,10.06,10.09,10.05,10.05,0,0,0,8-3.5l-2.75-2.78A7.1,7.1,0,0,1,156.64,362.84Zm19.54,0c-3.36,0-5.69-2.8-5.69-6.16v-.06a5.81,5.81,0,0,1,5.69-6.11,7.2,7.2,0,0,1,5,2.22l2.75-3.17a10.12,10.12,0,0,0-7.73-3A10,10,0,0,0,166,356.68v.05A9.91,9.91,0,0,0,176,366.82a10.05,10.05,0,0,0,8-3.5l-2.75-2.78A7.07,7.07,0,0,1,176.18,362.84Zm30.18-6.22v.06a10.42,10.42,0,0,1-20.84.05v-.05a10.42,10.42,0,0,1,20.84-.06Zm-4.51.06a6,6,0,0,0-5.94-6.17,5.87,5.87,0,0,0-5.88,6.11v.06a6,6,0,0,0,5.94,6.16,5.87,5.87,0,0,0,5.88-6.11Zm20.23,1.42c0,3.11-1.6,4.71-4.23,4.71s-4.23-1.65-4.23-4.85V346.87H209.3v11.21c0,5.77,3.23,8.71,8.49,8.71s8.61-2.91,8.61-8.85V346.87h-4.32Zm21.3.85-9.19-12.08h-4v19.61h4.26V354l9.5,12.46h3.67V346.87h-4.26Zm23.23-12.08H250.36v4h6v15.63h4.31V350.85h6Zm10.91-.14,8.41,19.75h-4.52l-1.79-4.4h-8.29l-1.79,4.4h-4.4l8.4-19.75Zm.56,11.54-2.6-6.36-2.61,6.36Zm27,2.78v.05c0,3.59-2.92,5.38-7.34,5.38h-9.33V346.87h9.1a7.09,7.09,0,0,1,5.13,1.74,4.49,4.49,0,0,1,1.35,3.33V352a4.57,4.57,0,0,1-2.58,4.23C303.63,357.1,305,358.41,305,361.05Zm-12.47-6.25h4c1.9,0,3.11-.62,3.11-2.07v-.06c0-1.29-1-2-2.83-2h-4.26Zm8.18,5.71c0-1.31-1-2.12-3.19-2.12h-5v4.31h5.13c1.9,0,3.05-.67,3.05-2.13Zm7.46,6h4.32V346.87h-4.32Zm13-19.61h-4.31v19.61H331v-3.92h-9.78Zm12.65,19.61h4.31V346.87h-4.31Zm7.25-15.63h6v15.63h4.31V350.85h6v-4H341.07Zm26.68,3.89-4.68-7.87h-5l7.53,11.88v7.73h4.32v-7.82l7.53-11.79h-4.9ZM289.68,248.53v5.37h5.6v-5.37Zm0-32.18v5.36h5.6v-5.36Zm0,21.45v5.37h5.6V237.8Zm0-10.72v5.36h5.6v-5.36Zm18.74-12.79a38,38,0,1,1-23.56-17.08A37.76,37.76,0,0,1,308.42,214.29Zm-62.31,7.43h23.51v-19.3a32.22,32.22,0,0,0-23.51,19.3Zm49.17-13.62V211h-5.6v-5.36h1.6a32.18,32.18,0,0,0-7.72-3,32.85,32.85,0,0,0-8.34-.86v22.72a2.8,2.8,0,0,1-2.8,2.8H244.35a32.13,32.13,0,0,0-.6,9.83,2.72,2.72,0,0,1,.7-.14h28a2.8,2.8,0,0,1,0,5.6H244.7a32.47,32.47,0,0,0,3.39,8h24.33a2.8,2.8,0,0,1,0,5.6h-20.2A32.23,32.23,0,0,0,267,265.31h5.41a2.74,2.74,0,0,1,2.3,1.3,32.16,32.16,0,0,0,15-3v-4.33h5.6v1a32.42,32.42,0,0,0,0-52.17Zm93.54-68.84V294.63a6.09,6.09,0,0,1-6.09,6.08h-55L339,319a2.8,2.8,0,0,1-.92,3.85l-11.44,7a2.81,2.81,0,0,1-1.47.41,2.88,2.88,0,0,1-.65-.07,2.84,2.84,0,0,1-1.73-1.26l-17.38-28.29H290.64v9l-3.09.33H185.76l-.29-3.13v-6.22H117.26a6.09,6.09,0,0,1-6.08-6.08V139.26a6.09,6.09,0,0,1,6.08-6.08H382.73A6.09,6.09,0,0,1,388.82,139.26ZM285,304.47V282.26a48.41,48.41,0,0,1-9,.88,48.69,48.69,0,0,1-34.1-13.95H207.38a2.8,2.8,0,1,1,0-5.6h29.55a48.64,48.64,0,0,1-5.22-8.75H207.38a2.8,2.8,0,1,1,0-5.6h22.14a48.79,48.79,0,0,1-2-8.76H207.38a2.8,2.8,0,1,1,0-5.59h19.76a48.83,48.83,0,0,1,.88-9.95h-20.8a2.8,2.8,0,0,1-2.8-2.8v-51a2.8,2.8,0,0,1,2.8-2.8H269a2.8,2.8,0,0,1,2.8,2.8v14.34a48.64,48.64,0,0,1,13.25.68V154.72h-94V304.47Zm33.13-60.2a43.34,43.34,0,1,0-52.23,32.08A43.4,43.4,0,0,0,318.17,244.27Zm-52-70.33H210v45.41h19.42a49,49,0,0,1,36.75-33Zm35.75,121.17-9.2-15c-.69.25-1.4.48-2.1.7v14.27Zm30.8,24.47-28.11-45.76a49.28,49.28,0,0,1-6.71,4.06l28.14,45.8Zm50.48-180.32a.49.49,0,0,0-.49-.48H117.26a.48.48,0,0,0-.48.48V294.63a.48.48,0,0,0,.48.48h68.21V149.46l3.08-.33h101.8l.29,3.13v35.29A48.86,48.86,0,0,1,309,270.29l15.25,24.82h58.46a.49.49,0,0,0,.49-.48Z"/></svg>