<svg id="Layer_1" data-name="Layer 1" xmlns="http://www.w3.org/2000/svg" viewBox="0 0 500 500"><defs><style>.cls-1{fill:#010101;}</style></defs><path class="cls-1" d="M180.63,258.53l5.31-1.74q.85,2.55,1.87,5L182.64,264Q181.53,261.29,180.63,258.53ZM176.72,230l5.6.23c.07-1.79.2-3.58.4-5.36l-5.57-.63Q176.83,227.15,176.72,230Zm7.75,21.59c-.43-1.74-.8-3.5-1.11-5.26l-5.51.95q.5,2.85,1.19,5.66Zm-7.4-10,5.56-.56c-.17-1.78-.29-3.58-.34-5.37l-5.6.16C176.75,237.74,176.87,239.66,177.07,241.58Zm29.64-63.32L203.07,174c-1.47,1.26-2.89,2.58-4.25,3.94l4,4Q204.67,180,206.71,178.26Zm-22.08,36-5.43-1.37c-.46,1.87-.88,3.75-1.22,5.64l5.5,1Q184,216.9,184.63,214.29Zm14,73.69c1.36,1.36,2.78,2.68,4.26,3.94l3.63-4.26q-2.05-1.76-3.93-3.63Zm131.27-69.31q-.53-2.86-1.29-5.65l-5.4,1.45q.69,2.58,1.19,5.24ZM215.17,293.92c-1.54-.94-3-1.93-4.47-3l-3.28,4.53c1.55,1.13,3.17,2.2,4.84,3.21ZM330.72,224.4l-5.57.61c.2,1.77.33,3.56.4,5.37l5.59-.22C331.07,228.23,330.92,226.3,330.72,224.4Zm-26.43-50-3.65,4.23c1.35,1.17,2.66,2.4,3.93,3.66l4-3.95Q306.48,176.28,304.29,174.39ZM290,164.59q-2.55-1.35-5.22-2.51l-2.24,5.12c1.65.72,3.26,1.51,4.84,2.34Zm4.74,134.24q2.46-1.53,4.79-3.24l-3.31-4.52q-2.16,1.59-4.44,3ZM295,167.5l-3,4.74c1.52.95,3,2,4.43,3l3.34-4.5Q297.45,169,295,167.5Zm-21.16-9.25-1.45,5.41q2.61.69,5.14,1.58l1.84-5.29Q276.62,159,273.82,158.25Zm8.42,140.82,2.23,5.14c1.77-.77,3.51-1.61,5.22-2.5l-2.6-5C285.5,297.59,283.89,298.36,282.24,299.07Zm18.16-11.33,3.65,4.25c1.46-1.26,2.88-2.56,4.25-3.92l-3.95-4C303.08,285.36,301.76,286.57,300.4,287.74Zm28.09-34.31q.75-2.77,1.31-5.64l-5.5-1.06q-.51,2.66-1.21,5.23Zm2.64-17.25-2.79-.33-2.81.22q-.11,2.7-.42,5.34l5.56.66C330.9,240.17,331.05,238.24,331.13,236.18ZM219.86,296.52l-2.53,5q2.53,1.29,5.24,2.43l2.17-5.17C223.06,298.07,221.44,297.32,219.86,296.52Zm15.07,5.69q-2.64-.69-5.16-1.55L228,306c1.79.6,3.63,1.16,5.52,1.66ZM222.81,162c-1.81.74-3.57,1.55-5.27,2.41l2.52,5q2.37-1.19,4.87-2.22Zm11-3.6q-2.84.72-5.54,1.6l1.73,5.32c1.69-.55,3.41-1.05,5.18-1.49Zm-21.31,8.82q-2.5,1.53-4.83,3.21l3.28,4.54q2.15-1.56,4.46-3ZM273.54,308c1.87-.49,3.72-1.06,5.54-1.69L277.24,301q-2.52.87-5.13,1.56Zm-94.39,35.94,8.4,19.75H183l-1.79-4.39H173l-1.8,4.39h-4.39l8.4-19.75Zm.56,11.55-2.6-6.36-2.61,6.36Zm22-.17c0,3.11-1.59,4.7-4.23,4.7s-4.22-1.65-4.22-4.84v-11.1H189v11.21c0,5.77,3.22,8.71,8.49,8.71s8.6-2.91,8.6-8.85V344.07h-4.32Zm6.73-7.26h6v15.63h4.31V348.05h6v-4H208.49Zm31.25,3.78h-8v-7.76h-4.31v19.61h4.31v-7.87h8v7.87h4.32V344.07h-4.32Zm28.42,2v.06a10.43,10.43,0,0,1-20.85.05v-.05a10.43,10.43,0,0,1,20.85-.06Zm-4.51.06a6,6,0,0,0-5.94-6.17,5.87,5.87,0,0,0-5.89,6.11v.06a6,6,0,0,0,5.94,6.16,5.86,5.86,0,0,0,5.89-6.11Zm19.92,2.8,4.79,7h-5l-4.2-6.27h-3.39v6.27h-4.32V344.07h9a7.8,7.8,0,0,1,5.71,2,6.19,6.19,0,0,1,1.68,4.49v.05A6.09,6.09,0,0,1,283.57,356.68Zm-.17-5.91c0-1.85-1.29-2.8-3.39-2.8h-4.28v5.63h4.36c2.11,0,3.31-1.12,3.31-2.78Zm7.88,12.91h4.32V344.07h-4.32Zm7.25-15.63h6v15.63h4.32V348.05h6v-4H298.53Zm26.68,3.9-4.68-7.88h-5L323,356v7.73h4.31v-7.81l7.54-11.8H330Zm57.53-216H117.26a6.17,6.17,0,0,0-6.08,6.24V296.15a6.24,6.24,0,0,0,1.74,4.36,6,6,0,0,0,4.34,1.88h69.3V296.8H117.27l-.49-.65V142.22a.59.59,0,0,1,.48-.64H382.74a.59.59,0,0,1,.48.64V296.15a.59.59,0,0,1-.48.65h-60v5.59h60a6.17,6.17,0,0,0,6.08-6.24V142.22A6.17,6.17,0,0,0,382.74,136Zm-129,183a11.21,11.21,0,0,1-11-9.45c-1.2-.19-2.41-.37-3.58-.6l1.08-5.49c1,.19,2,.34,3,.5a11.2,11.2,0,0,1,7.7-7V279.79a46.73,46.73,0,0,1-35-19.15l-15.85,9.83a11.24,11.24,0,0,1,.14,5.5,11.41,11.41,0,0,1-1.64,3.7c.11.14.21.29.33.42l-4.26,3.63-.31-.39a11.12,11.12,0,0,1-5,1.3,11.27,11.27,0,0,1-9.56-5.31,11.21,11.21,0,0,1,17.57-13.73L212.88,256a46.67,46.67,0,0,1-.4-45.06l-15.75-9.77a11.27,11.27,0,0,1-7.46,2.86,11,11,0,0,1-2.26-.32l1,.43q-1,2.49-1.88,5l-5.31-1.78q.92-2.75,2-5.41l.14.06a11.17,11.17,0,0,1,11.41-19.18c.16-.19.31-.4.47-.6l4.27,3.62c-.2.22-.36.47-.55.7a11.21,11.21,0,0,1,1.61,3.65,11.09,11.09,0,0,1-.35,6.28l15.59,9.67a46.79,46.79,0,0,1,35.47-19.78V170A11.18,11.18,0,0,1,243,162.3c-.87.13-1.75.23-2.59.38l-1-5.51c1.1-.2,2.26-.34,3.39-.5a11.18,11.18,0,0,1,21.74-.25c1.22.17,2.43.32,3.62.55l-1,5.5c-.86-.17-1.74-.26-2.61-.4a11.21,11.21,0,0,1-8,8v16.35a46.81,46.81,0,0,1,35.85,20.28l16.4-10.17a11.23,11.23,0,0,1,.61-8.79c-.39-.49-.76-1-1.17-1.47l4.24-3.65c.25.28.46.58.7.87.1-.07.17-.15.28-.22a11.22,11.22,0,0,1,11.83,19.07c-.12.08-.26.1-.38.17.71,1.65,1.38,3.33,2,5l-5.29,1.83q-.88-2.54-2-5l1.34-.59a10.67,10.67,0,0,1-1.59.22,11.42,11.42,0,0,1-2.58-.3,11,11,0,0,1-4.85-2.57l-16.68,10.34a46.65,46.65,0,0,1-.35,44l16.41,10.18a11.2,11.2,0,0,1,5.47-3.11,10.82,10.82,0,0,1,3-.24l-.33-.15q1.08-2.44,2-5l5.28,1.86c-.57,1.61-1.21,3.18-1.87,4.74.12.07.25.11.37.18a11.23,11.23,0,0,1,3.62,15.44h0a11.24,11.24,0,0,1-15.45,3.62,3.15,3.15,0,0,1-.29-.22c-.3.37-.58.75-.89,1.11L308,280.17c.47-.54.9-1.13,1.36-1.69a11.2,11.2,0,0,1-.81-8l-16.67-10.33a46.75,46.75,0,0,1-35.38,19.65v17.13a11.21,11.21,0,0,1,7.77,7.21c.86-.12,1.73-.22,2.57-.37l1,5.5c-1,.19-2.09.31-3.14.46A11.21,11.21,0,0,1,253.73,319Zm60.15-44.28a5.55,5.55,0,0,0,2.51,3.49,5.63,5.63,0,1,0-2.51-3.49ZM316.39,188a5.55,5.55,0,0,0-2.51,3.49,5.61,5.61,0,0,0,4.19,6.76,5.53,5.53,0,0,0,4.24-.69,5.62,5.62,0,0,0-5.92-9.56Zm-122.31,7.74a5.64,5.64,0,0,0-1.82-7.74,5.58,5.58,0,0,0-2.95-.85,5.7,5.7,0,0,0-1.3.15,5.63,5.63,0,1,0,6.07,8.44Zm-1.82,82.46a5.63,5.63,0,1,0-7.74-1.82h0a5.63,5.63,0,0,0,3.49,2.51A5.57,5.57,0,0,0,192.26,278.18Zm86.14-23.12c0-6.38-5.88-11.57-13.11-11.57H242.18c-7.23,0-13.11,5.19-13.11,11.57v11a40.92,40.92,0,0,0,49.33,0Zm-24.67-90.24a5.63,5.63,0,1,0-5.62-5.63A5.64,5.64,0,0,0,253.73,164.82ZM223.47,261v-6c0-9.46,8.39-17.16,18.71-17.16h23.11c10.32,0,18.71,7.7,18.71,17.16v6a41.26,41.26,0,1,0-60.53,0Zm30.26,52.35a5.63,5.63,0,1,0-5.62-5.62A5.63,5.63,0,0,0,253.73,313.37ZM235,215.91a18.78,18.78,0,1,1,18.77,18.77A18.79,18.79,0,0,1,235,215.91Zm5.6,0a13.18,13.18,0,1,0,13.17-13.18A13.19,13.19,0,0,0,240.56,215.91Zm97.17,100.26h1.72v-3h3.74v-1.57h-3.74V309.9h4.24v-1.56h-6ZM351.05,311v0c0,1.81-1.41,2.75-3.17,2.75h-1.31v2.35h-1.72v-7.83h3.2A2.68,2.68,0,0,1,351.05,311Zm-1.75,0c0-.77-.53-1.19-1.4-1.19h-1.33v2.4h1.37a1.21,1.21,0,0,0,1.36-1.19Zm6.53,3.64a2.34,2.34,0,0,1-2.27-2.47v0a2.32,2.32,0,0,1,2.27-2.44,2.88,2.88,0,0,1,2,.89l1.1-1.27a4,4,0,0,0-3.09-1.21,4,4,0,0,0-4.08,4.05v0a4,4,0,0,0,4,4,4,4,0,0,0,3.22-1.4l-1.1-1.1A2.85,2.85,0,0,1,355.83,314.72Zm4.06,1.45h1.82v-1.79h-1.82Zm6.5-3h1.73v1.12a2.77,2.77,0,0,1-1.62.47,2.35,2.35,0,0,1-2.37-2.49v0a2.35,2.35,0,0,1,2.25-2.44,2.85,2.85,0,0,1,2,.8l1.09-1.31a4.29,4.29,0,0,0-3.08-1.08,4,4,0,0,0-4.1,4.05v0a3.91,3.91,0,0,0,4.11,4,5.12,5.12,0,0,0,3.35-1.24v-3.4h-3.4Zm12.81-.92v0a4.16,4.16,0,0,1-8.32,0v0a4.06,4.06,0,0,1,4.17-4.05A4,4,0,0,1,379.2,312.23Zm-1.8,0a2.38,2.38,0,0,0-2.37-2.46,2.34,2.34,0,0,0-2.35,2.44v0a2.39,2.39,0,0,0,2.37,2.47,2.35,2.35,0,0,0,2.35-2.45Zm5.89,1.6-2.05-5.51h-1.9l3.17,7.88H384l3.16-7.88h-1.85Z"/></svg>