<svg id="Layer_1" data-name="Layer 1" xmlns="http://www.w3.org/2000/svg" viewBox="0 0 500 500"><defs><style>.cls-1{fill:#010101;}</style></defs><polygon class="cls-1" points="158.6 347.68 153.44 339.39 148.79 339.39 148.79 359 153.02 359 153.02 346.28 158.48 354.57 158.6 354.57 164.11 346.19 164.11 359 168.4 359 168.4 339.39 163.75 339.39 158.6 347.68"/><rect class="cls-1" x="172.72" y="339.39" width="4.31" height="19.61"/><polygon class="cls-1" points="194.53 351.46 185.34 339.39 181.37 339.39 181.37 359 185.62 359 185.62 346.53 195.12 359 198.79 359 198.79 339.39 194.53 339.39 194.53 351.46"/><rect class="cls-1" x="203.11" y="339.39" width="4.31" height="19.61"/><polygon class="cls-1" points="221.57 347.68 216.41 339.39 211.76 339.39 211.76 359 215.99 359 215.99 346.28 221.45 354.57 221.57 354.57 227.09 346.19 227.09 359 231.37 359 231.37 339.39 226.72 339.39 221.57 347.68"/><rect class="cls-1" x="235.69" y="339.39" width="4.31" height="19.61"/><polygon class="cls-1" points="244.08 343.17 254.53 343.17 243.75 355.72 243.75 359 260.08 359 260.08 355.21 249.29 355.21 260.08 342.66 260.08 339.39 244.08 339.39 244.08 343.17"/><path class="cls-1" d="M270.32,339.25,261.91,359h4.39l1.8-4.4h8.29l1.8,4.4h4.5l-8.39-19.75Zm-.68,11.54,2.61-6.36,2.6,6.36Z"/><polygon class="cls-1" points="281.22 343.37 287.19 343.37 287.19 359 291.5 359 291.5 343.37 297.47 343.37 297.47 339.39 281.22 339.39 281.22 343.37"/><rect class="cls-1" x="300.39" y="339.39" width="4.32" height="19.61"/><path class="cls-1" d="M318.63,339.05a10.14,10.14,0,0,0-10.45,10.14v.06a10.42,10.42,0,0,0,20.83-.06v-.05A10,10,0,0,0,318.63,339.05Zm5.88,10.2a5.87,5.87,0,0,1-5.88,6.1,6,6,0,0,1-5.95-6.16v-.05a5.87,5.87,0,0,1,5.89-6.11,6,6,0,0,1,5.94,6.16Z"/><polygon class="cls-1" points="345.43 351.46 336.25 339.39 332.27 339.39 332.27 359 336.53 359 336.53 346.53 346.02 359 349.7 359 349.7 339.39 345.43 339.39 345.43 351.46"/><path class="cls-1" d="M382.74,140.67H117.26a6.09,6.09,0,0,0-6.08,6.08V302.11a6.09,6.09,0,0,0,6.08,6.08H382.74a6.09,6.09,0,0,0,6.08-6.08V146.75A6.09,6.09,0,0,0,382.74,140.67Zm.48,161.44a.47.47,0,0,1-.48.48H117.26a.48.48,0,0,1-.48-.48V146.75a.49.49,0,0,1,.48-.49H382.74a.48.48,0,0,1,.48.49Z"/><path class="cls-1" d="M362.31,166.63h-79a2.8,2.8,0,0,0-2.8,2.8v6.87H273a2.81,2.81,0,0,0-2.8,2.8v33.75l-9.91-7.11a3.8,3.8,0,0,0-3.95-.3,4.28,4.28,0,0,0-2.27,3.86l0,15.21h-11l-11-21.75H217.93V195h-19.5v19.5h19.5v-6.1h10.68l8.17,16.16H192l-18-35.8H156.28v-7h-19.5v19.49h19.5V194.3h14.2l15.21,30.21H163.23v-7.27h-19.5v19.5h19.5v-6.63h22.46l-15.21,30.21h-14.2v-6.95h-19.5v19.5h19.5v-6.95h17.65l18-35.81h44.82l-8.17,16.16H217.93v-5.74h-19.5V260h19.5v-8.16h14.12l11-21.76h11l0,14.58a4.28,4.28,0,0,0,2.27,3.85,3.73,3.73,0,0,0,1.72.42,3.85,3.85,0,0,0,2.23-.72l9.91-7.11v36.29a2.8,2.8,0,0,0,2.8,2.8h79a2.8,2.8,0,0,0,2.8-2.8v-6.87h7.47a2.81,2.81,0,0,0,2.8-2.8V169.43A2.8,2.8,0,0,0,362.31,166.63Zm-150,42.22H204v-8.3h8.3Zm-61.65-13.19h-8.31v-8.31h8.31Zm0,71.61h-8.31V259h8.31Zm61.65-12.84H204v-8.3h8.3Zm-54.7-23.29h-8.3v-8.3h8.3ZM259.69,241.8l0-14.66v-.29l0-14.67L280.34,227Zm89.55,32.82H275.83V237.11l9.15-6.56a4.48,4.48,0,0,0,0-7.12l-9.15-6.56v-35h73.41ZM359.51,265h-4.67V179.1a2.8,2.8,0,0,0-2.8-2.8H286.1v-4.07h73.41Z"/><path class="cls-1" d="M325.48,213.42l11.5-11.5a2.8,2.8,0,0,0-4-4l-7.54,7.54-1.62-1.62a2.8,2.8,0,1,0-3.95,4Z"/><path class="cls-1" d="M325.48,233.88,337,222.39a2.8,2.8,0,0,0-4-4L325.48,226l-1.62-1.62a2.8,2.8,0,1,0-3.95,4Z"/><path class="cls-1" d="M325.48,256.7,337,245.2a2.8,2.8,0,0,0-4-4l-7.54,7.54-1.62-1.62a2.8,2.8,0,1,0-3.95,4Z"/><path class="cls-1" d="M310,240.52H292.86v17.09H310Zm-5.6,11.5h-5.89v-5.9h5.89Z"/><path class="cls-1" d="M310,217.82H292.86v17.09H310Zm-5.6,11.49h-5.89v-5.9h5.89Z"/><path class="cls-1" d="M310,196.16H292.86v17.09H310Zm-5.6,11.49h-5.89v-5.9h5.89Z"/><polygon class="cls-1" points="343.88 314.11 343.88 312.55 337.91 312.55 337.91 320.38 339.63 320.38 339.63 317.35 343.37 317.35 343.37 315.78 339.63 315.78 339.63 314.11 343.88 314.11"/><path class="cls-1" d="M348.23,312.55H345v7.83h1.73V318h1.3c1.76,0,3.17-.94,3.17-2.75v0A2.68,2.68,0,0,0,348.23,312.55Zm1.25,2.76a1.21,1.21,0,0,1-1.36,1.18h-1.36V314.1h1.32c.87,0,1.4.42,1.4,1.19Z"/><path class="cls-1" d="M356,318.92a2.33,2.33,0,0,1-2.27-2.46v0A2.32,2.32,0,0,1,356,314a2.94,2.94,0,0,1,2,.88l1.09-1.26a4,4,0,0,0-3.09-1.21,4,4,0,0,0-4.08,4v0a4,4,0,0,0,4,4,4,4,0,0,0,3.22-1.4l-1.1-1.1A2.82,2.82,0,0,1,356,318.92Z"/><rect class="cls-1" x="360.08" y="318.59" width="1.81" height="1.79"/><path class="cls-1" d="M366.57,317.36h1.73v1.12a2.74,2.74,0,0,1-1.62.47,2.35,2.35,0,0,1-2.37-2.49v0a2.35,2.35,0,0,1,2.25-2.44,2.86,2.86,0,0,1,2,.79l1.09-1.3a4.29,4.29,0,0,0-3.08-1.08,4,4,0,0,0-4.1,4v0a3.92,3.92,0,0,0,4.11,4,5.08,5.08,0,0,0,3.35-1.24v-3.4h-3.4Z"/><path class="cls-1" d="M375.23,312.41a4.06,4.06,0,0,0-4.17,4v0a4.16,4.16,0,0,0,8.32,0v0A4,4,0,0,0,375.23,312.41Zm2.35,4.07a2.34,2.34,0,0,1-2.35,2.44,2.38,2.38,0,0,1-2.37-2.46v0a2.34,2.34,0,0,1,2.35-2.44,2.38,2.38,0,0,1,2.37,2.46Z"/><polygon class="cls-1" points="383.47 318.06 381.42 312.55 379.52 312.55 382.69 320.43 384.21 320.43 387.37 312.55 385.52 312.55 383.47 318.06"/></svg>