<svg id="Layer_1" data-name="Layer 1" xmlns="http://www.w3.org/2000/svg" viewBox="0 0 500 500"><defs><style>.cls-1{fill:#010101;}</style></defs><path class="cls-1" d="M340.27,300.56H336v1.66h3.74v1.57H336v3h-1.72V299h6Zm4.36-1.57a2.68,2.68,0,0,1,3,2.71v0c0,1.81-1.41,2.75-3.17,2.75h-1.31v2.35h-1.72V299Zm-.15,1.55h-1.33v2.4h1.37a1.21,1.21,0,0,0,1.36-1.18v0C345.88,301,345.35,300.54,344.48,300.54Zm7.93-.09a2.87,2.87,0,0,1,2,.88l1.1-1.27a4.06,4.06,0,0,0-3.09-1.2,4,4,0,0,0-4.08,4.05v0a4,4,0,0,0,4,4,4,4,0,0,0,3.21-1.4l-1.09-1.11a2.85,2.85,0,0,1-2.06.92,2.33,2.33,0,0,1-2.27-2.46v0A2.31,2.31,0,0,1,352.41,300.45Zm5.88,6.37V305h-1.81v1.79Zm4.67-6.37a2.88,2.88,0,0,1,2,.79l1.09-1.31a4.33,4.33,0,0,0-3.08-1.07,4,4,0,0,0-4.11,4.05v0a3.92,3.92,0,0,0,4.12,4,5.12,5.12,0,0,0,3.35-1.24v-3.41H363v1.49h1.73v1.12a2.79,2.79,0,0,1-1.62.47,2.34,2.34,0,0,1-2.37-2.48v0A2.34,2.34,0,0,1,363,300.45Zm12.82,2.43v0a4.06,4.06,0,0,1-4.17,4,4,4,0,0,1-4.15-4v0a4.16,4.16,0,0,1,8.32,0Zm-1.8,0a2.38,2.38,0,0,0-2.37-2.46,2.33,2.33,0,0,0-2.35,2.43v0a2.38,2.38,0,0,0,2.37,2.46,2.34,2.34,0,0,0,2.35-2.44Zm9.79-3.92h-1.85l-2.05,5.52L377.82,299h-1.9l3.17,7.89h1.52ZM113.12,132a.47.47,0,0,1,.48-.48H379.07a.48.48,0,0,1,.49.48v14.88h5.6V132a6.09,6.09,0,0,0-6.09-6.08H113.6a6.09,6.09,0,0,0-6.08,6.08v14.88h5.6Zm272,155.37V275.73h-5.6v11.64a.49.49,0,0,1-.49.48H113.6a.48.48,0,0,1-.48-.48V275.73h-5.6v11.64a6.08,6.08,0,0,0,6.08,6.07H379.07A6.08,6.08,0,0,0,385.16,287.37ZM86.28,332.93V333c0,4.54-3.53,6.89-7.92,6.89H75.08v5.89H70.76V326.15h8C83.45,326.15,86.28,328.92,86.28,332.93Zm-4.36.08c0-1.93-1.35-3-3.51-3H75.08v6H78.5c2.15,0,3.42-1.29,3.42-3Zm23.76,4.2V326.15h-4.31v11.23c0,3.11-1.6,4.71-4.23,4.71s-4.23-1.65-4.23-4.85V326.15H88.59v11.2c0,5.78,3.22,8.72,8.49,8.72S105.68,343.15,105.68,337.21Zm20.77,8.55h-5l-4.2-6.28h-3.39v6.28H109.5V326.15h9a7.83,7.83,0,0,1,5.72,2,6.15,6.15,0,0,1,1.68,4.48v.05a6.08,6.08,0,0,1-4.21,6.08Zm-5-12.92c0-1.85-1.29-2.8-3.39-2.8h-4.29v5.63h4.37c2.1,0,3.31-1.12,3.31-2.77Zm23.2.09V333c0,4.54-3.53,6.89-7.92,6.89h-3.28v5.89h-4.32V326.15h8C141.86,326.15,144.69,328.92,144.69,332.93Zm-4.37.08c0-1.93-1.34-3-3.5-3h-3.33v6h3.41c2.16,0,3.42-1.29,3.42-3Zm27,2.89V336a10.42,10.42,0,0,1-20.84.06V336a10.42,10.42,0,0,1,20.84-.05Zm-4.51.05a6,6,0,0,0-5.94-6.16A5.87,5.87,0,0,0,151,335.9V336a6,6,0,0,0,5.94,6.16,5.86,5.86,0,0,0,5.88-6.1Zm14.69,6.28a9,9,0,0,1-5.86-2.38l-2.55,3a12.48,12.48,0,0,0,8.32,3.14c4.23,0,7.2-2.19,7.2-6.08v-.06c0-3.42-2.24-4.84-6.22-5.88-3.39-.87-4.23-1.29-4.23-2.58v-.05c0-1,.87-1.71,2.52-1.71a9.22,9.22,0,0,1,5.1,1.93l2.24-3.25a11.35,11.35,0,0,0-7.28-2.49c-4,0-6.86,2.35-6.86,5.91v.06c0,3.89,2.55,5,6.49,6,3.28.84,3.95,1.4,3.95,2.49v.06C180.28,341.53,179.22,342.23,177.46,342.23ZM202.54,330v-3.83H187.75v19.61h14.93v-3.84H192V337.8h9.25V334H192v-4Zm19.19,4c-3.39-.87-4.23-1.29-4.23-2.58v-.05c0-1,.87-1.71,2.52-1.71a9.22,9.22,0,0,1,5.1,1.93l2.24-3.25a11.35,11.35,0,0,0-7.28-2.49c-4,0-6.86,2.35-6.86,5.91v.06c0,3.89,2.54,5,6.49,6,3.28.84,3.95,1.4,3.95,2.49v.06c0,1.15-1.06,1.85-2.83,1.85a9,9,0,0,1-5.85-2.38l-2.55,3a12.48,12.48,0,0,0,8.32,3.14c4.23,0,7.2-2.19,7.2-6.08v-.06C228,336.48,225.71,335.06,221.73,334Zm17,5.85h-3.28v5.89h-4.31V326.15h8c4.68,0,7.51,2.77,7.51,6.78V333C246.65,337.52,243.12,339.87,238.72,339.87ZM235.44,336h3.42c2.16,0,3.42-1.29,3.42-3V333c0-1.93-1.35-3-3.5-3h-3.34ZM264.05,330v-3.83H249.26v19.61h14.93v-3.84H253.55V337.8h9.24V334h-9.24v-4Zm12.73,12.13c-3.36,0-5.69-2.79-5.69-6.16v-.05a5.82,5.82,0,0,1,5.69-6.11,7.27,7.27,0,0,1,5,2.21l2.74-3.16a10.08,10.08,0,0,0-7.73-3A10,10,0,0,0,266.58,336V336a9.9,9.9,0,0,0,10.06,10.08,10,10,0,0,0,8-3.5l-2.74-2.77A7.09,7.09,0,0,1,276.78,342.11Zm15.28-16h-4.31v19.61h4.31Zm19.26,3.92v-3.92H296.39v19.61h4.31v-7.6h9.36v-3.92H300.7v-4.17Zm7.38,15.69V326.15h-4.31v19.61Zm13.66-16a7.24,7.24,0,0,1,5,2.21l2.75-3.16a10.12,10.12,0,0,0-7.74-3A10,10,0,0,0,322.17,336V336a10.34,10.34,0,0,0,18.09,6.58l-2.74-2.77a7.09,7.09,0,0,1-5.16,2.29c-3.36,0-5.68-2.79-5.68-6.16v-.05A5.81,5.81,0,0,1,332.36,329.79Zm25.36,16-1.79-4.4h-8.29l-1.79,4.4h-4.4l8.4-19.75h4l8.41,19.75Zm-3.33-8.21-2.61-6.36-2.6,6.36ZM371,345.76V330.13h6v-4H360.76v4h6v15.63Zm13.21-19.61h-4.32v19.61h4.32Zm24.3,9.75V336a10.42,10.42,0,0,1-20.84.06V336a10.42,10.42,0,0,1,20.84-.05ZM404,336a6,6,0,0,0-5.93-6.16,5.87,5.87,0,0,0-5.89,6.11V336a6,6,0,0,0,5.94,6.16A5.85,5.85,0,0,0,404,336Zm20.94-9.8v12.07l-9.19-12.07h-4v19.61h4.26V333.29l9.49,12.47h3.68V326.15ZM112.91,354l8.41,19.74H116.8L115,369.35h-8.29l-1.79,4.39h-4.4l8.4-19.74Zm.56,11.54-2.61-6.36-2.6,6.36Zm23.46.67-9.19-12.08h-4v19.61H128V361.28l9.49,12.46h3.67V354.13h-4.25Zm26.44-2.33v.06c0,5.52-4.25,9.8-10.42,9.8h-7.64V354.13H153C159.12,354.13,163.37,358.37,163.37,363.88Zm-4.5.06A5.63,5.63,0,0,0,153,358h-3.33v11.82H153a5.59,5.59,0,0,0,5.92-5.85Zm28.06,1.43c0,3.11-1.59,4.7-4.22,4.7s-4.24-1.65-4.24-4.84v-11.1h-4.31v11.21c0,5.77,3.22,8.71,8.49,8.71s8.6-2.91,8.6-8.85V354.13h-4.32ZM203,362c-3.39-.87-4.23-1.29-4.23-2.58v-.06c0-.95.87-1.7,2.53-1.7a9.12,9.12,0,0,1,5.09,1.93l2.24-3.25a11.32,11.32,0,0,0-7.28-2.49c-4,0-6.86,2.35-6.86,5.9v.06c0,3.9,2.55,5,6.5,6,3.27.84,4,1.4,4,2.49v.06c0,1.14-1.07,1.85-2.83,1.85a9,9,0,0,1-5.86-2.39l-2.55,3.06A12.5,12.5,0,0,0,202,374c4.23,0,7.2-2.19,7.2-6.09v-.05C209.24,364.47,207,363,203,362Zm13.69,3.78H226V362h-9.24v-4h10.5v-3.84H212.42v19.61h14.93v-3.83H216.71Zm26-11.66h-4.31v19.61h14.09v-3.92h-9.78Zm12.65,19.61h4.31V354.13h-4.31Zm18.45-11.31-5.16-8.3h-4.65v19.61h4.23V361l5.46,8.29h.12l5.52-8.38v12.8h4.28V354.13H279ZM288,373.74h4.32V354.13H288Zm23.5-19.61H295.23v4h6v15.63h4.31V358.11h6Zm10.91-.13,8.41,19.74h-4.52l-1.79-4.39H316.2l-1.8,4.39H310l8.4-19.74Zm.56,11.54-2.61-6.36-2.6,6.36Zm6.37-7.43h6v15.63h4.31V358.11h6v-4H329.32Zm19.17,15.63h4.31V354.13h-4.31Zm28.62-9.86v.06a10.42,10.42,0,0,1-20.84.06v-.06a10.42,10.42,0,0,1,20.84-.06Zm-4.51.06a6,6,0,0,0-5.94-6.17,5.87,5.87,0,0,0-5.88,6.11v.06a6,6,0,0,0,5.94,6.16,5.86,5.86,0,0,0,5.88-6.1Zm20.93,2.27-9.19-12.08h-4v19.61h4.26V361.28l9.5,12.46h3.67V354.13h-4.26ZM98.37,263.13h-5.6v5.6h5.6Zm0-65.73h-5.6v5.48h5.6Zm0,32.87h-5.6v5.48h5.6Zm0-11h-5.6v5.48h5.6Zm0,32.87h-5.6v5.47h5.6Zm0-43.82h-5.6v5.47h5.6Zm0,32.86h-5.6v5.48h5.6Zm0-76.68h-5.6V170h5.6Zm0,21.91h-5.6v5.48h5.6Zm0-11h-5.6V181h5.6Zm0-22h-5.6v5.59h5.6Zm53.73,0h-5.37v5.59h5.37Zm10.74,0h-5.37v5.59h5.37Zm-32.23,0h-5.38v5.59h5.38Zm5.37,0v5.59h5.37v-5.59Zm-16.12,0h-5.37v5.59h5.37Zm-10.74,0h-5.38v5.59h5.38Zm64.69,0h-5.59v5.59h5.59Zm-5.59,93.23h5.59v-5.48h-5.59Zm0-54.77h5.59v-5.48h-5.59Zm0-21.91h5.59v-5.48h-5.59Zm0,87.64h5.59v-5.48h-5.59Zm0-21.91h5.59v-5.48h-5.59Zm0-32.87h5.59v-5.47h-5.59Zm0-21.91h5.59v-5.48h-5.59Zm0,32.87h5.59v-5.48h-5.59Zm0,10.95h5.59v-5.48h-5.59Zm0,43.94h5.59v-5.6h-5.59Zm-59.1-5.6h-5.38v5.6h5.38Zm32.23,5.6v-5.6H136v5.6Zm-10.74,0v-5.6h-5.38v5.6Zm21.49,0v-5.6h-5.37v5.6Zm-37.61,0h5.37v-5.6h-5.37Zm43,0h5.37v-5.6h-5.37Zm107.14-44.26H226.05a2.8,2.8,0,0,0,0,5.6h38.56a2.8,2.8,0,1,0,0-5.6Zm0,11.32H226.05a2.8,2.8,0,0,0,0,5.6h38.56a2.8,2.8,0,0,0,0-5.6Zm0,11.68H226.05a2.8,2.8,0,0,0,0,5.6h38.56a2.8,2.8,0,0,0,0-5.6ZM270.9,212a2.8,2.8,0,0,1-2.8,2.8H221.65a2.8,2.8,0,1,1,0-5.6h2.48V201a13.21,13.21,0,0,1,13.19-13.19h3a13.24,13.24,0,1,1,9.15,0h3A13.21,13.21,0,0,1,265.62,201v8.16h2.48A2.8,2.8,0,0,1,270.9,212Zm-26-28.89a7.64,7.64,0,1,0-7.64-7.63A7.64,7.64,0,0,0,244.87,183.11ZM229.72,209.2H260V201a7.6,7.6,0,0,0-7.59-7.59H237.32a7.6,7.6,0,0,0-7.6,7.59Zm-77.16,13.47H118.3a2.8,2.8,0,1,0,0,5.6h34.26a2.8,2.8,0,0,0,0-5.6Zm0,10H118.3a2.8,2.8,0,1,0,0,5.6h34.26a2.8,2.8,0,1,0,0-5.6Zm2.8,13.18a2.8,2.8,0,0,0-2.8-2.8H118.3a2.8,2.8,0,1,0,0,5.6h34.26A2.81,2.81,0,0,0,155.36,245.89Zm-41-36.79h1.89v-6.93a12,12,0,0,1,12-12h1.19a12.08,12.08,0,1,1,11,0h1.19a12.05,12.05,0,0,1,12,12v6.93h1.88a2.8,2.8,0,0,1,0,5.6H114.4a2.8,2.8,0,0,1,0-5.6Zm14.15-29.64A6.48,6.48,0,1,0,135,173,6.48,6.48,0,0,0,128.55,179.46Zm-6.67,29.64h26.29v-6.93a6.45,6.45,0,0,0-6.44-6.44H128.32a6.45,6.45,0,0,0-6.44,6.44Zm197,59.63h5.6v-5.6h-5.6Zm0-22h5.6v-5.48h-5.6Zm0-21.91h5.6v-5.48h-5.6Zm0,32.86h5.6v-5.47h-5.6Zm0-43.82h5.6v-5.47h-5.6Zm0,21.92h5.6v-5.48h-5.6Zm0-65.73h5.6v-5.48h-5.6Zm0,32.86h5.6V197.4h-5.6Zm0-21.91h5.6v-5.48h-5.6Zm0,11h5.6v-5.48h-5.6Zm5.6-38.46h-5.6v5.59h5.6Zm37.61,0v5.59h5.37v-5.59Zm-5.37,0h-5.38v5.59h5.38Zm21.49,0h-5.38v5.59h5.38Zm-32.24,0h-5.37v5.59H346Zm43,0h-5.37v5.59h5.37Zm-53.72,0h-5.38v5.59h5.38Zm64.69,0h-5.6v5.59h5.6Zm0,65.84h-5.6v5.48h5.6Zm0-10.95h-5.6v5.48h5.6Zm0,43.82h-5.6v5.48h5.6Zm0-11h-5.6v5.48h5.6Zm0-76.68h-5.6V170h5.6Zm0,11h-5.6V181h5.6Zm0,11h-5.6v5.48h5.6Zm0,11h-5.6v5.47h5.6Zm0,32.86h-5.6v5.48h5.6Zm0,32.86h-5.6v5.6h5.6Zm-43.2,5.6v-5.6h-5.38v5.6Zm21.49,0v-5.6h-5.38v5.6Zm-10.75,0v-5.6h-5.37v5.6Zm-37.61,0h5.38v-5.6h-5.38Zm10.75,0H346v-5.6h-5.37Zm48.35-5.6h-5.37v5.6h5.37Zm-10.28-40.46H344.39a2.8,2.8,0,0,0,0,5.6h34.26a2.8,2.8,0,0,0,0-5.6Zm0,10H344.39a2.8,2.8,0,1,0,0,5.6h34.26a2.8,2.8,0,0,0,0-5.6Zm2.79,13.18a2.79,2.79,0,0,0-2.79-2.8H344.39a2.8,2.8,0,1,0,0,5.6h34.26A2.8,2.8,0,0,0,381.44,245.89ZM340.49,209.1h1.88v-6.93a12.05,12.05,0,0,1,12-12h1.19a12.07,12.07,0,1,1,11,0h1.19a12,12,0,0,1,12,12v6.93h1.89a2.8,2.8,0,1,1,0,5.6H340.49a2.8,2.8,0,0,1,0-5.6Zm14.15-29.64a6.48,6.48,0,1,0,6.47-6.47A6.47,6.47,0,0,0,354.64,179.46ZM348,209.1h26.29v-6.93a6.45,6.45,0,0,0-6.44-6.44H354.41a6.45,6.45,0,0,0-6.44,6.44Zm-57.83-59.74v106h2.37l-4,5.6h-9.79v13.65h13.64v-4.95l-1.15,1.64a2.76,2.76,0,0,1-2.06,1.17h-.23a2.77,2.77,0,0,1-2-.85l-5.1-5.23a2.8,2.8,0,1,1,4-3.9l2.75,2.82,9.95-14.14a2.8,2.8,0,0,1,4.58,3.23l-5.15,7.3v15.7a2.8,2.8,0,0,1-2.8,2.8H275.94a2.8,2.8,0,0,1-2.8-2.8v-1.73H202.41a2.8,2.8,0,0,1-2.8-2.8V149.36a2.8,2.8,0,0,1,2.8-2.8h84.93A2.8,2.8,0,0,1,290.14,149.36Zm-5.6,106V152.16H205.2V270h67.94V258.11a2.8,2.8,0,0,1,2.8-2.8Z"/></svg>