<svg id="Layer_1" data-name="Layer 1" xmlns="http://www.w3.org/2000/svg" viewBox="0 0 500 500"><defs><style>.cls-1{fill:#010101;}</style></defs><path class="cls-1" d="M166.68,337.24,158.27,357h4.4l1.79-4.4h8.3l1.79,4.4h4.51l-8.41-19.75ZM166,348.78l2.6-6.36,2.61,6.36Zm17.88-1.65v.05c0,3.36,2.32,6.16,5.68,6.16a7.09,7.09,0,0,0,5.16-2.29l2.74,2.77a10,10,0,0,1-8,3.5,9.89,9.89,0,0,1-10.05-10.08v-.06A10,10,0,0,1,189.6,337a10.08,10.08,0,0,1,7.73,3l-2.74,3.16a7.24,7.24,0,0,0-5-2.21A5.81,5.81,0,0,0,183.89,347.13ZM209,357.32a9.89,9.89,0,0,1-10.06-10.08v-.06A10,10,0,0,1,209.14,337a10.1,10.1,0,0,1,7.73,3l-2.75,3.16a7.23,7.23,0,0,0-5-2.21,5.81,5.81,0,0,0-5.69,6.11v.05c0,3.36,2.32,6.16,5.69,6.16a7.06,7.06,0,0,0,5.15-2.29l2.75,2.77A10,10,0,0,1,209,357.32Zm15.19-16.11v4h9.25V349h-9.25v4.12h10.65V357H219.87V337.38h14.8v3.83ZM248,351.61v-.06c0-1.09-.67-1.65-3.94-2.49-3.95-1-6.5-2.1-6.5-6V343c0-3.56,2.85-5.91,6.86-5.91a11.32,11.32,0,0,1,7.28,2.49l-2.24,3.25a9.12,9.12,0,0,0-5.1-1.93c-1.65,0-2.52.75-2.52,1.71v.05c0,1.29.84,1.71,4.23,2.58,4,1,6.22,2.46,6.22,5.88v.06c0,3.89-3,6.08-7.2,6.08a12.48,12.48,0,0,1-8.32-3.14l2.55-3.06a9,9,0,0,0,5.86,2.39C246.89,353.46,248,352.76,248,351.61Zm14.16,5.66a12.5,12.5,0,0,1-8.32-3.14l2.55-3.06a9,9,0,0,0,5.86,2.39c1.76,0,2.83-.7,2.83-1.85v-.06c0-1.09-.68-1.65-3.95-2.49-3.95-1-6.5-2.1-6.5-6V343c0-3.56,2.86-5.91,6.86-5.91a11.32,11.32,0,0,1,7.28,2.49l-2.24,3.25a9.12,9.12,0,0,0-5.1-1.93c-1.65,0-2.52.75-2.52,1.71v.05c0,1.29.84,1.71,4.23,2.58,4,1,6.22,2.46,6.22,5.88v.06C269.31,355.08,266.34,357.27,262.11,357.27Zm32.81-.28h4.51L291,337.24h-4L278.64,357H283l1.79-4.4h8.3Zm-8.54-8.21,2.6-6.36,2.61,6.36ZM315.63,357l-9.5-12.47V357h-4.26V337.38h4L315,349.45V337.38h4.26V357Zm25.86-9.81v-.05c0-5.52-4.26-9.75-10.42-9.75h-7.65V357h7.65C337.23,357,341.49,352.7,341.49,347.18Zm-13.75-5.91h3.33a5.63,5.63,0,0,1,5.91,5.91v.06a5.59,5.59,0,0,1-5.91,5.85h-3.33Zm-162.36,24L157,385h4.4l1.79-4.39h8.3l1.79,4.39h4.51l-8.41-19.75Zm-.68,11.55,2.61-6.36,2.61,6.36Zm30.46-11.41h4.65V385h-4.28v-12.8L190,380.55h-.11l-5.47-8.29V385H180.2V365.36h4.66l5.15,8.3Zm13.06,15.78h10.65V385H203.94V365.36h14.79v3.84H208.22v4h9.25V377h-9.25Zm27.07-15.78h4.26V385h-3.67l-9.49-12.46V385h-4.26V365.36h4l9.19,12.08Zm16,0h-7.64V385h7.64c6.17,0,10.43-4.28,10.43-9.8v-.06C261.75,369.59,257.49,365.36,251.32,365.36Zm5.92,9.86a5.59,5.59,0,0,1-5.92,5.86H248V369.26h3.33a5.63,5.63,0,0,1,5.92,5.91ZM280,365.36h4.65V385h-4.28v-12.8l-5.52,8.38h-.11l-5.47-8.29V385H265V365.36h4.65l5.16,8.3ZM293,381.14h10.65V385H288.73V365.36h14.8v3.84H293v4h9.25V377H293Zm27.07-15.78h4.26V385h-3.67l-9.5-12.46V385h-4.25V365.36h4l9.18,12.08Zm7,0h16.25v4h-6V385H333V369.34h-6Zm-45.18-67.54a2.8,2.8,0,0,1,0,5.6H230.12a2.8,2.8,0,0,1,0-5.6ZM247.24,186.35a2.81,2.81,0,0,1-2.8,2.8H203.53a2.8,2.8,0,1,1,0-5.6h40.91A2.8,2.8,0,0,1,247.24,186.35Zm0,14.12a2.8,2.8,0,0,1-2.8,2.8H203.53a2.8,2.8,0,0,1,0-5.6h40.91A2.8,2.8,0,0,1,247.24,200.47Zm0,14.13a2.8,2.8,0,0,1-2.8,2.8H203.53a2.8,2.8,0,1,1,0-5.6h40.91A2.8,2.8,0,0,1,247.24,214.6Zm-56-16.24a2,2,0,0,1,0,3.21l-9,6.43a1.78,1.78,0,0,1-1,.33,1.68,1.68,0,0,1-.81-.2,1.93,1.93,0,0,1-1-1.74v-3.62H166V209a2.8,2.8,0,1,1-5.6,0V197.17h19.05v-3.62a2,2,0,0,1,1-1.75,1.79,1.79,0,0,1,1.84.14ZM309.37,186.8v-2.47a2.1,2.1,0,1,1,4.19,0v2.47a2.1,2.1,0,1,1-4.19,0Zm38.79-1.86h-6.57V178.8h6.67v-4.19H303.8v-4h11.75v-2H303.8v-.32h11.75v-2H303.8v-.54h4.31V162H303.8v-.76H301v13.34H262v4.19h7v6.14h-7.29v38h-4.41v4.2H283v1.09h-1.26v4.2h48v-4.2h-2.14v-1.09h24.47v-4.2h-3.89Zm-79.18,38h-3.1v-33.8H269Zm20.65,5.29H287.2V204.4h2.43Zm10.24,0h-6V204.4h6Zm6.64,0h-2.44V204.4h2.44Zm10.24,0H310.7V204.4h6.05Zm-8.15-28H288.85v-1.9h32.87v1.9H308.6Zm14.78,28H321V204.4h2.43Zm14-5.29h-9.81V204.4h5.25v-4.2h-6.91v-6.1H284.66v6.1h-6.91v4.2H283v18.54h-9.82V178.8h64.21Zm6.57,0h-2.37v-33.8H344Zm-28.41-59.15H309v-2h6.57Zm-30.89,23v-2.47a2.1,2.1,0,1,1,4.19,0v2.47a2.1,2.1,0,1,1-4.19,0Zm30.89-20.73H309v-2h6.57Zm6.17,20.73v-2.47a2.1,2.1,0,1,1,4.2,0v2.47a2.1,2.1,0,0,1-4.2,0Zm-24.71,0v-2.47a2.1,2.1,0,1,1,4.2,0v2.47a2.1,2.1,0,1,1-4.2,0ZM384.3,115H127.71a11.07,11.07,0,0,0-11.07,11.07v106a44,44,0,1,0,72.74,46.61h34.78L206.3,294.13a12.72,12.72,0,0,0,8.33,22.35h82.75a12.73,12.73,0,0,0,8.33-22.35l-17.86-15.47H384.3a11.07,11.07,0,0,0,11.07-11.06V126.1A11.07,11.07,0,0,0,384.3,115ZM128,294.5v-9.89c0-5.45,4.83-9.87,10.76-9.87h19.71c5.93,0,10.76,4.42,10.76,9.87v9.89a38.15,38.15,0,0,1-41.23,0Zm46.83-4.36v-5.53c0-8.53-7.34-15.47-16.36-15.47H138.77c-9,0-16.36,6.94-16.36,15.47v5.53a38.4,38.4,0,1,1,52.43,0Zm17.51-32.75a43.79,43.79,0,0,0-53.9-38V136.3h235.1V257.39Zm109.7,41a7.13,7.13,0,0,1-4.67,12.52H214.63A7.13,7.13,0,0,1,210,298.36l22.74-19.7h46.6Zm87.72-30.76a5.48,5.48,0,0,1-5.47,5.47H191.2A44.15,44.15,0,0,0,192.58,263H379.15V130.71H132.86v90.42A44.16,44.16,0,0,0,122.23,227V126.1a5.49,5.49,0,0,1,5.48-5.48H384.3a5.48,5.48,0,0,1,5.47,5.48ZM148.62,234.18A16.42,16.42,0,1,0,165,250.6,16.44,16.44,0,0,0,148.62,234.18Zm0,27.24a10.82,10.82,0,1,1,10.82-10.82A10.83,10.83,0,0,1,148.62,261.42ZM341.56,284h6v1.56h-4.24v1.67H347v1.57h-3.74v3h-1.73Zm10.32,0h-3.2v7.83h1.73v-2.35h1.31c1.75,0,3.16-.94,3.16-2.75v0A2.68,2.68,0,0,0,351.88,284Zm1.26,2.76a1.21,1.21,0,0,1-1.37,1.18h-1.36v-2.39h1.33c.86,0,1.4.42,1.4,1.19Zm8.58,2.7,1.1,1.1a4.13,4.13,0,0,1-7.23-2.63v0a4.22,4.22,0,0,1,7.17-2.84l-1.09,1.26a2.94,2.94,0,0,0-2-.88,2.32,2.32,0,0,0-2.27,2.44v0a2.33,2.33,0,0,0,2.27,2.46A2.8,2.8,0,0,0,361.72,289.5Zm2,.58h1.81v1.79h-1.81Zm6.49-2.72h3.4v3.4a5.07,5.07,0,0,1-3.34,1.24,3.92,3.92,0,0,1-4.12-4v0a4,4,0,0,1,4.11-4.05,4.25,4.25,0,0,1,3.07,1.08l-1.08,1.3a2.91,2.91,0,0,0-2.05-.79,2.36,2.36,0,0,0-2.25,2.44v0a2.36,2.36,0,0,0,2.37,2.49A2.8,2.8,0,0,0,372,290v-1.12h-1.74Zm8.67-3.46a4.06,4.06,0,0,0-4.18,4.05v0a4.17,4.17,0,0,0,8.33,0v0A4,4,0,0,0,378.89,283.9Zm2.35,4.07a2.34,2.34,0,0,1-2.35,2.44,2.38,2.38,0,0,1-2.38-2.46v0a2.35,2.35,0,0,1,2.35-2.44,2.38,2.38,0,0,1,2.38,2.46Zm7.93-3.93H391l-3.17,7.88h-1.52L383.17,284h1.91l2,5.51Z"/></svg>