<svg id="Layer_1" data-name="Layer 1" xmlns="http://www.w3.org/2000/svg" viewBox="0 0 500 500"><defs><style>.cls-1{fill:#010101;}</style></defs><path class="cls-1" d="M377.44,108.16H122.56a6.09,6.09,0,0,0-6.09,6.08V269.6a6.09,6.09,0,0,0,6.09,6.08h85.65a43.27,43.27,0,0,0-.3,5,44,44,0,0,0,88,0,45.63,45.63,0,0,0-.3-5h81.84a6.09,6.09,0,0,0,6.09-6.08V114.24A6.09,6.09,0,0,0,377.44,108.16ZM231.29,313v-9.89c0-5.45,4.82-9.87,10.76-9.87h19.71c5.93,0,10.75,4.42,10.75,9.87V313a38.13,38.13,0,0,1-41.22,0Zm46.82-4.36v-5.53c0-8.53-7.33-15.47-16.35-15.47H242.05c-9,0-16.36,6.94-16.36,15.47v5.53a38.4,38.4,0,1,1,52.42,0ZM212.25,203.21v35H192.81V157.49h116.6v80.73H290v-35H300.3v-5.6H287v-10.9H215.21v10.9H201.92v5.6Zm17.44,0h12.7v34.53a43.2,43.2,0,0,0-12.7,5Zm-2.8-5.6H220.8v-5.3h60.62v5.3H226.89Zm21.1,5.6h6.25v33.58c-.78,0-1.55-.12-2.34-.12-1.32,0-2.62.08-3.91.2Zm11.84,0h12.71v38.62a43.86,43.86,0,0,0-12.71-4.41Zm24.55,44.47h-3.46c-.9-.79-1.83-1.53-2.79-2.25V203.21h6.25Zm-66.54-44.47h6.25v43.4c-.42.34-.8.72-1.21,1.07h-5ZM377.93,269.6a.49.49,0,0,1-.49.49H294.56a43.87,43.87,0,0,0-8.29-16.81h8.48v-5.6H290v-3.86h44.66v-5.6h-7.9V170.36H315V157.49h12.86v-5.6H247.35v-8.82h22.09v-2H247.35V139h22.09v-2H247.35V135.3h8.8v-6.82h-8.8v-1.37h-2.8v24.78H173.78v5.6h13.43v12.87h-13v67.86h-8.82v5.6h46.89v3.86h-3.2v5.6h8.48a43.71,43.71,0,0,0-8.28,16.81H122.56a.49.49,0,0,1-.49-.49V114.24a.48.48,0,0,1,.49-.48H377.44a.48.48,0,0,1,.49.48ZM315,238.22V176h6.13v62.27ZM187.21,176v62.27h-7.43V176Z"/><path class="cls-1" d="M218,175.53a2.8,2.8,0,0,0,2.79-2.8v-4.42a2.8,2.8,0,1,0-5.59,0v4.42A2.8,2.8,0,0,0,218,175.53Z"/><rect class="cls-1" x="257.69" y="128.89" width="11.75" height="1.96"/><path class="cls-1" d="M240.07,175.53a2.8,2.8,0,0,0,2.8-2.8v-4.42a2.8,2.8,0,1,0-5.59,0v4.42A2.8,2.8,0,0,0,240.07,175.53Z"/><rect class="cls-1" x="257.69" y="132.96" width="11.75" height="1.96"/><path class="cls-1" d="M262.14,175.53a2.8,2.8,0,0,0,2.8-2.8v-4.42a2.8,2.8,0,1,0-5.59,0v4.42A2.8,2.8,0,0,0,262.14,175.53Z"/><path class="cls-1" d="M284.22,175.53a2.81,2.81,0,0,0,2.8-2.8v-4.42a2.8,2.8,0,1,0-5.6,0v4.42A2.8,2.8,0,0,0,284.22,175.53Z"/><path class="cls-1" d="M251.9,252.69a16.42,16.42,0,1,0,16.42,16.42A16.43,16.43,0,0,0,251.9,252.69Zm0,27.23a10.82,10.82,0,1,1,10.82-10.81A10.83,10.83,0,0,1,251.9,279.92Z"/><rect class="cls-1" x="168.34" y="343.91" width="4.31" height="19.61"/><polygon class="cls-1" points="181.25 351.05 190.74 363.52 194.41 363.52 194.41 343.91 190.15 343.91 190.15 355.98 180.96 343.91 176.99 343.91 176.99 363.52 181.25 363.52 181.25 351.05"/><path class="cls-1" d="M206.18,343.91h-7.64v19.61h7.64c6.17,0,10.43-4.29,10.43-9.81v0C216.61,348.14,212.35,343.91,206.18,343.91Zm5.92,9.86a5.59,5.59,0,0,1-5.92,5.85h-3.33V347.8h3.33a5.63,5.63,0,0,1,5.92,5.91Z"/><rect class="cls-1" x="220.06" y="343.91" width="4.31" height="19.61"/><polygon class="cls-1" points="236.91 357.72 231.79 343.91 227.02 343.91 234.95 363.66 238.76 363.66 246.69 343.91 242.04 343.91 236.91 357.72"/><rect class="cls-1" x="249.33" y="343.91" width="4.31" height="19.61"/><path class="cls-1" d="M276,353.71v0c0-5.52-4.25-9.75-10.41-9.75H258v19.61h7.65C271.79,363.52,276,359.23,276,353.71Zm-13.75-5.91h3.34a5.63,5.63,0,0,1,5.91,5.91v.06a5.59,5.59,0,0,1-5.91,5.85h-3.34Z"/><path class="cls-1" d="M279,343.91v11.2c0,5.78,3.22,8.72,8.49,8.72s8.59-2.92,8.59-8.86V343.91h-4.31v11.23c0,3.11-1.59,4.71-4.23,4.71s-4.23-1.65-4.23-4.85V343.91Z"/><path class="cls-1" d="M309.9,343.77h-4l-8.41,19.75h4.4l1.79-4.4H312l1.79,4.4h4.51Zm-4.64,11.54,2.6-6.36,2.6,6.36Z"/><polygon class="cls-1" points="320.75 343.91 320.75 363.52 334.84 363.52 334.84 359.6 325.07 359.6 325.07 343.91 320.75 343.91"/><path class="cls-1" d="M158.77,378.67c0-4-2.83-6.77-7.51-6.77h-8v19.6h4.31v-5.88h3.28c4.4,0,7.93-2.35,7.93-6.89Zm-4.37.15c0,1.68-1.26,3-3.42,3h-3.42v-6h3.33c2.16,0,3.51,1,3.51,3Z"/><path class="cls-1" d="M166.15,371.76l-8.41,19.74h4.4l1.79-4.39h8.3L174,391.5h4.51l-8.41-19.74Zm-.67,11.54,2.6-6.36,2.61,6.36Z"/><path class="cls-1" d="M197.33,378.42v-.05a6.15,6.15,0,0,0-1.68-4.49,7.78,7.78,0,0,0-5.71-2h-9v19.6h4.32v-6.27h3.39l4.2,6.27h5l-4.79-7A6.07,6.07,0,0,0,197.33,378.42Zm-4.37.23c0,1.65-1.2,2.77-3.3,2.77h-4.37v-5.63h4.29c2.1,0,3.38.95,3.38,2.8Z"/><polygon class="cls-1" points="199.25 375.88 205.21 375.88 205.21 391.5 209.53 391.5 209.53 375.88 215.49 375.88 215.49 371.89 199.25 371.89 199.25 375.88"/><rect class="cls-1" x="218.42" y="371.9" width="4.31" height="19.61"/><path class="cls-1" d="M236.4,387.86c-3.37,0-5.69-2.8-5.69-6.16v-.06a5.8,5.8,0,0,1,5.69-6.1,7.23,7.23,0,0,1,5,2.21l2.75-3.17a10.14,10.14,0,0,0-7.74-3A10,10,0,0,0,226.2,381.7v.06a9.9,9.9,0,0,0,10.06,10.08,10,10,0,0,0,8-3.5l-2.75-2.77A7.06,7.06,0,0,1,236.4,387.86Z"/><rect class="cls-1" x="247.36" y="371.9" width="4.31" height="19.61"/><path class="cls-1" d="M271.52,378.67c0-4-2.83-6.77-7.51-6.77h-8v19.6h4.31v-5.88h3.28c4.39,0,7.92-2.35,7.92-6.89Zm-4.37.15c0,1.68-1.26,3-3.41,3h-3.42v-6h3.33c2.16,0,3.5,1,3.5,3Z"/><path class="cls-1" d="M278.9,371.76l-8.4,19.74h4.4l1.79-4.39H285l1.79,4.39h4.51l-8.4-19.74Zm-.67,11.54,2.61-6.36,2.6,6.36Z"/><polygon class="cls-1" points="289.81 375.88 295.78 375.88 295.78 391.5 300.09 391.5 300.09 375.88 306.06 375.88 306.06 371.89 289.81 371.89 289.81 375.88"/><rect class="cls-1" x="308.98" y="371.9" width="4.31" height="19.61"/><path class="cls-1" d="M327.21,371.56a10.14,10.14,0,0,0-10.45,10.14v.06a10.42,10.42,0,0,0,20.84-.06v-.06A10,10,0,0,0,327.21,371.56Zm5.89,10.2a5.87,5.87,0,0,1-5.89,6.1,6,6,0,0,1-5.94-6.16v-.06a5.86,5.86,0,0,1,5.88-6.1,6,6,0,0,1,6,6.16Z"/><polygon class="cls-1" points="354.02 383.97 344.84 371.89 340.86 371.89 340.86 391.5 345.12 391.5 345.12 379.04 354.62 391.5 358.28 391.5 358.28 371.89 354.02 371.89 354.02 383.97"/><polygon class="cls-1" points="333.87 288.35 335.59 288.35 335.59 285.32 339.33 285.32 339.33 283.75 335.59 283.75 335.59 282.08 339.83 282.08 339.83 280.51 333.87 280.51 333.87 288.35"/><path class="cls-1" d="M344,286c1.75,0,3.16-.94,3.16-2.75v0a2.68,2.68,0,0,0-3-2.71H341v7.84h1.72V286Zm-1.32-3.93H344c.86,0,1.4.42,1.4,1.19v0a1.21,1.21,0,0,1-1.37,1.18H342.7Z"/><path class="cls-1" d="M352,282a2.85,2.85,0,0,1,2,.88l1.1-1.26a4.22,4.22,0,0,0-7.17,2.84v0a4.13,4.13,0,0,0,7.23,2.63L354,286a2.8,2.8,0,0,1-2.06.91,2.33,2.33,0,0,1-2.27-2.46v0A2.32,2.32,0,0,1,352,282Z"/><rect class="cls-1" x="356.03" y="286.56" width="1.81" height="1.79"/><path class="cls-1" d="M362.52,285.33h1.74v1.12a2.8,2.8,0,0,1-1.63.47,2.36,2.36,0,0,1-2.37-2.49v0a2.36,2.36,0,0,1,2.25-2.44,2.91,2.91,0,0,1,2.05.79l1.08-1.3a4.27,4.27,0,0,0-3.08-1.08,4,4,0,0,0-4.1,4.05v0a3.92,3.92,0,0,0,4.11,4,5.08,5.08,0,0,0,3.35-1.24v-3.4h-3.4Z"/><path class="cls-1" d="M371.18,280.38a4.06,4.06,0,0,0-4.17,4.05v0a4.17,4.17,0,0,0,8.33,0v0A4,4,0,0,0,371.18,280.38Zm2.35,4.07a2.34,2.34,0,0,1-2.35,2.44,2.38,2.38,0,0,1-2.37-2.46v0a2.34,2.34,0,0,1,2.35-2.44,2.38,2.38,0,0,1,2.37,2.46Z"/><polygon class="cls-1" points="379.42 286.03 377.38 280.51 375.47 280.51 378.64 288.4 380.16 288.4 383.33 280.51 381.47 280.51 379.42 286.03"/></svg>