<svg id="calendar2-week-fill" xmlns="http://www.w3.org/2000/svg" width="151.5" height="151.5" viewBox="0 0 151.5 151.5">
  <path id="Path_4" data-name="Path 4" d="M132.563,11.719H18.938a9.469,9.469,0,0,0-9.469,9.469V125.344a9.469,9.469,0,0,0,9.469,9.469H132.563a9.469,9.469,0,0,0,9.469-9.469V21.188A9.469,9.469,0,0,0,132.563,11.719ZM18.938,2.25A18.938,18.938,0,0,0,0,21.188V125.344a18.937,18.937,0,0,0,18.938,18.938H132.563A18.937,18.937,0,0,0,151.5,125.344V21.188A18.937,18.937,0,0,0,132.563,2.25Z" transform="translate(0 7.219)" fill="#9f5000" fill-rule="evenodd"/>
  <path id="Path_5" data-name="Path 5" d="M11.484,0a4.734,4.734,0,0,1,4.734,4.734V9.469a4.734,4.734,0,1,1-9.469,0V4.734A4.734,4.734,0,0,1,11.484,0ZM96.7,0a4.734,4.734,0,0,1,4.734,4.734V9.469a4.734,4.734,0,1,1-9.469,0V4.734A4.734,4.734,0,0,1,96.7,0Z" transform="translate(21.656 0)" fill="#9f5000" fill-rule="evenodd"/>
  <path id="Path_6" data-name="Path 6" d="M5.625,12.609a4.734,4.734,0,0,1,4.734-4.734h94.688a4.734,4.734,0,0,1,4.734,4.734v9.469a4.734,4.734,0,0,1-4.734,4.734H10.359a4.734,4.734,0,0,1-4.734-4.734ZM86.109,45.75a4.734,4.734,0,0,1,4.734-4.734h9.469a4.734,4.734,0,0,1,4.734,4.734v9.469a4.734,4.734,0,0,1-4.734,4.734H90.844a4.734,4.734,0,0,1-4.734-4.734Zm-28.406,0a4.734,4.734,0,0,1,4.734-4.734h9.469a4.734,4.734,0,0,1,4.734,4.734v9.469a4.734,4.734,0,0,1-4.734,4.734H62.438A4.734,4.734,0,0,1,57.7,55.219ZM10.359,74.156a4.734,4.734,0,0,1,4.734-4.734h9.469A4.734,4.734,0,0,1,29.3,74.156v9.469a4.734,4.734,0,0,1-4.734,4.734H15.094a4.734,4.734,0,0,1-4.734-4.734Zm28.406,0A4.734,4.734,0,0,1,43.5,69.422h9.469A4.734,4.734,0,0,1,57.7,74.156v9.469a4.734,4.734,0,0,1-4.734,4.734H43.5a4.734,4.734,0,0,1-4.734-4.734Z" transform="translate(18.047 25.266)" fill="#9f5000"/>
</svg>
