<svg id="calendar-event" xmlns="http://www.w3.org/2000/svg" width="149.145" height="149.145" viewBox="0 0 149.145 149.145">
  <path id="Path_7" data-name="Path 7" d="M9.322,30.215v93.216a9.322,9.322,0,0,0,9.322,9.322H130.5a9.322,9.322,0,0,0,9.322-9.322V30.215ZM18.643,2.25A18.643,18.643,0,0,0,0,20.893V123.431a18.643,18.643,0,0,0,18.643,18.643H130.5a18.643,18.643,0,0,0,18.643-18.643V20.893A18.643,18.643,0,0,0,130.5,2.25Z" transform="translate(0 7.072)" fill="#9f5000" fill-rule="evenodd"/>
  <path id="Path_8" data-name="Path 8" d="M11.411,0a4.661,4.661,0,0,1,4.661,4.661V9.322a4.661,4.661,0,0,1-9.322,0V4.661A4.661,4.661,0,0,1,11.411,0ZM95.305,0a4.661,4.661,0,0,1,4.661,4.661V9.322a4.661,4.661,0,0,1-9.322,0V4.661A4.661,4.661,0,0,1,95.305,0Z" transform="translate(21.215 0)" fill="#9f5000" fill-rule="evenodd"/>
  <path id="Path_9" data-name="Path 9" d="M29.411,13.5h9.322a4.661,4.661,0,0,1,4.661,4.661v9.322a4.661,4.661,0,0,1-4.661,4.661H29.411a4.661,4.661,0,0,1-4.661-4.661V18.161A4.661,4.661,0,0,1,29.411,13.5Z" transform="translate(77.787 42.43)" fill="#9f5000"/>
</svg>
